<svg width="50" height="66" viewBox="0 0 50 66" fill="none" xmlns="http://www.w3.org/2000/svg">
<path d="M49.841 0.359924C49.739 0.214125 49.595 0.104485 49.428 0.0463945C49.262 -0.0116955 49.082 -0.0153257 48.913 0.0360143C23.773 7.62348 8.096 18.4848 2.334 32.3192C-2.486 43.8877 1.699 53.4386 2.513 55.1912C1.162 61.0681 0.372 64.0065 0 64.0065C0.372 64.0065 0.689999 64.338 0.376999 64.6453C0.517999 64.8232 0.377004 65.0285 0.507004 65.3977H0.595993C0.804993 65.3966 1.007 65.3175 1.162 65.1754C1.317 65.0333 1.139 64.8565 1.162 64.6453C1.382 64.5175 1.75899 61.1958 3.76199 55.9261C5.09399 56.0157 6.41101 56.0837 7.68201 56.0837C26.27 56.088 38.099 46.5831 40.397 29.5269C42.791 11.7592 49.778 1.46616 49.847 1.35915C49.948 1.21231 50.001 1.03749 50 0.858624C49.999 0.679754 49.944 0.505574 49.841 0.359924ZM38.719 29.2941C35.512 53.0455 14.53 54.8372 4.38901 54.2617C8.15301 44.6223 16.566 29.5341 35.123 14.5429C35.274 14.3928 35.365 14.1912 35.378 13.977C35.391 13.7627 35.326 13.5511 35.195 13.3829C35.064 13.2148 34.876 13.102 34.668 13.0666C34.459 13.0311 34.246 13.0753 34.068 13.1908C15.786 27.9652 7.169 42.8899 3.153 52.8012C0.977 46.3322 1.242 39.272 3.895 32.9902C9.292 20.0465 23.879 9.74478 47.244 2.35259C45.067 6.18898 40.586 15.4524 38.719 29.2941Z" fill="#636F19"/>
</svg>
