<svg width="300" height="120" viewBox="0 0 300 120" fill="none" xmlns="http://www.w3.org/2000/svg">
<path d="M48.5963 18H56.6963V37.47L70.9763 18H72.8663L61.6463 33.27L72.8363 48H70.9763L60.7163 34.53L56.6963 39.99V48H48.5963V18ZM91.0088 17.7L105.289 48H103.639L101.179 42.81H80.8388L78.4088 48H76.7588L91.0088 17.7ZM100.489 41.31L91.0088 21.21L81.5588 41.31H100.489ZM109.182 18H123.252C126.232 18 128.782 19.05 130.902 21.15C133.002 23.27 134.052 25.82 134.052 28.8C134.052 31.78 133.002 34.33 130.902 36.45C128.782 38.57 126.232 39.63 123.252 39.63H110.682V48H109.182V18ZM123.252 38.13C125.832 38.13 128.032 37.22 129.852 35.4C131.652 33.58 132.552 31.38 132.552 28.8C132.552 26.24 131.642 24.05 129.822 22.23C128.002 20.41 125.812 19.5 123.252 19.5H110.682V38.13H123.252ZM137.952 18H139.452V26.37H152.022C155.002 26.37 157.552 27.43 159.672 29.55C161.772 31.67 162.822 34.22 162.822 37.2C162.822 40.18 161.772 42.73 159.672 44.85C157.552 46.95 155.002 48 152.022 48H137.952V18ZM139.452 27.87V46.5H152.022C154.582 46.5 156.772 45.59 158.592 43.77C160.412 41.95 161.322 39.76 161.322 37.2C161.322 34.62 160.422 32.42 158.622 30.6C156.802 28.78 154.602 27.87 152.022 27.87H139.452ZM138.552 18H158.352V19.5H138.552V18ZM182.051 48.33C177.811 48.33 174.201 46.84 171.221 43.86C168.221 40.86 166.721 37.25 166.721 33.03C166.721 28.81 168.221 25.21 171.221 22.23C174.221 19.23 177.831 17.73 182.051 17.73C186.271 17.73 189.871 19.23 192.851 22.23C195.831 25.21 197.321 28.81 197.321 33.03C197.321 37.25 195.831 40.85 192.851 43.83C189.871 46.83 186.271 48.33 182.051 48.33ZM182.051 46.83C185.851 46.83 189.101 45.48 191.801 42.78C194.481 40.1 195.821 36.85 195.821 33.03C195.821 29.23 194.471 25.98 191.771 23.28C189.091 20.58 185.851 19.23 182.051 19.23C178.231 19.23 174.971 20.58 172.271 23.28C169.571 25.98 168.221 29.23 168.221 33.03C168.221 36.83 169.571 40.08 172.271 42.78C174.971 45.48 178.231 46.83 182.051 46.83ZM202.112 18H203.612V38.01H224.912V18H226.412V48H224.912V39.51H203.612V48H202.112V18Z" fill="white"/>
<path d="M11.2227 69.3306V97.8306H3.12266V67.8306H27.4227V97.8306H25.9227V69.3306H11.2227ZM47.5445 98.1606C43.3045 98.1606 39.6945 96.6706 36.7145 93.6906C33.7145 90.6906 32.2145 87.0806 32.2145 82.8606C32.2145 78.6406 33.7145 75.0406 36.7145 72.0606C39.7145 69.0606 43.3245 67.5606 47.5445 67.5606C51.7645 67.5606 55.3645 69.0606 58.3445 72.0606C61.3245 75.0406 62.8145 78.6406 62.8145 82.8606C62.8145 87.0806 61.3245 90.6806 58.3445 93.6606C55.3645 96.6606 51.7645 98.1606 47.5445 98.1606ZM47.5445 96.6606C51.3445 96.6606 54.5945 95.3106 57.2945 92.6106C59.9745 89.9306 61.3145 86.6806 61.3145 82.8606C61.3145 79.0606 59.9645 75.8106 57.2645 73.1106C54.5845 70.4106 51.3445 69.0606 47.5445 69.0606C43.7245 69.0606 40.4645 70.4106 37.7645 73.1106C35.0645 75.8106 33.7145 79.0606 33.7145 82.8606C33.7145 86.6606 35.0645 89.9106 37.7645 92.6106C40.4645 95.3106 43.7245 96.6606 47.5445 96.6606ZM83.9251 79.8306C84.0251 79.8306 84.1051 79.8406 84.1651 79.8606C85.5451 79.7606 86.7051 79.2006 87.6451 78.1806C88.5851 77.1806 89.0551 75.9806 89.0551 74.5806C89.0551 73.1406 88.5351 71.9006 87.4951 70.8606C86.4751 69.8406 85.2351 69.3306 83.7751 69.3306H69.1051V79.8606L83.9251 79.8306ZM83.6551 96.3306C85.7351 96.3306 87.5051 95.5806 88.9651 94.0806C90.4051 92.6206 91.1251 90.8606 91.1251 88.8006C91.1251 86.7606 90.3851 85.0006 88.9051 83.5206C87.4451 82.0606 85.6951 81.3306 83.6551 81.3306H69.1051V96.3306H83.6551ZM67.6051 67.8306H83.7751C85.6351 67.8306 87.2351 68.4906 88.5751 69.8106C89.8951 71.1306 90.5551 72.7206 90.5551 74.5806C90.5551 77.2206 89.3951 79.2006 87.0751 80.5206C88.7151 81.2006 90.0551 82.2906 91.0951 83.7906C92.1351 85.3106 92.6551 86.9806 92.6551 88.8006C92.6551 91.2806 91.7751 93.4106 90.0151 95.1906C88.2551 96.9506 86.1351 97.8306 83.6551 97.8306H67.6051V67.8306ZM112.789 98.1606C108.549 98.1606 104.939 96.6706 101.959 93.6906C98.9586 90.6906 97.4586 87.0806 97.4586 82.8606C97.4586 78.6406 98.9586 75.0406 101.959 72.0606C104.959 69.0606 108.569 67.5606 112.789 67.5606C117.009 67.5606 120.609 69.0606 123.589 72.0606C126.569 75.0406 128.059 78.6406 128.059 82.8606C128.059 87.0806 126.569 90.6806 123.589 93.6606C120.609 96.6606 117.009 98.1606 112.789 98.1606ZM112.789 96.6606C116.589 96.6606 119.839 95.3106 122.539 92.6106C125.219 89.9306 126.559 86.6806 126.559 82.8606C126.559 79.0606 125.209 75.8106 122.509 73.1106C119.829 70.4106 116.589 69.0606 112.789 69.0606C108.969 69.0606 105.709 70.4106 103.009 73.1106C100.309 75.8106 98.9586 79.0606 98.9586 82.8606C98.9586 86.6606 100.309 89.9106 103.009 92.6106C105.709 95.3106 108.969 96.6606 112.789 96.6606ZM146.199 67.8306L160.449 98.1306H158.799L146.199 71.3406L133.599 98.1306H131.949L146.199 67.8306ZM164.343 67.8306H165.843V76.2006H178.413C181.393 76.2006 183.943 77.2606 186.063 79.3806C188.163 81.5006 189.213 84.0506 189.213 87.0306C189.213 90.0106 188.163 92.5606 186.063 94.6806C183.943 96.7806 181.393 97.8306 178.413 97.8306H164.343V67.8306ZM165.843 77.7006V96.3306H178.413C180.973 96.3306 183.163 95.4206 184.983 93.6006C186.803 91.7806 187.713 89.5906 187.713 87.0306C187.713 84.4506 186.813 82.2506 185.013 80.4306C183.193 78.6106 180.993 77.7006 178.413 77.7006H165.843ZM205.683 97.8306H204.093V84.2406L193.743 97.8306H191.883L203.163 82.9806L191.853 67.8306H193.743L204.093 81.6906V67.8306H205.593L205.623 81.7506L216.003 67.8606H217.893L206.583 83.0106L217.863 97.8606H216.003L205.653 84.2706L205.683 97.8306ZM221.326 67.8306H222.826V76.2006H235.396C238.376 76.2006 240.926 77.2606 243.046 79.3806C245.146 81.5006 246.196 84.0506 246.196 87.0306C246.196 90.0106 245.146 92.5606 243.046 94.6806C240.926 96.7806 238.376 97.8306 235.396 97.8306H221.326V67.8306ZM222.826 77.7006V96.3306H235.396C237.956 96.3306 240.146 95.4206 241.966 93.6006C243.786 91.7806 244.696 89.5906 244.696 87.0306C244.696 84.4506 243.796 82.2506 241.996 80.4306C240.176 78.6106 237.976 77.7006 235.396 77.7006H222.826ZM250.095 67.8306H272.595V69.3306H251.595V87.8406H265.695V89.3406H251.595V96.3306H272.595V97.8306H250.095V67.8306Z" fill="white"/>
<path d="M299.841 5.44489C299.739 5.29908 299.595 5.18945 299.428 5.13136C299.262 5.07327 299.082 5.06964 298.913 5.12097C273.773 12.7084 258.096 23.5698 252.334 37.4042C247.514 48.9726 251.699 58.5236 252.513 60.2762C251.162 66.153 250.372 69.0914 250 69.0914C250.372 69.0914 250.69 69.423 250.377 69.7302C250.518 69.9081 250.377 70.1135 250.507 70.4827H250.596C250.805 70.4815 251.007 70.4024 251.162 70.2604C251.317 70.1183 251.139 69.9414 251.162 69.7302C251.382 69.6025 251.759 66.2808 253.762 61.011C255.094 61.1007 256.411 61.1687 257.682 61.1687C276.27 61.173 288.099 51.6681 290.397 34.6118C292.791 16.8441 299.778 6.55112 299.847 6.44411C299.948 6.29728 300.001 6.12246 300 5.94358C299.999 5.76471 299.944 5.59053 299.841 5.44489ZM288.719 34.379C285.512 58.1305 264.53 59.9221 254.389 59.3466C258.153 49.7072 266.566 34.6191 285.123 19.6278C285.274 19.4778 285.365 19.2762 285.378 19.0619C285.391 18.8477 285.326 18.636 285.195 18.4679C285.064 18.2997 284.876 18.187 284.668 18.1515C284.459 18.116 284.246 18.1603 284.068 18.2757C265.786 33.0501 257.169 47.9748 253.153 57.8861C250.977 51.4172 251.242 44.357 253.895 38.0751C259.292 25.1315 273.879 14.8298 297.244 7.43755C295.067 11.2739 290.586 20.5374 288.719 34.379Z" fill="white"/>
</svg>
