<svg width="467" height="87" viewBox="0 0 467 87" fill="none" xmlns="http://www.w3.org/2000/svg">
<g clip-path="url(#clip0_21_797)">
<mask id="mask0_21_797" style="mask-type:luminance" maskUnits="userSpaceOnUse" x="0" y="0" width="467" height="87">
<path d="M467 0H0V87H467V0Z" fill="white"/>
</mask>
<g mask="url(#mask0_21_797)">
<path fill-rule="evenodd" clip-rule="evenodd" d="M0 33.6897L4.7036 38.6666H15.2946L15.5079 38.0141C16.6824 34.4236 19.0286 31.2668 22.0494 29.2126C23.3961 28.2965 25.2793 27.4567 27.0726 26.972C27.3799 26.8889 27.4972 26.7776 27.8114 26.2691C28.4539 25.23 29.6648 23.6824 30.8103 22.4368C32.6584 20.4268 34.4646 18.8833 36.5412 17.5391C37.24 17.0869 37.3911 16.9518 37.2575 16.8993C36.9102 16.7633 34.796 16.3378 33.6925 16.1817C32.1789 15.9676 29.2184 15.9665 27.6512 16.1795C27.0153 16.2659 26.4504 16.3367 26.3958 16.3367C26.3251 16.3367 26.2966 13.9846 26.2966 8.16833V0H0V33.6897ZM49.2604 29.7333C47.2863 30.1063 45.0332 31.1542 43.567 32.3809L43.0897 32.7806L43.3558 33.1378C44.7314 34.986 45.8711 37.6357 46.399 40.2132C46.5819 41.1078 46.6068 41.4985 46.6068 43.5C46.6068 45.5015 46.5819 45.8922 46.399 46.7868C45.3105 52.1025 42.207 56.3499 37.65 58.759C34.7223 60.3071 30.9837 60.8411 27.7127 60.1782C22.0548 59.0318 17.3966 54.7598 15.5079 48.9859L15.2946 48.3334H4.70104L0 53.3131V87H26.2966V78.8317C26.2966 73.233 26.3263 70.6632 26.3917 70.6632C26.4439 70.6632 27.0295 70.7336 27.6929 70.8193C29.2251 71.0171 33.1587 70.9603 34.5436 70.7197C39.2555 69.9027 43.4207 67.9539 47.0233 64.8813C48.1367 63.9314 49.9795 61.9801 50.8788 60.7987C52.5397 58.616 54.1912 55.5344 55.0811 52.9569C55.5866 51.493 56.1614 49.1105 56.3952 47.5117C56.6354 45.8687 56.6394 41.141 56.4021 39.585C55.8903 36.2314 54.7698 32.7286 53.4023 30.2082L53.0876 29.6284L51.5391 29.6117C50.5318 29.601 49.7355 29.6435 49.2604 29.7333Z" fill="#31271A"/>
<path fill-rule="evenodd" clip-rule="evenodd" d="M83.057 53.3104L78.3535 48.3334H67.7624L67.549 48.9859C66.3745 52.5762 64.0283 55.7333 61.0076 57.7875C59.6608 58.7033 57.7777 59.5431 55.9844 60.028C55.6771 60.1109 55.5598 60.2225 55.2456 60.7309C54.603 61.7701 53.3922 63.3177 52.2467 64.5633C50.3986 66.5732 48.5924 68.1167 46.5158 69.4609C45.817 69.913 45.6658 70.0481 45.7995 70.1008C46.1467 70.2365 48.2609 70.6622 49.3645 70.8183C50.878 71.0325 53.8386 71.0335 55.4058 70.8204C56.0416 70.7342 56.6066 70.6633 56.6612 70.6633C56.7318 70.6633 56.7603 73.0153 56.7603 78.8315V87.0001H83.057V53.3104ZM33.7966 57.2668C35.7707 56.8937 38.0238 55.8456 39.49 54.6189L39.9672 54.2195L39.7012 53.8623C38.3256 52.0141 37.1858 49.3641 36.658 46.7866C36.475 45.8923 36.4501 45.5016 36.4501 43.5001C36.4501 41.4983 36.475 41.1076 36.658 40.2133C37.7465 34.8973 40.85 30.6502 45.407 28.2408C48.3347 26.6927 52.0733 26.1589 55.3442 26.8217C61.0021 27.9683 65.6604 32.24 67.549 38.0142L67.7624 38.6667H78.3559L83.057 33.687V0H56.7603V8.16833C56.7603 13.767 56.7306 16.3367 56.6653 16.3367C56.613 16.3367 56.0275 16.2665 55.3641 16.1808C53.8319 15.9829 49.8983 16.0399 48.5134 16.2802C43.8014 17.0973 39.6363 19.0461 36.0337 22.1188C34.9203 23.0685 33.0774 25.0198 32.1782 26.2014C30.5173 28.3838 28.8658 31.4654 27.9759 34.0429C27.4703 35.5071 26.8956 37.8893 26.6618 39.4884C26.4216 41.1314 26.4175 45.8591 26.6549 47.4151C27.1667 50.7687 28.2872 54.2715 29.6547 56.7916L29.9694 57.3717L31.5179 57.3884C32.5252 57.3991 33.3215 57.3566 33.7966 57.2668Z" fill="#F8863D"/>
<path d="M112.945 41.3143C113.269 41.3143 113.53 41.5886 113.53 41.9269V44.4243C113.53 44.7626 113.269 45.0372 112.945 45.0372H103.436C103.113 45.0372 102.851 44.7626 102.851 44.4243V41.9269C102.851 41.5886 103.113 41.3143 103.436 41.3143H112.945ZM103.259 30.2556C103.582 30.2556 103.844 30.5299 103.844 30.8682V56.2131C103.844 56.5514 103.582 56.8257 103.259 56.8257H100.195C99.8724 56.8257 99.6106 56.5514 99.6106 56.2131V30.8682C99.6106 30.5299 99.8724 30.2556 100.195 30.2556H103.259ZM116.255 30.2556C116.578 30.2556 116.84 30.5299 116.84 30.8682V56.2131C116.84 56.5514 116.578 56.8257 116.255 56.8257H113.209C112.886 56.8257 112.624 56.5514 112.624 56.2131V30.8682C112.624 30.5299 112.886 30.2556 113.209 30.2556H116.255Z" fill="#3B3B3C"/>
<path d="M128.597 46.1485C128.597 46.7948 129.429 47.0006 129.705 46.4228L137.268 30.5941C137.367 30.3866 137.569 30.2556 137.791 30.2556H140.939C141.262 30.2556 141.524 30.5299 141.524 30.8682V56.2131C141.524 56.5514 141.262 56.8257 140.939 56.8257H137.962C137.639 56.8257 137.377 56.5514 137.377 56.2131V41.0423C137.377 40.396 136.546 40.1902 136.269 40.768L128.758 56.4871C128.659 56.6947 128.457 56.8257 128.235 56.8257H125.053C124.73 56.8257 124.468 56.5514 124.468 56.2131V30.8682C124.468 30.5299 124.73 30.2556 125.053 30.2556H128.012C128.335 30.2556 128.597 30.5299 128.597 30.8682V46.1485Z" fill="#3B3B3C"/>
<path d="M153.331 46.1485C153.331 46.7948 154.164 47.0006 154.44 46.4228L162.003 30.5941C162.102 30.3866 162.305 30.2556 162.526 30.2556H165.675C165.998 30.2556 166.259 30.5299 166.259 30.8682V56.2131C166.259 56.5514 165.998 56.8257 165.675 56.8257H162.697C162.374 56.8257 162.112 56.5514 162.112 56.2131V41.0423C162.112 40.396 161.28 40.1902 161.004 40.768L153.494 56.4871C153.394 56.6947 153.193 56.8257 152.97 56.8257H149.788C149.465 56.8257 149.204 56.5514 149.204 56.2131V30.8682C149.204 30.5299 149.465 30.2556 149.788 30.2556H152.747C153.07 30.2556 153.331 30.5299 153.331 30.8682V46.1485Z" fill="#3B3B3C"/>
<path d="M187.291 41.3143C187.615 41.3143 187.876 41.5886 187.876 41.9269V44.4243C187.876 44.7626 187.615 45.0372 187.291 45.0372H177.782C177.459 45.0372 177.197 44.7626 177.197 44.4243V41.9269C177.197 41.5886 177.459 41.3143 177.782 41.3143H187.291ZM177.605 30.2556C177.928 30.2556 178.19 30.5299 178.19 30.8682V56.2131C178.19 56.5514 177.928 56.8257 177.605 56.8257H174.542C174.219 56.8257 173.957 56.5514 173.957 56.2131V30.8682C173.957 30.5299 174.219 30.2556 174.542 30.2556H177.605ZM190.602 30.2556C190.925 30.2556 191.187 30.5299 191.187 30.8682V56.2131C191.187 56.5514 190.925 56.8257 190.602 56.8257H187.556C187.233 56.8257 186.971 56.5514 186.971 56.2131V30.8682C186.971 30.5299 187.233 30.2556 187.556 30.2556H190.602Z" fill="#3B3B3C"/>
<path d="M212.376 53.1213C212.7 53.1213 212.961 53.3956 212.961 53.7338V56.2131C212.961 56.5514 212.7 56.8257 212.376 56.8257H202.537C202.214 56.8257 201.952 56.5514 201.952 56.2131V53.7338C201.952 53.3956 202.214 53.1213 202.537 53.1213H212.376ZM202.481 30.2556C202.804 30.2556 203.066 30.5299 203.066 30.8682V56.2131C203.066 56.5514 202.804 56.8257 202.481 56.8257H199.418C199.095 56.8257 198.833 56.5514 198.833 56.2131V30.8682C198.833 30.5299 199.095 30.2556 199.418 30.2556H202.481ZM210.896 41.3143C211.22 41.3143 211.482 41.5886 211.482 41.9269V44.3514C211.482 44.6899 211.22 44.9642 210.896 44.9642H202.537C202.214 44.9642 201.952 44.6899 201.952 44.3514V41.9269C201.952 41.5886 202.214 41.3143 202.537 41.3143H210.896ZM212.273 30.2556C212.596 30.2556 212.857 30.5299 212.857 30.8682V33.3656C212.857 33.7041 212.596 33.9784 212.273 33.9784H202.537C202.214 33.9784 201.952 33.7041 201.952 33.3656V30.8682C201.952 30.5299 202.214 30.2556 202.537 30.2556H212.273Z" fill="#3B3B3C"/>
<path d="M227.191 32.7558H231.878C233.097 32.7558 234.237 33.0173 235.292 33.5406C236.349 34.0513 237.274 34.7875 238.063 35.7486C238.865 36.7094 239.486 37.8594 239.928 39.1974C240.369 40.5236 240.589 42.0077 240.589 43.65C240.589 45.2562 240.369 46.7221 239.928 48.0481C239.486 49.362 238.865 50.4994 238.063 51.4605C237.274 52.4096 236.349 53.1396 235.292 53.6504C234.237 54.1614 233.097 54.4167 231.878 54.4167H227.191C225.972 54.4167 224.828 54.1675 223.759 53.6688C222.704 53.1578 221.774 52.4278 220.972 51.479C220.183 50.5176 219.567 49.3802 219.126 48.0663C218.684 46.7523 218.463 45.2925 218.463 43.6868C218.463 42.0443 218.684 40.5541 219.126 39.2158C219.567 37.8775 220.189 36.7279 220.99 35.7668C221.791 34.8057 222.72 34.0636 223.777 33.5406C224.834 33.0173 225.972 32.7558 227.191 32.7558ZM227.191 36.4784C226.204 36.4784 225.356 36.7644 224.649 37.3361C223.939 37.908 223.394 38.7353 223.011 39.8179C222.639 40.8885 222.454 42.1781 222.454 43.6868C222.454 44.7938 222.557 45.7792 222.766 46.643C222.987 47.5066 223.302 48.2428 223.708 48.851C224.125 49.447 224.625 49.9035 225.206 50.2198C225.798 50.536 226.46 50.6942 227.191 50.6942H231.913C232.888 50.6942 233.725 50.4142 234.422 49.8546C235.118 49.283 235.654 48.4739 236.025 47.4278C236.408 46.3692 236.6 45.11 236.6 43.65C236.6 42.5187 236.49 41.509 236.269 40.6208C236.06 39.7327 235.746 38.9845 235.327 38.3762C234.921 37.768 234.428 37.2998 233.848 36.9712C233.277 36.6426 232.634 36.4784 231.913 36.4784H227.191ZM230.998 29.1606C231.321 29.1606 231.582 29.4352 231.582 29.7735V57.308C231.582 57.6465 231.321 57.9205 230.998 57.9205H228.108C227.785 57.9205 227.523 57.6465 227.523 57.308V29.7735C227.523 29.4352 227.785 29.1606 228.108 29.1606H230.998Z" fill="#3B3B3C"/>
<path d="M255.854 30.2556C256.177 30.2556 256.441 30.5299 256.441 30.8682V56.2131C256.441 56.5514 256.177 56.8257 255.854 56.8257H252.81C252.487 56.8257 252.223 56.5514 252.223 56.2131V30.8682C252.223 30.5299 252.487 30.2556 252.81 30.2556H255.854ZM262.318 30.2556C262.641 30.2556 262.902 30.5299 262.902 30.8682V33.3656C262.902 33.7041 262.641 33.9784 262.318 33.9784H246.416C246.092 33.9784 245.831 33.7041 245.831 33.3656V30.8682C245.831 30.5299 246.092 30.2556 246.416 30.2556H262.318Z" fill="#3B3B3C"/>
<path d="M282.645 53.1213C282.968 53.1213 283.232 53.3956 283.232 53.7338V56.2131C283.232 56.5514 282.968 56.8257 282.645 56.8257H272.805C272.484 56.8257 272.22 56.5514 272.22 56.2131V53.7338C272.22 53.3956 272.484 53.1213 272.805 53.1213H282.645ZM272.752 30.2556C273.075 30.2556 273.336 30.5299 273.336 30.8682V56.2131C273.336 56.5514 273.075 56.8257 272.752 56.8257H269.686C269.365 56.8257 269.102 56.5514 269.102 56.2131V30.8682C269.102 30.5299 269.365 30.2556 269.686 30.2556H272.752ZM281.165 41.3143C281.488 41.3143 281.749 41.5886 281.749 41.9269V44.3514C281.749 44.6899 281.488 44.9642 281.165 44.9642H272.805C272.484 44.9642 272.22 44.6899 272.22 44.3514V41.9269C272.22 41.5886 272.484 41.3143 272.805 41.3143H281.165ZM282.542 30.2556C282.865 30.2556 283.126 30.5299 283.126 30.8682V33.3656C283.126 33.7041 282.865 33.9784 282.542 33.9784H272.805C272.484 33.9784 272.22 33.7041 272.22 33.3656V30.8682C272.22 30.5299 272.484 30.2556 272.805 30.2556H282.542Z" fill="#3B3B3C"/>
<path d="M306.18 30.2556C306.503 30.2556 306.766 30.5299 306.766 30.8682V56.2131C306.766 56.5514 306.503 56.8257 306.18 56.8257H303.133C302.812 56.8257 302.549 56.5514 302.549 56.2131V34.591C302.549 34.2528 302.288 33.9784 301.965 33.9784H294.495C294.172 33.9784 293.908 34.2528 293.908 34.591V56.2131C293.908 56.5514 293.645 56.8257 293.324 56.8257H290.258C289.935 56.8257 289.674 56.5514 289.674 56.2131V30.8682C289.674 30.5299 289.935 30.2556 290.258 30.2556H306.18Z" fill="#3B3B3C"/>
<path d="M322.879 46.9714H318.113C317.79 46.9714 317.529 46.6971 317.529 46.3588V43.8798C317.529 43.5413 317.79 43.267 318.113 43.267H322.879C323.76 43.267 324.469 43.0723 325.003 42.6831C325.537 42.2936 325.928 41.7586 326.17 41.0771C326.426 40.396 326.555 39.6232 326.555 38.7596C326.555 37.9323 326.426 37.1537 326.17 36.4237C325.928 35.6936 325.537 35.1038 325.003 34.6535C324.469 34.2034 323.76 33.9784 322.879 33.9784H319.299C318.975 33.9784 318.714 34.2528 318.714 34.591V56.2131C318.714 56.5514 318.451 56.8257 318.128 56.8257H315.084C314.76 56.8257 314.497 56.5514 314.497 56.2131V30.8682C314.497 30.5299 314.76 30.2556 315.084 30.2556H322.879C324.56 30.2556 325.99 30.6205 327.164 31.3505C328.349 32.0806 329.254 33.0841 329.882 34.3615C330.509 35.6268 330.823 37.0808 330.823 38.723C330.823 40.4262 330.509 41.8983 329.882 43.1393C329.254 44.368 328.349 45.3169 327.164 45.986C325.99 46.6431 324.56 46.9714 322.879 46.9714Z" fill="#3B3B3C"/>
<path d="M354.635 41.369V45.8948C354.635 47.7684 354.424 49.4106 354.007 50.8218C353.6 52.233 353.009 53.4131 352.23 54.3619C351.464 55.2987 350.532 56.0044 349.443 56.4788C348.363 56.9533 347.153 57.1907 345.819 57.1907C344.495 57.1907 343.286 56.9533 342.194 56.4788C341.116 56.0044 340.179 55.2987 339.389 54.3619C338.611 53.4131 338.007 52.233 337.579 50.8218C337.16 49.4106 336.951 47.7684 336.951 45.8948V41.369C336.951 39.4711 337.16 37.8104 337.579 36.387C337.995 34.9515 338.594 33.7534 339.372 32.7921C340.163 31.831 341.097 31.1071 342.179 30.6207C343.269 30.134 344.471 29.8906 345.783 29.8906C347.12 29.8906 348.327 30.134 349.407 30.6207C350.499 31.1071 351.435 31.831 352.211 32.7921C352.99 33.7534 353.588 34.9515 354.007 36.387C354.424 37.8104 354.635 39.4711 354.635 41.369ZM350.437 45.8948V41.3327C350.437 39.9821 350.331 38.8263 350.121 37.8652C349.924 36.8921 349.63 36.1011 349.234 35.4929C348.839 34.8724 348.351 34.4162 347.769 34.1242C347.201 33.8202 346.538 33.6682 345.783 33.6682C345.051 33.6682 344.397 33.8202 343.815 34.1242C343.245 34.4162 342.759 34.8724 342.352 35.4929C341.956 36.1011 341.655 36.8921 341.446 37.8652C341.248 38.8263 341.149 39.9821 341.149 41.3327V45.8948C341.149 47.2208 341.255 48.3643 341.463 49.3254C341.671 50.2745 341.976 51.0529 342.371 51.6611C342.776 52.2573 343.269 52.7015 343.851 52.9932C344.43 53.2854 345.087 53.4313 345.819 53.4313C346.562 53.4313 347.225 53.2854 347.805 52.9932C348.387 52.7015 348.868 52.2573 349.251 51.6611C349.646 51.0529 349.941 50.2745 350.14 49.3254C350.336 48.3643 350.437 47.2208 350.437 45.8948Z" fill="#3B3B3C"/>
<path d="M394.622 30.2556C394.85 30.2556 395.058 30.3948 395.154 30.6121L398.622 38.503C398.832 38.9807 399.481 38.9774 399.687 38.4976L403.064 30.6174C403.16 30.3974 403.366 30.2556 403.598 30.2556H407.025C407.461 30.2556 407.744 30.7369 407.547 31.1445L401.766 43.1365C401.685 43.3105 401.685 43.5154 401.766 43.6894L407.686 55.9365C407.883 56.3438 407.6 56.8257 407.164 56.8257H403.579C403.349 56.8257 403.141 56.6849 403.047 56.4656L399.551 48.3839C399.345 47.9043 398.696 47.9038 398.488 48.3831L394.979 56.4667C394.883 56.6852 394.675 56.8257 394.445 56.8257H390.949C390.513 56.8257 390.23 56.3431 390.429 55.9355L396.394 43.6367C396.481 43.4617 396.481 43.2547 396.394 43.0802L390.57 31.1471C390.371 30.7395 390.654 30.2556 391.092 30.2556H394.622Z" fill="#3B3B3C"/>
<path d="M418.286 46.1485C418.286 46.7948 419.119 47.0006 419.395 46.4228L426.958 30.5941C427.056 30.3866 427.26 30.2556 427.48 30.2556H430.629C430.952 30.2556 431.214 30.5299 431.214 30.8682V56.2131C431.214 56.5514 430.952 56.8257 430.629 56.8257H427.652C427.329 56.8257 427.066 56.5514 427.066 56.2131V41.0423C427.066 40.396 426.235 40.1902 425.959 40.768L418.449 56.4871C418.351 56.6947 418.147 56.8257 417.927 56.8257H414.742C414.418 56.8257 414.157 56.5514 414.157 56.2131V30.8682C414.157 30.5299 414.418 30.2556 414.742 30.2556H417.702C418.025 30.2556 418.286 30.5299 418.286 30.8682V46.1485Z" fill="#3B3B3C"/>
<path d="M440.599 31.0545C440.479 30.6591 440.762 30.2556 441.157 30.2556H443.775C444.031 30.2556 444.258 30.4306 444.335 30.6873L449.484 48.1239C449.654 48.6996 450.432 48.6994 450.602 48.1234L455.735 30.6878C455.811 30.4309 456.036 30.2556 456.295 30.2556H458.642C459.035 30.2556 459.317 30.6545 459.2 31.0486L451.754 56.3932C451.68 56.6504 451.455 56.8257 451.196 56.8257H448.866C448.612 56.8257 448.387 56.6532 448.311 56.3991L440.599 31.0545ZM438.911 30.8682C438.911 30.5299 439.172 30.2556 439.495 30.2556H441.902C442.216 30.2556 442.474 30.5169 442.484 30.8464L443.039 47.1723V56.2131C443.039 56.5514 442.778 56.8257 442.455 56.8257H439.495C439.172 56.8257 438.911 56.5514 438.911 56.2131V30.8682ZM457.567 30.8472C457.579 30.5171 457.837 30.2556 458.151 30.2556H460.572C460.896 30.2556 461.157 30.5299 461.157 30.8682V56.2131C461.157 56.5514 460.896 56.8257 460.572 56.8257H457.615C457.291 56.8257 457.03 56.5514 457.03 56.2131V47.1723L457.567 30.8472Z" fill="#3B3B3C"/>
<path d="M363.314 31.0545C363.194 30.6591 363.477 30.2556 363.872 30.2556H366.49C366.746 30.2556 366.973 30.4306 367.05 30.6873L372.199 48.1239C372.369 48.6996 373.147 48.6994 373.318 48.1234L378.45 30.6878C378.526 30.4309 378.751 30.2556 379.01 30.2556H381.357C381.75 30.2556 382.032 30.6545 381.915 31.0486L374.469 56.3932C374.395 56.6504 374.17 56.8257 373.911 56.8257H371.581C371.327 56.8257 371.102 56.6532 371.026 56.3991L363.314 31.0545ZM361.626 30.8682C361.626 30.5299 361.887 30.2556 362.21 30.2556H364.617C364.931 30.2556 365.189 30.5169 365.199 30.8464L365.754 47.1723V56.2131C365.754 56.5514 365.493 56.8257 365.17 56.8257H362.21C361.887 56.8257 361.626 56.5514 361.626 56.2131V30.8682ZM380.282 30.8472C380.294 30.5171 380.552 30.2556 380.866 30.2556H383.287C383.611 30.2556 383.872 30.5299 383.872 30.8682V56.2131C383.872 56.5514 383.611 56.8257 383.287 56.8257H380.33C380.006 56.8257 379.745 56.5514 379.745 56.2131V47.1723L380.282 30.8472Z" fill="#3B3B3C"/>
</g>
</g>
<defs>
<clipPath id="clip0_21_797">
<rect width="467" height="87" fill="white"/>
</clipPath>
</defs>
</svg>
