<?xml version="1.0" encoding="utf-8"?>
<!-- Generator: Adobe Illustrator 16.0.0, SVG Export Plug-In . SVG Version: 6.00 Build 0)  -->
<!DOCTYPE svg PUBLIC "-//W3C//DTD SVG 1.1//EN" "http://www.w3.org/Graphics/SVG/1.1/DTD/svg11.dtd">
<svg version="1.1" id="Layer_1" xmlns="http://www.w3.org/2000/svg" xmlns:xlink="http://www.w3.org/1999/xlink" x="0px" y="0px"
	 width="875.348px" height="144.432px" viewBox="0 0 875.348 144.432" enable-background="new 0 0 875.348 144.432"
	 xml:space="preserve">
<g>
	<path fill="#D0EC43" d="M108.324,91.129c0,21.305-22.342,31.434-31.877,34.789c-1.292,0.453-2.762,0.68-4.231,0.68
		s-2.939-0.227-4.231-0.68c-9.535-3.355-31.877-13.484-31.877-34.789c0-28.4,22.345-56.805,31.877-67.631
		c1.292-1.467,2.761-2.203,4.231-2.203s2.939,0.736,4.231,2.203C85.979,34.324,108.324,62.727,108.324,91.129z"/>
	<path fill="#53CF55" d="M108.324,91.129c0,21.305-22.342,31.434-31.877,34.789c-1.292,0.453-2.762,0.68-4.231,0.68V21.295
		c1.47,0,2.939,0.736,4.231,2.203C85.979,34.324,108.324,62.727,108.324,91.129z"/>
	<path fill="#53CF55" d="M94.676,90.543l-18.229,18.229v17.146c-2.586,0.908-4.231,1.32-4.231,1.32s-1.645-0.412-4.231-1.32V91.775
		L52.227,76.02l5.986-5.984l9.772,9.771V23.498c2.586-2.936,4.231-4.58,4.231-4.58s1.646,1.645,4.231,4.58v39.313l5.603-5.602
		l5.983,5.982L76.447,74.779v22.023l12.246-12.242L94.676,90.543z"/>
	<path fill="#3DA57C" d="M94.676,90.543l-18.229,18.229v17.146c-2.586,0.908-4.231,1.32-4.231,1.32V18.918
		c0,0,1.646,1.645,4.231,4.58v39.313l5.603-5.602l5.983,5.982L76.447,74.779v22.023l12.246-12.242L94.676,90.543z"/>
	<path fill="#32A6CE" d="M123.281,21.15C109.642,7.512,91.506,0,72.216,0C52.927,0,34.791,7.512,21.151,21.15
		C7.512,34.791,0,52.926,0,72.215c0,19.291,7.512,37.426,21.151,51.064c13.639,13.641,31.775,21.152,51.064,21.152
		c19.29,0,37.426-7.512,51.065-21.152c13.639-13.639,21.15-31.773,21.15-51.064C144.432,52.926,136.92,34.791,123.281,21.15
		L123.281,21.15z M117.297,117.297c-12.042,12.039-28.051,18.672-45.081,18.672c-17.03,0-33.039-6.633-45.081-18.672
		C15.095,105.254,8.463,89.246,8.463,72.215c0-17.029,6.632-33.037,18.672-45.08C39.177,15.094,55.186,8.463,72.216,8.463
		c17.03,0,33.039,6.631,45.081,18.672c12.041,12.043,18.672,28.051,18.672,45.08C135.969,89.246,129.338,105.254,117.297,117.297z"
		/>
	<path fill="#0079A3" d="M144.432,72.215c0,19.291-7.512,37.426-21.15,51.064c-13.64,13.641-31.775,21.152-51.065,21.152v-8.463
		c17.03,0,33.039-6.633,45.081-18.672c12.041-12.043,18.672-28.051,18.672-45.082c0-17.029-6.631-33.037-18.672-45.08
		C105.255,15.094,89.246,8.463,72.216,8.463V0c19.29,0,37.426,7.512,51.065,21.15C136.92,34.791,144.432,52.926,144.432,72.215z"/>
	<circle fill="#53CF55" stroke="#FFFFFF" stroke-width="3" stroke-miterlimit="10" cx="120.289" cy="24.125" r="9.027"/>
	<circle fill="#D0EC43" stroke="#FFFFFF" stroke-width="3" stroke-miterlimit="10" cx="24.144" cy="120.288" r="9.026"/>
</g>
<g>
	<path d="M184.306,73.946V21.681h6.176v25.82h0.076l23.303-25.82h6.176l-23.644,26.016l25.046,26.25h-6.176L190.558,48.36h-0.076
		v25.586H184.306z"/>
	<path d="M247.682,69.845h-0.152c-0.48,0.625-1.086,1.244-1.819,1.855c-0.733,0.612-1.579,1.159-2.539,1.641
		c-0.96,0.482-2.008,0.865-3.145,1.152c-1.137,0.286-2.349,0.43-3.637,0.43c-1.743,0-3.341-0.268-4.793-0.801
		s-2.703-1.314-3.751-2.344c-1.048-1.028-1.863-2.285-2.444-3.77c-0.582-1.484-0.872-3.164-0.872-5.039
		c0-1.849,0.322-3.502,0.966-4.961c0.644-1.458,1.547-2.695,2.709-3.711c1.162-1.016,2.558-1.797,4.187-2.344s3.429-0.82,5.399-0.82
		c1.869,0.026,3.6,0.195,5.191,0.508s3.006,0.703,4.244,1.172h0.152v-2.578c0-1.016-0.063-1.914-0.189-2.695
		c-0.127-0.781-0.341-1.471-0.644-2.07c-0.657-1.25-1.705-2.285-3.145-3.105s-3.385-1.23-5.835-1.23
		c-1.818,0-3.53,0.176-5.134,0.527c-1.604,0.352-3.202,0.84-4.793,1.465v-5.078c0.606-0.313,1.32-0.605,2.141-0.879
		c0.82-0.273,1.686-0.508,2.595-0.703c0.91-0.195,1.869-0.345,2.88-0.449c1.01-0.104,2.021-0.156,3.031-0.156
		c3.637,0,6.612,0.664,8.923,1.992c2.311,1.328,3.972,3.086,4.982,5.273c0.379,0.834,0.65,1.752,0.814,2.754
		c0.164,1.003,0.247,2.104,0.247,3.301v24.766h-4.926L247.682,69.845z M247.379,57.657c-1.082-0.313-2.364-0.611-3.848-0.898
		c-1.484-0.286-3.118-0.442-4.903-0.469c-2.49,0-4.438,0.547-5.847,1.641s-2.112,2.773-2.112,5.039c0,1.146,0.176,2.148,0.528,3.008
		c0.352,0.859,0.836,1.569,1.452,2.129c0.616,0.561,1.345,0.977,2.188,1.25c0.842,0.273,1.741,0.41,2.697,0.41
		c1.257,0,2.427-0.188,3.508-0.566c1.081-0.377,2.043-0.826,2.886-1.348c0.842-0.521,1.56-1.041,2.15-1.563
		c0.591-0.521,1.024-0.924,1.301-1.211V57.657z"/>
	<path d="M292.643,54.962c0,2.578-0.248,4.863-0.742,6.855c-0.495,1.992-1.148,3.73-1.96,5.215s-1.764,2.729-2.854,3.73
		c-1.091,1.003-2.22,1.811-3.387,2.422c-1.167,0.612-2.354,1.055-3.559,1.328c-1.206,0.273-2.34,0.41-3.405,0.41
		c-2.208,0-4.124-0.371-5.747-1.113c-1.624-0.742-3.083-1.842-4.376-3.301h-0.111V92.11h-5.762V36.837h4.433l1.25,4.219h0.114
		c0.328-0.521,0.751-1.028,1.269-1.523c0.518-0.494,1.213-1.021,2.084-1.582c0.872-0.56,1.919-1.048,3.145-1.465
		c1.225-0.416,2.558-0.625,3.998-0.625c2.021,0,3.972,0.352,5.854,1.055s3.543,1.823,4.983,3.359
		c1.439,1.537,2.595,3.51,3.467,5.918C292.208,48.602,292.643,51.524,292.643,54.962z M286.505,55.04
		c0-2.161-0.223-4.102-0.667-5.82c-0.445-1.719-1.111-3.184-2.001-4.395c-0.889-1.211-1.981-2.142-3.277-2.793
		c-1.296-0.65-2.795-0.977-4.497-0.977c-1.219,0-2.331,0.17-3.335,0.508c-1.003,0.339-1.912,0.769-2.725,1.289
		c-0.813,0.521-1.511,1.081-2.096,1.68c-0.584,0.6-1.054,1.133-1.41,1.602v19.414c1.245,1.303,2.661,2.331,4.249,3.086
		c1.588,0.756,3.296,1.133,5.125,1.133c1.118,0,2.299-0.215,3.544-0.645c1.245-0.43,2.394-1.197,3.449-2.305
		c1.054-1.106,1.924-2.61,2.61-4.512C286.162,60.405,286.505,57.983,286.505,55.04z"/>
	<path d="M302.82,41.681c1.843-1.275,3.763-2.259,5.759-2.949c1.995-0.689,3.915-1.035,5.759-1.035c2.298,0,4.376,0.378,6.233,1.133
		c1.857,0.756,3.441,1.855,4.755,3.301c1.313,1.445,2.33,3.236,3.05,5.371c0.72,2.136,1.08,4.584,1.08,7.344
		c0,3.073-0.373,5.854-1.118,8.34c-0.745,2.487-1.832,4.597-3.258,6.328c-1.428,1.732-3.183,3.066-5.267,4.004
		s-4.465,1.406-7.142,1.406c-2.577,0-4.882-0.508-6.915-1.523c-2.034-1.016-3.746-2.604-5.134-4.766
		c-1.39-2.161-2.451-4.935-3.183-8.32c-0.733-3.385-1.099-7.447-1.099-12.188c0-4.609,0.385-8.646,1.156-12.109
		c0.77-3.463,1.989-6.406,3.656-8.828c1.667-2.422,3.814-4.336,6.441-5.742c2.627-1.406,5.797-2.344,9.511-2.813l8.942-1.133v6.406
		l-8.752,1.094c-2.4,0.313-4.484,0.736-6.252,1.27c-1.769,0.534-3.253,1.387-4.452,2.559c-1.2,1.172-2.122,2.793-2.766,4.863
		s-1.03,4.733-1.156,7.988H302.82z M313.108,42.892c-1.797,0-3.645,0.346-5.542,1.035c-1.898,0.69-3.593,1.596-5.086,2.715
		c-0.051,1.094-0.089,2.279-0.114,3.555c0,3.359,0.253,6.264,0.759,8.711c0.505,2.448,1.227,4.473,2.163,6.074
		s2.069,2.8,3.398,3.594c1.329,0.795,2.803,1.191,4.422,1.191c1.569,0,2.979-0.318,4.232-0.957c1.253-0.638,2.322-1.582,3.208-2.832
		c0.886-1.25,1.57-2.793,2.05-4.629c0.481-1.836,0.721-3.938,0.721-6.309c0-2.188-0.291-4.049-0.873-5.586
		c-0.582-1.536-1.348-2.793-2.297-3.77c-0.949-0.977-2.037-1.686-3.264-2.129C315.657,43.113,314.398,42.892,313.108,42.892z"/>
	<path d="M366.954,55.431c0,2.917-0.404,5.573-1.212,7.969c-0.809,2.396-1.951,4.447-3.429,6.152
		c-1.478,1.706-3.265,3.027-5.361,3.965c-2.097,0.938-4.446,1.406-7.048,1.406c-2.678,0-5.071-0.469-7.18-1.406
		c-2.109-0.938-3.903-2.259-5.38-3.965c-1.478-1.705-2.608-3.756-3.391-6.152c-0.784-2.396-1.175-5.052-1.175-7.969
		c0-2.942,0.404-5.611,1.212-8.008c0.808-2.396,1.952-4.453,3.429-6.172s3.271-3.047,5.38-3.984
		c2.109-0.938,4.465-1.406,7.067-1.406c2.652,0,5.039,0.469,7.161,1.406s3.915,2.266,5.38,3.984
		c1.465,1.719,2.589,3.776,3.373,6.172C366.562,49.819,366.954,52.488,366.954,55.431z M360.815,55.431
		c0-2.291-0.272-4.329-0.814-6.113c-0.543-1.783-1.301-3.294-2.273-4.531c-0.973-1.236-2.128-2.174-3.467-2.813
		c-1.339-0.638-2.804-0.957-4.395-0.957c-1.592,0-3.057,0.319-4.396,0.957c-1.339,0.639-2.495,1.576-3.467,2.813
		c-0.973,1.237-1.731,2.748-2.273,4.531c-0.543,1.784-0.815,3.822-0.815,6.113c0,2.266,0.271,4.291,0.815,6.074
		c0.542,1.784,1.307,3.288,2.292,4.512c0.985,1.225,2.147,2.155,3.486,2.793c1.338,0.639,2.804,0.957,4.395,0.957
		s3.05-0.318,4.376-0.957c1.326-0.638,2.475-1.568,3.448-2.793c0.972-1.224,1.73-2.728,2.273-4.512
		C360.543,59.722,360.815,57.696,360.815,55.431z"/>
	<path d="M396.379,73.946V57.345H378.23v16.602h-5.873V36.837h5.873v15.313h18.149V36.837h5.873v37.109H396.379z"/>
	<path d="M441.833,55.431c0,2.917-0.404,5.573-1.212,7.969c-0.809,2.396-1.951,4.447-3.429,6.152
		c-1.478,1.706-3.265,3.027-5.361,3.965c-2.097,0.938-4.446,1.406-7.048,1.406c-2.678,0-5.071-0.469-7.18-1.406
		c-2.109-0.938-3.903-2.259-5.38-3.965c-1.478-1.705-2.608-3.756-3.391-6.152c-0.784-2.396-1.175-5.052-1.175-7.969
		c0-2.942,0.404-5.611,1.212-8.008c0.808-2.396,1.952-4.453,3.429-6.172s3.271-3.047,5.38-3.984
		c2.109-0.938,4.465-1.406,7.067-1.406c2.652,0,5.039,0.469,7.161,1.406s3.915,2.266,5.38,3.984
		c1.464,1.719,2.589,3.776,3.373,6.172C441.442,49.819,441.833,52.488,441.833,55.431z M435.695,55.431
		c0-2.291-0.272-4.329-0.814-6.113c-0.543-1.783-1.301-3.294-2.273-4.531c-0.973-1.236-2.128-2.174-3.467-2.813
		c-1.339-0.638-2.804-0.957-4.395-0.957c-1.592,0-3.057,0.319-4.396,0.957c-1.339,0.639-2.495,1.576-3.467,2.813
		c-0.973,1.237-1.731,2.748-2.273,4.531c-0.543,1.784-0.815,3.822-0.815,6.113c0,2.266,0.271,4.291,0.815,6.074
		c0.542,1.784,1.307,3.288,2.292,4.512c0.985,1.225,2.147,2.155,3.486,2.793c1.338,0.639,2.804,0.957,4.395,0.957
		s3.05-0.318,4.376-0.957c1.326-0.638,2.475-1.568,3.448-2.793c0.972-1.224,1.73-2.728,2.273-4.512
		C435.423,59.722,435.695,57.696,435.695,55.431z"/>
	<path d="M468.947,54.649c0.858,0.078,1.711,0.307,2.558,0.684c0.847,0.378,1.604,0.905,2.273,1.582
		c0.669,0.678,1.213,1.523,1.63,2.539s0.625,2.201,0.625,3.555c0,2.266-0.625,4.277-1.876,6.035
		c-1.25,1.758-3.113,3.066-5.589,3.926c-0.935,0.313-2.026,0.554-3.277,0.723c-1.25,0.17-2.709,0.254-4.376,0.254h-13.679V36.837
		h14.437c1.591,0,2.955,0.085,4.092,0.254c1.137,0.17,2.135,0.41,2.993,0.723c2.047,0.756,3.594,1.895,4.642,3.418
		s1.573,3.275,1.573,5.254c0,1.172-0.171,2.207-0.512,3.105s-0.79,1.667-1.346,2.305c-0.556,0.639-1.199,1.172-1.932,1.602
		c-0.733,0.43-1.479,0.762-2.236,0.996V54.649z M462.154,52.188c1.476,0,2.602-0.117,3.377-0.352
		c1.126-0.364,1.958-0.95,2.496-1.758c0.537-0.807,0.807-1.797,0.807-2.969c0-2.057-0.813-3.502-2.439-4.336
		c-1.001-0.547-2.577-0.82-4.729-0.82h-8.557v10.234H462.154z M460.919,68.829c1.352,0,2.497-0.064,3.436-0.195
		c0.939-0.13,1.733-0.325,2.385-0.586c1.151-0.469,1.965-1.126,2.441-1.973c0.476-0.846,0.713-1.842,0.713-2.988
		c0-1.328-0.325-2.435-0.976-3.32c-0.651-0.885-1.553-1.536-2.704-1.953c-0.951-0.338-2.266-0.508-3.943-0.508h-9.162v11.523
		H460.919z"/>
	<path d="M487.309,36.837v14.297c1.111-0.156,2.261-0.279,3.448-0.371c1.187-0.091,2.26-0.137,3.221-0.137
		c2.778,0,5.14,0.3,7.084,0.898c1.945,0.6,3.531,1.42,4.756,2.461c1.225,1.042,2.115,2.26,2.672,3.652
		c0.555,1.394,0.834,2.897,0.834,4.512c0,2.058-0.424,3.854-1.27,5.391c-0.848,1.537-2.021,2.8-3.523,3.789
		c-1.504,0.99-3.297,1.732-5.381,2.227c-2.084,0.494-4.376,0.742-6.877,0.742c-2.173,0-4.155-0.124-5.949-0.371
		s-3.423-0.605-4.888-1.074V36.837H487.309z M492.803,69.142c3.208,0,5.734-0.579,7.578-1.738c1.843-1.158,2.779-2.871,2.804-5.137
		c0-0.911-0.184-1.771-0.549-2.578c-0.367-0.807-0.916-1.49-1.649-2.051c-0.733-0.56-1.692-1.009-2.88-1.348
		c-1.188-0.338-2.64-0.508-4.357-0.508c-0.909,0-1.87,0.039-2.88,0.117c-1.011,0.078-2.197,0.222-3.562,0.43v12.305
		c0.707,0.183,1.56,0.313,2.558,0.391S491.843,69.142,492.803,69.142z M514.59,73.946V36.837h5.873v37.109H514.59z"/>
	<path d="M545.039,69.649c1.945,0,3.719-0.162,5.324-0.488c1.604-0.325,3.201-0.787,4.793-1.387v5.039
		c-1.289,0.651-2.879,1.165-4.773,1.543c-1.895,0.377-3.93,0.566-6.102,0.566c-2.576,0-4.996-0.339-7.256-1.016
		c-2.262-0.677-4.219-1.771-5.871-3.281c-1.652-1.51-2.947-3.482-3.885-5.918c-0.936-2.435-1.402-5.371-1.402-8.809
		c0-3.385,0.453-6.321,1.359-8.809c0.908-2.486,2.117-4.563,3.629-6.23c1.512-1.666,3.25-2.916,5.217-3.75
		c1.965-0.833,4.02-1.25,6.16-1.25c2.016,0,3.9,0.346,5.65,1.035c1.752,0.69,3.27,1.777,4.555,3.262s2.299,3.398,3.043,5.742
		s1.115,5.156,1.115,8.438c0,0.313,0,0.58,0,0.801c0,0.222-0.014,0.723-0.037,1.504h-24.857c0,2.37,0.348,4.382,1.043,6.035
		c0.693,1.654,1.641,2.995,2.842,4.023c1.199,1.029,2.607,1.777,4.225,2.246C541.426,69.415,543.17,69.649,545.039,69.649z
		 M541.941,41.056c-1.355,0-2.615,0.273-3.779,0.82s-2.18,1.289-3.049,2.227c-0.871,0.938-1.574,2.038-2.111,3.301
		c-0.537,1.264-0.869,2.611-0.996,4.043h18.414c0-1.458-0.186-2.818-0.557-4.082c-0.371-1.263-0.914-2.363-1.631-3.301
		s-1.598-1.673-2.646-2.207C544.537,41.323,543.322,41.056,541.941,41.056z"/>
	<path d="M613.439,21.681v52.266h-6.176V27.774H581.27v46.172h-6.176V21.681H613.439z"/>
	<path d="M653.893,55.431c0,2.917-0.404,5.573-1.213,7.969c-0.809,2.396-1.951,4.447-3.43,6.152
		c-1.479,1.706-3.266,3.027-5.361,3.965c-2.098,0.938-4.447,1.406-7.047,1.406c-2.678,0-5.072-0.469-7.182-1.406
		s-3.902-2.259-5.381-3.965c-1.477-1.705-2.607-3.756-3.391-6.152c-0.783-2.396-1.174-5.052-1.174-7.969
		c0-2.942,0.402-5.611,1.213-8.008c0.807-2.396,1.951-4.453,3.428-6.172c1.479-1.719,3.271-3.047,5.381-3.984
		s4.465-1.406,7.066-1.406c2.652,0,5.039,0.469,7.162,1.406c2.121,0.938,3.914,2.266,5.381,3.984
		c1.463,1.719,2.588,3.776,3.371,6.172C653.5,49.819,653.893,52.488,653.893,55.431z M647.754,55.431
		c0-2.291-0.271-4.329-0.814-6.113c-0.545-1.783-1.303-3.294-2.273-4.531c-0.973-1.236-2.129-2.174-3.467-2.813
		c-1.34-0.638-2.805-0.957-4.396-0.957s-3.057,0.319-4.395,0.957c-1.34,0.639-2.496,1.576-3.467,2.813
		c-0.973,1.237-1.73,2.748-2.273,4.531c-0.545,1.784-0.814,3.822-0.814,6.113c0,2.266,0.27,4.291,0.814,6.074
		c0.543,1.784,1.307,3.288,2.291,4.512c0.986,1.225,2.146,2.155,3.486,2.793c1.34,0.639,2.805,0.957,4.396,0.957
		c1.59,0,3.049-0.318,4.375-0.957c1.326-0.638,2.477-1.568,3.449-2.793c0.971-1.224,1.729-2.728,2.273-4.512
		C647.482,59.722,647.754,57.696,647.754,55.431z"/>
	<path d="M687.182,36.837v37.109h-5.873V42.032h-8.373c-0.727,5.104-1.58,9.46-2.559,13.066c-0.979,3.607-2.004,6.615-3.074,9.023
		c-1.07,2.409-2.129,4.323-3.178,5.742c-1.049,1.42-2.109,2.475-3.182,3.164c-1.074,0.69-2.135,1.139-3.184,1.348
		c-1.049,0.208-2.041,0.313-2.975,0.313c-0.605,0-1.123-0.039-1.553-0.117v-6.289c0.328,0.053,0.631,0.078,0.908,0.078
		c0.936,0.026,1.801-0.091,2.596-0.352c0.797-0.26,1.541-0.723,2.236-1.387c0.693-0.664,1.402-1.686,2.121-3.066
		c0.721-1.38,1.414-3.235,2.084-5.566c0.67-2.33,1.332-5.221,1.99-8.672c0.656-3.45,1.287-7.61,1.895-12.48H687.182z"/>
	<path d="M699.822,73.946h-5.152V36.837h5.873v20.352c0,3.646-0.064,6.328-0.189,8.047h0.15c0.707-1.197,1.566-2.552,2.578-4.063
		c1.01-1.51,2.107-3.086,3.295-4.727l14.248-19.609h5.152v37.109h-5.873V53.595c0-2.864,0.063-5.547,0.189-8.047h-0.15
		c-0.709,1.198-1.574,2.553-2.596,4.063c-1.023,1.511-2.129,3.086-3.316,4.727L699.822,73.946z"/>
	<path d="M758.008,42.345h-18.604v31.602h-6.139V36.837h24.742V42.345z"/>
	<path d="M793.535,55.431c0,2.917-0.404,5.573-1.213,7.969c-0.809,2.396-1.951,4.447-3.43,6.152
		c-1.479,1.706-3.266,3.027-5.361,3.965c-2.098,0.938-4.447,1.406-7.047,1.406c-2.678,0-5.072-0.469-7.182-1.406
		s-3.902-2.259-5.381-3.965c-1.477-1.705-2.607-3.756-3.391-6.152c-0.783-2.396-1.174-5.052-1.174-7.969
		c0-2.942,0.402-5.611,1.213-8.008c0.807-2.396,1.951-4.453,3.428-6.172c1.479-1.719,3.271-3.047,5.381-3.984
		s4.465-1.406,7.066-1.406c2.652,0,5.039,0.469,7.162,1.406c2.121,0.938,3.914,2.266,5.381,3.984
		c1.463,1.719,2.588,3.776,3.371,6.172C793.143,49.819,793.535,52.488,793.535,55.431z M787.396,55.431
		c0-2.291-0.271-4.329-0.814-6.113c-0.545-1.783-1.303-3.294-2.273-4.531c-0.973-1.236-2.129-2.174-3.467-2.813
		c-1.34-0.638-2.805-0.957-4.396-0.957s-3.057,0.319-4.395,0.957c-1.34,0.639-2.496,1.576-3.467,2.813
		c-0.973,1.237-1.73,2.748-2.273,4.531c-0.545,1.784-0.814,3.822-0.814,6.113c0,2.266,0.27,4.291,0.814,6.074
		c0.543,1.784,1.307,3.288,2.291,4.512c0.986,1.225,2.146,2.155,3.486,2.793c1.34,0.639,2.805,0.957,4.396,0.957
		c1.59,0,3.049-0.318,4.375-0.957c1.326-0.638,2.477-1.568,3.449-2.793c0.971-1.224,1.729-2.728,2.273-4.512
		C787.125,59.722,787.396,57.696,787.396,55.431z"/>
	<path d="M822.961,73.946V57.345h-18.15v16.602h-5.873V36.837h5.873v15.313h18.15V36.837h5.873v37.109H822.961z"/>
	<path d="M842.193,36.837v14.297c1.111-0.156,2.262-0.279,3.449-0.371c1.186-0.091,2.26-0.137,3.221-0.137
		c2.777,0,5.139,0.3,7.084,0.898c1.945,0.6,3.531,1.42,4.756,2.461c1.225,1.042,2.115,2.26,2.672,3.652
		c0.555,1.394,0.834,2.897,0.834,4.512c0,2.058-0.424,3.854-1.27,5.391c-0.848,1.537-2.021,2.8-3.523,3.789
		c-1.504,0.99-3.297,1.732-5.381,2.227s-4.377,0.742-6.877,0.742c-2.174,0-4.156-0.124-5.949-0.371
		c-1.795-0.247-3.424-0.605-4.889-1.074V36.837H842.193z M847.688,69.142c3.209,0,5.734-0.579,7.578-1.738
		c1.844-1.158,2.779-2.871,2.805-5.137c0-0.911-0.184-1.771-0.549-2.578c-0.367-0.807-0.916-1.49-1.648-2.051
		c-0.734-0.56-1.693-1.009-2.881-1.348c-1.188-0.338-2.639-0.508-4.357-0.508c-0.908,0-1.869,0.039-2.879,0.117
		c-1.012,0.078-2.197,0.222-3.563,0.43v12.305c0.707,0.183,1.561,0.313,2.559,0.391S846.729,69.142,847.688,69.142z M869.475,73.946
		V36.837h5.873v37.109H869.475z"/>
	<path fill="#808285" d="M189.745,99.746c2.256,0,4.14,0.756,5.652,2.268c1.512,1.513,2.268,3.396,2.268,5.652
		s-0.756,4.141-2.268,5.652c-1.512,1.512-3.396,2.268-5.652,2.268h-6.48v9.36h-2.52v-25.2H189.745z M189.745,113.211
		c1.56,0,2.85-0.522,3.87-1.566c1.02-1.045,1.53-2.37,1.53-3.979c0-1.607-0.51-2.934-1.53-3.978c-1.021-1.044-2.31-1.566-3.87-1.566
		h-6.48v11.089H189.745z"/>
	<path fill="#808285" d="M224.449,121.58c-2.52,2.533-5.604,3.799-9.252,3.799c-3.648,0-6.732-1.266-9.252-3.799
		c-2.52-2.531-3.78-5.609-3.78-9.234c0-3.623,1.26-6.701,3.78-9.233s5.604-3.798,9.252-3.798c3.647,0,6.732,1.266,9.252,3.798
		s3.78,5.61,3.78,9.233C228.229,115.971,226.969,119.049,224.449,121.58z M207.708,119.852c2.016,2.053,4.512,3.078,7.488,3.078
		c2.976,0,5.472-1.025,7.488-3.078c2.016-2.051,3.024-4.553,3.024-7.506c0-2.951-1.008-5.453-3.024-7.506
		c-2.016-2.052-4.512-3.078-7.488-3.078c-2.977,0-5.472,1.026-7.488,3.078c-2.016,2.053-3.024,4.555-3.024,7.506
		C204.685,115.299,205.692,117.801,207.708,119.852z"/>
	<path fill="#808285" d="M246.12,125.379c-3.816,0-6.972-1.261-9.468-3.781c-2.497-2.52-3.744-5.604-3.744-9.252
		c0-3.647,1.248-6.731,3.744-9.252c2.496-2.52,5.652-3.779,9.468-3.779c2.328,0,4.464,0.558,6.408,1.674s3.443,2.623,4.5,4.518
		l-2.232,1.297c-0.792-1.536-1.968-2.76-3.528-3.672s-3.276-1.369-5.148-1.369c-3.144,0-5.712,1.021-7.704,3.061
		c-1.993,2.04-2.988,4.549-2.988,7.523c0,2.977,0.996,5.484,2.988,7.524c1.992,2.04,4.56,3.06,7.704,3.06
		c1.872,0,3.588-0.455,5.148-1.367s2.736-2.137,3.528-3.672l2.232,1.26c-1.032,1.896-2.526,3.408-4.482,4.536
		C250.59,124.814,248.448,125.379,246.12,125.379z"/>
	<path fill="#808285" d="M274.74,125.379c-3.816,0-6.972-1.261-9.468-3.781c-2.497-2.52-3.744-5.604-3.744-9.252
		c0-3.647,1.248-6.731,3.744-9.252c2.496-2.52,5.652-3.779,9.468-3.779c2.328,0,4.464,0.558,6.408,1.674s3.443,2.623,4.5,4.518
		l-2.232,1.297c-0.792-1.536-1.968-2.76-3.528-3.672s-3.276-1.369-5.148-1.369c-3.144,0-5.712,1.021-7.704,3.061
		c-1.993,2.04-2.988,4.549-2.988,7.523c0,2.977,0.996,5.484,2.988,7.524c1.992,2.04,4.56,3.06,7.704,3.06
		c1.872,0,3.588-0.455,5.148-1.367s2.736-2.137,3.528-3.672l2.232,1.26c-1.032,1.896-2.526,3.408-4.482,4.536
		C279.209,124.814,277.067,125.379,274.74,125.379z"/>
	<path fill="#808285" d="M307.788,124.946v-20.521l-14.04,20.521h-2.16v-25.2h2.52v20.52l14.04-20.52h2.16v25.2H307.788z"/>
	<path fill="#808285" d="M334.068,124.946v-20.521l-14.04,20.521h-2.16v-25.2h2.52v20.52l14.04-20.52h2.16v25.2H334.068z
		 M322.548,96.866v-2.088h9.36v2.088H322.548z"/>
	<path fill="#808285" d="M355.919,125.379c-3.816,0-6.972-1.261-9.468-3.781c-2.497-2.52-3.744-5.604-3.744-9.252
		c0-3.647,1.248-6.731,3.744-9.252c2.496-2.52,5.652-3.779,9.468-3.779c2.328,0,4.464,0.558,6.408,1.674s3.443,2.623,4.5,4.518
		l-2.232,1.297c-0.792-1.536-1.968-2.76-3.528-3.672s-3.276-1.369-5.148-1.369c-3.144,0-5.712,1.021-7.704,3.061
		c-1.993,2.04-2.988,4.549-2.988,7.523c0,2.977,0.996,5.484,2.988,7.524c1.992,2.04,4.56,3.06,7.704,3.06
		c1.872,0,3.588-0.455,5.148-1.367s2.736-2.137,3.528-3.672l2.232,1.26c-1.032,1.896-2.526,3.408-4.482,4.536
		C360.389,124.814,358.247,125.379,355.919,125.379z"/>
	<path fill="#808285" d="M390.407,124.946h-3.312l-11.808-12.204v12.204h-2.52v-25.2h2.52v11.52l11.448-11.52h3.312l-12.096,12.24
		L390.407,124.946z"/>
	<path fill="#808285" d="M414.131,121.58c-2.52,2.533-5.604,3.799-9.252,3.799c-3.648,0-6.732-1.266-9.252-3.799
		c-2.52-2.531-3.78-5.609-3.78-9.234c0-3.623,1.26-6.701,3.78-9.233s5.604-3.798,9.252-3.798c3.647,0,6.732,1.266,9.252,3.798
		s3.78,5.61,3.78,9.233C417.911,115.971,416.651,119.049,414.131,121.58z M397.391,119.852c2.016,2.053,4.512,3.078,7.488,3.078
		c2.976,0,5.472-1.025,7.488-3.078c2.016-2.051,3.024-4.553,3.024-7.506c0-2.951-1.008-5.453-3.024-7.506
		c-2.016-2.052-4.512-3.078-7.488-3.078c-2.977,0-5.472,1.026-7.488,3.078c-2.016,2.053-3.024,4.555-3.024,7.506
		C394.367,115.299,395.375,117.801,397.391,119.852z"/>
	<path fill="#808285" d="M440.231,124.946v-20.521l-14.041,20.521h-2.16v-25.2h2.52v20.52l14.04-20.52h2.16v25.2H440.231z
		 M428.71,96.866v-2.088h9.36v2.088H428.71z"/>
	<path fill="#808285" d="M482.764,105.362c2.22,1.681,3.33,4.009,3.33,6.983c0,2.977-1.11,5.305-3.33,6.984
		c-2.221,1.68-5.154,2.604-8.802,2.771v2.845h-2.521v-2.845c-3.648-0.167-6.582-1.092-8.802-2.771
		c-2.221-1.68-3.33-4.008-3.33-6.984c0-2.975,1.109-5.303,3.33-6.983c2.22-1.68,5.153-2.604,8.802-2.772v-2.844h2.521v2.844
		C477.61,102.758,480.543,103.683,482.764,105.362z M464.422,107c-1.729,1.26-2.593,3.043-2.593,5.346
		c0,2.305,0.864,4.086,2.593,5.347c1.728,1.26,4.067,1.962,7.02,2.106v-14.904C468.49,105.038,466.15,105.74,464.422,107z
		 M473.962,119.799c2.951-0.145,5.292-0.847,7.02-2.106c1.729-1.261,2.592-3.042,2.592-5.347c0-2.303-0.863-4.086-2.592-5.346
		c-1.728-1.26-4.068-1.962-7.02-2.105V119.799z"/>
	<path fill="#808285" d="M494.373,122.57h12.239v2.376h-14.759v-25.2h14.58v2.376h-12.059v8.929h11.159v2.375h-11.159V122.57z"/>
	<path fill="#808285" d="M530.732,122.57h2.701v7.2h-2.521v-4.824h-18v4.824h-2.52v-7.2h2.053c1.656-1.943,2.484-4.943,2.484-9
		V99.746h15.803V122.57z M515.434,122.57h12.779v-20.448h-10.764v11.521C517.449,117.627,516.777,120.603,515.434,122.57z"/>
	<path fill="#808285" d="M541.893,122.57h12.24v2.376h-14.76v-25.2h14.58v2.376h-12.061v8.929h11.16v2.375h-11.16V122.57z"/>
	<path fill="#808285" d="M569.252,99.746c2.256,0,4.141,0.756,5.652,2.268c1.512,1.513,2.268,3.396,2.268,5.652
		s-0.756,4.141-2.268,5.652s-3.396,2.268-5.652,2.268h-6.479v9.36h-2.521v-25.2H569.252z M569.252,113.211
		c1.561,0,2.85-0.522,3.871-1.566c1.02-1.045,1.529-2.37,1.529-3.979c0-1.607-0.51-2.934-1.529-3.978
		c-1.021-1.044-2.311-1.566-3.871-1.566h-6.479v11.089H569.252z"/>
	<path fill="#808285" d="M597.549,124.946l-2.34-6.192h-11.951l-2.34,6.192h-2.664l9.684-25.2h2.592l9.684,25.2H597.549z
		 M584.156,116.379h10.152l-5.076-13.5L584.156,116.379z"/>
	<path fill="#808285" d="M623.252,122.57h2.701v7.2h-2.521v-4.824h-18.18v-25.2h2.521v22.824h12.959V99.746h2.52V122.57z"/>
	<path fill="#808285" d="M648.094,124.946v-20.521l-14.041,20.521h-2.16v-25.2h2.521v20.52l14.039-20.52h2.16v25.2H648.094z"/>
	<path fill="#808285" d="M674.373,124.946v-20.521l-14.041,20.521h-2.16v-25.2h2.521v20.52l14.039-20.52h2.16v25.2H674.373z"/>
</g>
</svg>
