<svg width="145" height="145" viewBox="0 0 145 145" fill="none" xmlns="http://www.w3.org/2000/svg">
<path d="M108.324 91.1289C108.324 112.434 85.982 122.563 76.447 125.918C75.155 126.371 73.685 126.598 72.216 126.598C70.747 126.598 69.277 126.371 67.985 125.918C58.45 122.563 36.108 112.434 36.108 91.1289C36.108 62.7289 58.453 34.3239 67.985 23.4979C69.277 22.0309 70.746 21.2949 72.216 21.2949C73.686 21.2949 75.155 22.0309 76.447 23.4979C85.979 34.3239 108.324 62.7269 108.324 91.1289Z" fill="#D0EC43"/>
<path d="M108.324 91.1289C108.324 112.434 85.9821 122.563 76.4471 125.918C75.1551 126.371 73.6851 126.598 72.2161 126.598V21.2949C73.6861 21.2949 75.1551 22.0309 76.4471 23.4979C85.9791 34.3239 108.324 62.7269 108.324 91.1289Z" fill="#53CF55"/>
<path d="M94.6761 90.543L76.447 108.772V125.918C73.861 126.826 72.2161 127.238 72.2161 127.238C72.2161 127.238 70.5711 126.826 67.9851 125.918V91.775L52.2271 76.02L58.2131 70.036L67.9851 79.807V23.498C70.5711 20.562 72.2161 18.918 72.2161 18.918C72.2161 18.918 73.862 20.563 76.447 23.498V62.811L82.0501 57.209L88.033 63.191L76.447 74.779V96.802L88.6931 84.56L94.6761 90.543Z" fill="#53CF55"/>
<path d="M94.6761 90.543L76.4471 108.772V125.918C73.8611 126.826 72.2161 127.238 72.2161 127.238V18.918C72.2161 18.918 73.8621 20.563 76.4471 23.498V62.811L82.0501 57.209L88.0331 63.191L76.4471 74.779V96.802L88.6931 84.56L94.6761 90.543Z" fill="#3DA57C"/>
<path d="M123.281 21.15C109.642 7.512 91.506 0 72.216 0C52.927 0 34.791 7.512 21.151 21.15C7.512 34.791 0 52.926 0 72.215C0 91.506 7.512 109.641 21.151 123.279C34.79 136.92 52.926 144.431 72.215 144.431C91.505 144.431 109.641 136.919 123.28 123.279C136.919 109.64 144.43 91.506 144.43 72.215C144.432 52.926 136.92 34.791 123.281 21.15ZM117.297 117.297C105.255 129.336 89.246 135.969 72.216 135.969C55.186 135.969 39.177 129.336 27.135 117.297C15.095 105.254 8.463 89.246 8.463 72.215C8.463 55.186 15.095 39.178 27.135 27.135C39.177 15.094 55.186 8.463 72.216 8.463C89.246 8.463 105.255 15.094 117.297 27.135C129.338 39.178 135.969 55.186 135.969 72.215C135.969 89.246 129.338 105.254 117.297 117.297Z" fill="#32A6CE"/>
<path d="M144.432 72.215C144.432 91.506 136.92 109.641 123.282 123.279C109.642 136.92 91.5071 144.431 72.2171 144.431V135.968C89.2471 135.968 105.256 129.335 117.298 117.296C129.339 105.253 135.97 89.245 135.97 72.214C135.97 55.185 129.339 39.177 117.298 27.134C105.255 15.094 89.2461 8.463 72.2161 8.463V0C91.5061 0 109.642 7.512 123.281 21.15C136.92 34.791 144.432 52.926 144.432 72.215Z" fill="#0079A3"/>
<path d="M120.289 33.1519C125.274 33.1519 129.316 29.1104 129.316 24.1249C129.316 19.1394 125.274 15.0979 120.289 15.0979C115.303 15.0979 111.262 19.1394 111.262 24.1249C111.262 29.1104 115.303 33.1519 120.289 33.1519Z" fill="#53CF55" stroke="white" stroke-width="3" stroke-miterlimit="10"/>
<path d="M24.144 129.314C29.129 129.314 33.17 125.273 33.17 120.288C33.17 115.303 29.129 111.262 24.144 111.262C19.1591 111.262 15.118 115.303 15.118 120.288C15.118 125.273 19.1591 129.314 24.144 129.314Z" fill="#D0EC43" stroke="white" stroke-width="3" stroke-miterlimit="10"/>
</svg>
