<!-- Generated by IcoMoon.io -->
<svg version="1.1" xmlns="http://www.w3.org/2000/svg" width="32" height="32" viewBox="0 0 32 32">
<title>gerb</title>
<path fill="#ffeb00" d="M31.726 16.274c-0.152 8.685-7.315 15.603-16 15.451s-15.603-7.315-15.451-16c0.152-8.685 7.315-15.603 16-15.451s15.603 7.315 15.451 16z"></path>
<path fill="#00ad16" d="M31.512 16.271c-0.15 8.567-7.216 15.391-15.783 15.241s-15.391-7.216-15.241-15.783c0.15-8.567 7.216-15.391 15.783-15.241s15.391 7.216 15.241 15.783z"></path>
<path fill="#ffeb00" d="M29.267 16.222c-0.128 7.327-6.171 13.163-13.499 13.035s-13.163-6.171-13.035-13.499c0.128-7.327 6.171-13.163 13.499-13.035s13.163 6.171 13.035 13.499z"></path>
<path fill="#fff" d="M29.063 16.214c-0.123 7.21-6.067 12.956-13.278 12.834s-12.956-6.067-12.834-13.278c0.123-7.21 6.067-12.956 13.278-12.834s12.956 6.067 12.834 13.278z"></path>
<path fill="#ffeb00" d="M28.075 16.201c-0.113 6.665-5.608 11.975-12.272 11.862s-11.975-5.608-11.862-12.272c0.113-6.665 5.608-11.975 12.272-11.862s11.975 5.608 11.862 12.272z"></path>
<path fill="#f00" d="M19.205 25.482c0.154 0 0.279 0.125 0.279 0.279v0 0.279c0 0.154-0.125 0.279-0.279 0.279v0h-0.279v-0.836zM19.205 26.596c0.308 0 0.557-0.249 0.557-0.557v0-0.279c-0.001-0.307-0.25-0.555-0.557-0.555 0 0 0 0 0 0h-0.557v1.393zM18.091 26.596h0.279v-1.393h-0.279zM17.534 26.080l-0.557-0.875h-0.279v1.391h0.279v-0.875l0.557 0.875h0.279v-1.393h-0.279zM13.354 25.205v1.391h0.837v-0.279h-0.557v-0.279h0.557v-0.279h-0.557v-0.279h0.557v-0.279h-0.836zM12.24 25.205v1.391h0.836v-0.279h-0.557v-1.114h-0.279zM15.166 26.039h0.279c0.077 0 0.139-0.062 0.139-0.139s-0.062-0.139-0.139-0.139h-0.279v-0.279h0.278c0.231 0 0.418 0.187 0.418 0.418s-0.187 0.418-0.418 0.418h-0.279zM15.443 24.924h-0c-0.538 0.001-0.974 0.437-0.974 0.975v0c0 0.539 0.437 0.975 0.975 0.975s0.975-0.437 0.975-0.975c0-0.539-0.437-0.975-0.975-0.975zM15.444 25.203c0.385 0 0.697 0.312 0.697 0.697s-0.312 0.697-0.697 0.697c-0.385 0-0.697-0.312-0.697-0.697v0c0.001-0.383 0.312-0.694 0.695-0.694h0z"></path>
<path fill="#f00" d="M27.861 16.198c-0.111 6.547-5.509 11.764-12.055 11.652s-11.764-5.509-11.652-12.055c0.111-6.547 5.509-11.764 12.055-11.652s11.764 5.509 11.652 12.055z"></path>
<path fill="#ffeb00" d="M17.443 2.213c0.402-0.146 0.376-0.44 0.737-0.673 0.156-0.151 0.368-0.244 0.602-0.244 0.037 0 0.074 0.002 0.11 0.007l-0.004-0c0.116 0.028 0.217 0.075 0.307 0.139l-0.003-0.002c0.081 0.052 0.195 0.182 0.328 0.109 0.023-0.015 0.051-0.024 0.081-0.024 0.014 0 0.027 0.002 0.039 0.005l-0.001-0c0.037 0.018 0.064 0.050 0.074 0.089l0 0.001c0.052 0.146 0.114 0.104 0.238 0.074 0.045-0.015 0.098-0.024 0.152-0.024 0.045 0 0.089 0.006 0.13 0.017l-0.003-0.001c0.175 0.062 0.39 0.218 0.503 0.259s0.227-0.012 0.335 0.020c0.052 0.017 0.097 0.039 0.139 0.064l-0.003-0.002c0.023 0.013 0.175 0.1 0.155 0.138l-0.081 0.009-0.274 0.071c-0.017 0.002-0.036 0.003-0.056 0.003-0.067 0-0.131-0.014-0.189-0.040l0.003 0.001c-0.015-0.007-0.033-0.011-0.052-0.011s-0.037 0.004-0.053 0.012l0.001-0c-0.076 0.035-0.099 0.109-0.162 0.148-0.033 0.018-0.073 0.028-0.115 0.028-0.033 0-0.065-0.006-0.094-0.018l0.002 0.001c-0.073-0.033-0.122-0.105-0.122-0.189 0-0.006 0-0.013 0.001-0.019l-0 0.001c0.006-0.067 0.108-0.175 0-0.234-0.011-0.003-0.023-0.005-0.036-0.005-0.028 0-0.053 0.009-0.073 0.025l0-0c-0.082 0.042-0.143 0.116-0.167 0.205l-0 0.002c-0.042 0.196 0.145 0.352 0.284 0.46 0.073 0.058 0.158 0.105 0.25 0.136l0.006 0.002c0.085 0.012 0.182 0.020 0.282 0.020 0.341 0 0.662-0.084 0.945-0.232l-0.011 0.005c0.137-0.069 0.299-0.109 0.47-0.109 0.007 0 0.013 0 0.020 0h-0.001c0.016-0.001 0.035-0.002 0.054-0.002 0.126 0 0.245 0.032 0.348 0.089l-0.004-0.002c0.101 0.055 0.187 0.125 0.258 0.209l0.001 0.001c0.064 0.071 0.142 0.226 0.289 0.189 0.014-0.005 0.030-0.008 0.047-0.008 0.027 0 0.052 0.007 0.074 0.020l-0.001-0c0.030 0.025 0.048 0.062 0.049 0.104v0c0.010 0.155 0.084 0.131 0.212 0.132 0.008-0 0.017-0.001 0.026-0.001 0.090 0 0.175 0.024 0.248 0.066l-0.002-0.001c0.155 0.104 0.322 0.311 0.421 0.379s0.222 0.047 0.319 0.104c0.044 0.028 0.081 0.060 0.115 0.095l0 0c0.019 0.019 0.143 0.141 0.115 0.173l-0.081-0.012h-0.283c-0.086-0.012-0.163-0.046-0.226-0.097l0.001 0.001c-0.022-0.018-0.050-0.029-0.080-0.029-0.008 0-0.016 0.001-0.024 0.002l0.001-0c-0.082 0.015-0.124 0.080-0.195 0.104-0.017 0.004-0.037 0.007-0.058 0.007-0.056 0-0.108-0.019-0.15-0.050l0.001 0c-0.047-0.038-0.077-0.096-0.077-0.161 0-0.025 0.004-0.049 0.012-0.071l-0 0.001c0.023-0.063 0.149-0.142 0.060-0.226-0.018-0.012-0.040-0.018-0.064-0.018-0.017 0-0.032 0.003-0.047 0.009l0.001-0c-0.092 0.019-0.169 0.076-0.214 0.154l-0.001 0.002c-0.091 0.179 0.052 0.378 0.155 0.518 0.058 0.077 0.126 0.141 0.204 0.192l0.003 0.002c0.229 0.097 0.496 0.153 0.776 0.153 0.159 0 0.313-0.018 0.461-0.052l-0.014 0.003c0.064-0.013 0.137-0.021 0.212-0.021 0.103 0 0.202 0.015 0.297 0.042l-0.008-0.002c0.142 0.027 0.265 0.092 0.363 0.184l-0-0c0.081 0.075 0.147 0.164 0.196 0.264l0.002 0.005c0.044 0.085 0.080 0.254 0.232 0.256 0.003-0 0.006-0 0.009-0 0.040 0 0.077 0.016 0.104 0.042l-0-0c0.016 0.022 0.025 0.049 0.025 0.079 0 0.013-0.002 0.025-0.005 0.037l0-0.001c-0.029 0.151 0.048 0.148 0.171 0.181 0.096 0.020 0.18 0.066 0.246 0.13l-0-0c0.122 0.139 0.233 0.381 0.311 0.473s0.204 0.104 0.282 0.182c0.033 0.035 0.062 0.075 0.086 0.118l0.002 0.003c0.013 0.023 0.104 0.173 0.067 0.197l-0.075-0.032-0.274-0.073c-0.078-0.033-0.143-0.084-0.192-0.149l-0.001-0.001c-0.021-0.029-0.054-0.049-0.091-0.052l-0-0c-0.083-0.006-0.14 0.047-0.214 0.052-0.076-0.002-0.143-0.038-0.187-0.093l-0-0c-0.025-0.034-0.040-0.077-0.040-0.123 0-0.043 0.013-0.084 0.036-0.117l-0 0.001c0.038-0.055 0.18-0.099 0.115-0.204-0.022-0.023-0.053-0.038-0.088-0.038-0.006 0-0.011 0-0.017 0.001l0.001-0c-0.005-0-0.010-0-0.016-0-0.091 0-0.173 0.038-0.231 0.099l-0 0c-0.134 0.15-0.047 0.378 0.021 0.54 0.038 0.093 0.089 0.173 0.152 0.241l-0.001-0.001c0.319 0.242 0.72 0.394 1.154 0.409l0.003 0c0.178 0.010 0.342 0.063 0.484 0.148l-0.005-0.003c0.127 0.061 0.231 0.153 0.304 0.267l0.002 0.003c0.058 0.089 0.1 0.193 0.122 0.305l0.001 0.006c0.021 0.094 0.013 0.266 0.16 0.307 0.042 0.008 0.077 0.034 0.099 0.069l0 0.001c0.006 0.014 0.009 0.031 0.009 0.048 0 0.025-0.007 0.048-0.018 0.069l0-0.001c-0.066 0.139 0.009 0.155 0.12 0.219 0.087 0.043 0.157 0.107 0.206 0.186l0.001 0.002c0.083 0.166 0.129 0.428 0.181 0.537s0.171 0.15 0.226 0.248c0.021 0.040 0.039 0.086 0.051 0.135l0.001 0.004c0.007 0.025 0.055 0.194 0.015 0.207l-0.064-0.052-0.247-0.14c-0.065-0.050-0.116-0.115-0.148-0.191l-0.001-0.003c-0.013-0.034-0.041-0.061-0.075-0.073l-0.001-0c-0.079-0.027-0.148 0.009-0.22-0.007-0.070-0.022-0.126-0.072-0.155-0.136l-0.001-0.002c-0.009-0.023-0.015-0.049-0.015-0.077 0-0.062 0.027-0.118 0.070-0.156l0-0c0.052-0.043 0.199-0.052 0.163-0.168-0.018-0.034-0.052-0.057-0.091-0.062l-0.001-0c-0.029-0.009-0.062-0.015-0.096-0.015-0.062 0-0.12 0.018-0.169 0.048l0.001-0.001c-0.167 0.112-0.141 0.354-0.117 0.528 0.013 0.101 0.043 0.192 0.087 0.275l-0.002-0.004c0.184 0.351 0.627 0.502 1.016 0.688 0.168 0.055 0.311 0.145 0.427 0.262l0 0c0.105 0.087 0.184 0.202 0.226 0.333l0.001 0.005c0.027 0.081 0.043 0.174 0.043 0.27 0 0.021-0.001 0.043-0.002 0.064l0-0.003c-0.003 0.096-0.055 0.259 0.077 0.337 0.037 0.019 0.066 0.051 0.077 0.091l0 0.001c0 0.004 0.001 0.009 0.001 0.015 0 0.037-0.015 0.071-0.039 0.096l0-0c-0.099 0.118-0.031 0.153 0.061 0.242 0.070 0.061 0.122 0.14 0.15 0.231l0.001 0.004c0.038 0.181 0.016 0.446 0.039 0.565s0.127 0.188 0.155 0.297c0.011 0.045 0.017 0.096 0.017 0.148 0 0 0 0 0 0v-0c0 0.026 0.005 0.201-0.038 0.205l-0.052-0.065-0.203-0.198c-0.049-0.062-0.083-0.139-0.095-0.222l-0-0.002c-0.004-0.038-0.025-0.070-0.054-0.090l-0-0c-0.069-0.046-0.145-0.028-0.211-0.062-0.062-0.038-0.105-0.1-0.117-0.172l-0-0.001c-0.001-0.008-0.002-0.016-0.002-0.025 0-0.081 0.046-0.151 0.114-0.185l0.001-0.001c0.060-0.030 0.207 0 0.2-0.121 0-0.027-0.027-0.059-0.073-0.083-0.048-0.031-0.108-0.049-0.171-0.049-0.033 0-0.065 0.005-0.095 0.014l0.002-0.001c-0.19 0.066-0.226 0.307-0.247 0.481-0.004 0.031-0.006 0.066-0.006 0.102 0 0.064 0.007 0.126 0.022 0.186l-0.001-0.005c0.089 0.386 0.48 0.645 0.808 0.923 0.143 0.093 0.26 0.214 0.344 0.357l0.003 0.005c0.078 0.107 0.127 0.24 0.135 0.383l0 0.002c0.001 0.014 0.001 0.031 0.001 0.048 0 0.101-0.017 0.198-0.048 0.288l0.002-0.006c-0.027 0.092-0.119 0.238-0.011 0.345 0.031 0.027 0.051 0.065 0.052 0.109v0c-0.006 0.041-0.031 0.076-0.065 0.097l-0.001 0c-0.126 0.089-0.068 0.14-0.003 0.249 0.051 0.074 0.083 0.165 0.086 0.264l0 0.001c-0.009 0.185-0.097 0.436-0.104 0.556s0.076 0.214 0.076 0.327c-0.001 0.053-0.009 0.104-0.022 0.153l0.001-0.005c-0.006 0.026-0.047 0.196-0.089 0.188l-0.032-0.075-0.146-0.243c-0.024-0.055-0.039-0.119-0.039-0.186 0-0.020 0.001-0.039 0.004-0.058l-0 0.002c0.001-0.006 0.002-0.013 0.002-0.020 0-0.032-0.012-0.061-0.032-0.083l0 0c-0.055-0.062-0.133-0.064-0.188-0.113-0.044-0.045-0.071-0.107-0.071-0.175 0-0.008 0-0.016 0.001-0.024l-0 0.001c0.012-0.087 0.077-0.157 0.162-0.175l0.001-0c0.066-0.013 0.198 0.052 0.224-0.067 0-0.001 0-0.001 0-0.002 0-0.040-0.019-0.075-0.049-0.096l-0-0c-0.059-0.064-0.143-0.104-0.236-0.104-0.003 0-0.007 0-0.010 0h0c-0.2 0.016-0.297 0.239-0.363 0.403-0.034 0.083-0.056 0.18-0.058 0.281l-0 0.001c0.068 0.433 0.264 0.81 0.547 1.104l-0.001-0.001c0.111 0.12 0.195 0.267 0.242 0.43l0.002 0.008c0.030 0.077 0.048 0.166 0.048 0.259 0 0.052-0.006 0.103-0.016 0.152l0.001-0.005c-0.024 0.118-0.068 0.222-0.129 0.314l0.002-0.003c-0.052 0.082-0.176 0.2-0.099 0.331 0.017 0.024 0.027 0.053 0.027 0.085 0 0.012-0.001 0.024-0.004 0.035l0-0.001c-0.016 0.037-0.048 0.065-0.087 0.077l-0.001 0c-0.144 0.052-0.104 0.118-0.066 0.24 0.018 0.050 0.029 0.108 0.029 0.168 0 0.039-0.005 0.077-0.013 0.114l0.001-0.003c-0.056 0.177-0.207 0.397-0.243 0.512s0.019 0.226-0.009 0.336c-0.015 0.053-0.035 0.098-0.060 0.141l0.002-0.003c-0.012 0.023-0.095 0.178-0.133 0.16l-0.011-0.081-0.080-0.272c-0.003-0.021-0.005-0.046-0.005-0.071 0-0.062 0.012-0.121 0.034-0.175l-0.001 0.003c0.006-0.014 0.010-0.031 0.010-0.048 0-0.020-0.005-0.039-0.013-0.056l0 0.001c-0.038-0.075-0.112-0.096-0.155-0.155-0.020-0.035-0.032-0.077-0.032-0.122 0-0.030 0.005-0.060 0.015-0.087l-0.001 0.002c0.032-0.076 0.106-0.128 0.192-0.128 0.004 0 0.007 0 0.011 0l-0-0c0.067 0.004 0.178 0.104 0.234-0.008 0.003-0.010 0.004-0.021 0.004-0.032 0-0.029-0.010-0.055-0.027-0.076l0 0c-0.044-0.081-0.12-0.139-0.21-0.16l-0.002-0c-0.198-0.036-0.347 0.155-0.451 0.298-0.055 0.074-0.099 0.16-0.126 0.253l-0.001 0.006c-0.007 0.062-0.011 0.135-0.011 0.208 0 0.366 0.097 0.709 0.265 1.006l-0.005-0.010c0.076 0.141 0.122 0.307 0.124 0.484v0.001c0.003 0.023 0.004 0.050 0.004 0.077 0 0.118-0.028 0.23-0.078 0.328l0.002-0.004c-0.052 0.104-0.119 0.192-0.201 0.265l-0.001 0.001c-0.069 0.067-0.221 0.149-0.18 0.295 0.006 0.015 0.009 0.032 0.009 0.051 0 0.025-0.006 0.049-0.018 0.070l0-0.001c-0.025 0.031-0.062 0.051-0.103 0.052h-0c-0.155 0.016-0.128 0.089-0.125 0.216 0.001 0.013 0.002 0.027 0.002 0.042 0 0.084-0.021 0.164-0.058 0.234l0.001-0.003c-0.099 0.155-0.299 0.332-0.363 0.433s-0.039 0.224-0.094 0.322c-0.027 0.045-0.057 0.084-0.091 0.119l0-0c-0.018 0.019-0.137 0.148-0.169 0.121l0.009-0.081-0.008-0.283c0.009-0.087 0.041-0.164 0.089-0.229l-0.001 0.001c0.017-0.021 0.027-0.048 0.027-0.077 0-0.009-0.001-0.018-0.003-0.027l0 0.001c-0.018-0.081-0.084-0.121-0.108-0.191-0.005-0.019-0.009-0.042-0.009-0.065 0-0.053 0.017-0.103 0.045-0.143l-0.001 0.001c0.038-0.050 0.098-0.082 0.165-0.082 0.022 0 0.044 0.004 0.064 0.010l-0.001-0c0.064 0.021 0.147 0.144 0.228 0.052 0.010-0.017 0.016-0.038 0.016-0.061 0-0.018-0.004-0.035-0.011-0.050l0 0.001c-0.023-0.091-0.083-0.165-0.163-0.206l-0.002-0.001c-0.182-0.085-0.376 0.063-0.512 0.174-0.074 0.059-0.135 0.129-0.184 0.208l-0.002 0.003c-0.080 0.21-0.127 0.454-0.127 0.708 0 0.183 0.024 0.361 0.069 0.53l-0.003-0.014c0.019 0.075 0.030 0.162 0.030 0.25s-0.011 0.175-0.031 0.258l0.002-0.007c-0.022 0.143-0.083 0.27-0.172 0.371l0.001-0.001c-0.073 0.084-0.16 0.153-0.258 0.205l-0.005 0.002c-0.084 0.047-0.251 0.089-0.249 0.24 0 0.004 0.001 0.009 0.001 0.014 0 0.039-0.015 0.074-0.039 0.1l0-0c-0.023 0.017-0.051 0.027-0.082 0.027-0.011 0-0.022-0.001-0.032-0.004l0.001 0c-0.152-0.024-0.146 0.052-0.176 0.177-0.017 0.097-0.061 0.183-0.123 0.251l0-0c-0.135 0.127-0.373 0.245-0.462 0.327s-0.094 0.207-0.173 0.288c-0.035 0.034-0.073 0.064-0.115 0.090l-0.003 0.002c-0.022 0.014-0.17 0.108-0.194 0.074l0.030-0.076 0.064-0.276c0.030-0.080 0.080-0.147 0.142-0.198l0.001-0.001c0.028-0.022 0.047-0.056 0.049-0.093v-0c0.004-0.083-0.052-0.138-0.056-0.212 0-0 0-0 0-0 0-0.076 0.034-0.143 0.087-0.189l0-0c0.035-0.028 0.080-0.044 0.128-0.044 0.041 0 0.079 0.012 0.111 0.032l-0.001-0c0.056 0.036 0.104 0.176 0.207 0.108 0.022-0.022 0.035-0.052 0.035-0.085 0-0.007-0.001-0.013-0.002-0.019l0 0.001c0-0.002 0-0.003 0-0.005 0-0.095-0.041-0.18-0.106-0.238l-0-0c-0.155-0.128-0.38-0.035-0.539 0.039-0.092 0.042-0.171 0.096-0.238 0.162l0-0c-0.233 0.326-0.373 0.733-0.374 1.172v0c-0.005 0.178-0.052 0.344-0.132 0.489l0.003-0.006c-0.045 0.102-0.109 0.188-0.186 0.258l-0.001 0.001-0.137-0.182c0.049-0.053 0.091-0.114 0.123-0.18l0.002-0.004c0.035-0.058 0.056-0.128 0.056-0.203 0-0.1-0.037-0.19-0.098-0.26l0 0c-0.077-0.084-0.132-0.104-0.173-0.075-0.055 0.037-0.007 0.117 0.012 0.181 0.005 0.017 0.008 0.037 0.008 0.058 0 0.069-0.032 0.13-0.082 0.169l-0 0c-0.017 0.014-0.037 0.025-0.058 0.033l-0.002 0.001-0.351-0.466c0.047-0.073 0.106-0.135 0.176-0.183l0.002-0.001c0.105-0.060 0.226-0.107 0.354-0.134l0.008-0.001c0.051-0.014 0.088-0.057 0.094-0.11l0-0.001c0.002-0.067 0.029-0.128 0.072-0.173l-0 0c0.020-0.008 0.044-0.013 0.069-0.013s0.048 0.005 0.070 0.013l-0.001-0c0.13 0.040 0.163-0.173 0.196-0.248 0.049-0.113 0.116-0.21 0.197-0.292l-0 0c0.581-0.563 1.597-0.183 1.977-0.673 0.061-0.080 0.104-0.177 0.124-0.282l0.001-0.004c0.010-0.034 0.016-0.072 0.016-0.112 0-0.134-0.067-0.253-0.17-0.323l-0.001-0.001c-0.096-0.062-0.155-0.066-0.186-0.028-0.044 0.052 0.023 0.114 0.058 0.172 0.018 0.031 0.029 0.068 0.029 0.108 0 0.049-0.016 0.094-0.044 0.13l0-0.001c-0.045 0.058-0.115 0.095-0.193 0.095-0.018 0-0.036-0.002-0.052-0.006l0.002 0c-0.074-0.020-0.137-0.076-0.199 0-0.052 0.057-0.119 0.099-0.195 0.12l-0.003 0.001c-0.082 0.030-0.238 0.015-0.288 0.052-0.034 0.026-0.068 0.022-0.038-0.052 0.026-0.061 0.064-0.113 0.11-0.155l0-0c0.080-0.076 0.178-0.099 0.259-0.187s0.091-0.279 0.215-0.411c0.091-0.088 0.195-0.162 0.309-0.22l0.007-0.003c0.039-0.023 0.065-0.064 0.065-0.111 0-0.007-0.001-0.014-0.002-0.020l0 0.001c-0.004-0.018-0.007-0.039-0.007-0.060 0-0.046 0.012-0.089 0.032-0.127l-0.001 0.001c0.031-0.024 0.071-0.038 0.113-0.038 0.007 0 0.013 0 0.020 0.001l-0.001-0c0.136 0.006 0.113-0.207 0.127-0.29 0.018-0.123 0.058-0.233 0.115-0.332l-0.002 0.004c0.414-0.686 1.495-0.575 1.739-1.145 0.032-0.075 0.050-0.163 0.050-0.254 0-0.019-0.001-0.038-0.002-0.056l0 0.002c0-0.004 0-0.008 0-0.013 0-0.17-0.108-0.315-0.26-0.369l-0.003-0.001c-0.108-0.036-0.165-0.024-0.187 0.020-0.030 0.060 0.052 0.104 0.099 0.152 0.039 0.039 0.063 0.092 0.063 0.152 0 0.030-0.006 0.058-0.017 0.084l0.001-0.001c-0.037 0.084-0.117 0.143-0.212 0.148l-0.001 0c-0.077 0-0.152-0.039-0.193 0.052-0.037 0.070-0.092 0.127-0.159 0.166l-0.002 0.001c-0.072 0.052-0.226 0.075-0.265 0.125-0.026 0.034-0.060 0.038-0.052-0.040 0.011-0.067 0.035-0.126 0.069-0.178l-0.001 0.002c0.059-0.094 0.147-0.141 0.202-0.246s0.018-0.293 0.104-0.452c0.070-0.114 0.153-0.212 0.248-0.295l0.002-0.001c0.024-0.023 0.038-0.056 0.038-0.092 0-0.018-0.004-0.036-0.011-0.052l0 0.001c-0.019-0.036-0.030-0.078-0.030-0.123 0-0.022 0.003-0.044 0.008-0.064l-0 0.002c0.029-0.036 0.070-0.062 0.117-0.069l0.001-0c0.133-0.028 0.057-0.23 0.049-0.311-0.003-0.030-0.006-0.066-0.006-0.102 0-0.088 0.012-0.174 0.035-0.255l-0.002 0.007c0.229-0.774 1.301-0.941 1.393-1.554 0.004-0.026 0.006-0.057 0.006-0.088 0-0.080-0.014-0.156-0.039-0.227l0.001 0.005c-0.039-0.166-0.179-0.289-0.35-0.303l-0.001-0c-0.114-0.007-0.166 0.018-0.177 0.067-0.014 0.065 0.076 0.089 0.135 0.121 0.064 0.038 0.106 0.107 0.106 0.185 0 0.011-0.001 0.021-0.002 0.031l0-0.001c-0.014 0.094-0.080 0.169-0.167 0.197l-0.002 0c-0.075 0.019-0.155 0-0.174 0.097-0.019 0.080-0.058 0.149-0.113 0.203l-0 0c-0.057 0.066-0.2 0.13-0.225 0.189-0.017 0.039-0.049 0.052-0.058-0.026-0.001-0.013-0.002-0.029-0.002-0.044 0-0.051 0.009-0.101 0.025-0.147l-0.001 0.003c0.033-0.104 0.104-0.174 0.133-0.289s-0.057-0.288-0.013-0.466c0.040-0.133 0.097-0.249 0.169-0.354l-0.003 0.004c0.011-0.019 0.018-0.041 0.018-0.066 0-0.030-0.010-0.058-0.028-0.080l0 0c-0.042-0.046-0.068-0.107-0.069-0.174v-0c0.011-0.046 0.068-0.082 0.097-0.097 0.121-0.062-0.004-0.238-0.032-0.315-0.039-0.099-0.062-0.215-0.062-0.335 0-0.004 0-0.009 0-0.013v0.001c0.025-0.809 1.020-1.243 0.952-1.859-0.014-0.11-0.053-0.209-0.111-0.294l0.002 0.002c-0.067-0.126-0.197-0.21-0.347-0.21-0.024 0-0.047 0.002-0.070 0.006l0.002-0c-0.112 0.022-0.155 0.060-0.155 0.109 0.003 0.067 0.096 0.066 0.161 0.083 0.083 0.024 0.145 0.094 0.155 0.18l0 0.001c0.001 0.008 0.002 0.018 0.002 0.027 0 0.087-0.045 0.163-0.113 0.206l-0.001 0.001c-0.067 0.037-0.151 0.040-0.143 0.138 0 0.004 0 0.008 0 0.013 0 0.078-0.022 0.151-0.059 0.214l0.001-0.002c-0.038 0.078-0.161 0.177-0.169 0.239-0.006 0.042-0.034 0.063-0.063-0.010-0.018-0.046-0.028-0.099-0.028-0.155 0-0.011 0-0.022 0.001-0.033l-0 0.001c0.005-0.11 0.059-0.195 0.055-0.311s-0.128-0.264-0.131-0.445c0.005-0.138 0.030-0.268 0.075-0.389l-0.003 0.009c0.003-0.011 0.005-0.023 0.005-0.036 0-0.042-0.020-0.078-0.050-0.102l-0-0c-0.053-0.035-0.093-0.087-0.11-0.149l-0-0.002c0.008-0.048 0.033-0.090 0.069-0.118l0-0c0.104-0.090-0.064-0.229-0.111-0.296-0.065-0.090-0.116-0.195-0.146-0.309l-0.001-0.007c-0.18-0.784 0.673-1.455 0.452-2.035-0.041-0.101-0.103-0.186-0.179-0.254l-0.001-0.001c-0.072-0.079-0.175-0.128-0.29-0.128-0.060 0-0.116 0.013-0.167 0.037l0.002-0.001c-0.104 0.052-0.136 0.097-0.121 0.144 0.020 0.064 0.11 0.040 0.177 0.039 0.089 0.002 0.164 0.057 0.196 0.135l0 0.001c0.010 0.026 0.016 0.055 0.016 0.086 0 0.065-0.026 0.125-0.068 0.169l0-0c-0.055 0.052-0.136 0.078-0.104 0.17 0.011 0.035 0.017 0.075 0.017 0.116s-0.006 0.081-0.017 0.119l0.001-0.003c-0.017 0.085-0.111 0.211-0.104 0.274 0.005 0.042-0.017 0.069-0.063 0.006-0.035-0.049-0.061-0.108-0.073-0.171l-0-0.003c-0.023-0.108 0.007-0.204-0.026-0.317s-0.191-0.223-0.239-0.398c-0.020-0.084-0.032-0.18-0.032-0.279 0-0.038 0.002-0.075 0.005-0.112l-0 0.005c0-0.001 0-0.002 0-0.003 0-0.053-0.032-0.099-0.078-0.118l-0.001-0c-0.062-0.021-0.113-0.063-0.145-0.116l-0.001-0.001c-0.001-0.006-0.001-0.012-0.001-0.019 0-0.043 0.014-0.082 0.038-0.114l-0 0c0.076-0.113-0.12-0.207-0.182-0.259-0.089-0.074-0.163-0.163-0.22-0.264l-0.002-0.005c-0.372-0.713 0.282-1.578-0.079-2.083-0.063-0.084-0.143-0.152-0.235-0.199l-0.004-0.002c-0.060-0.040-0.134-0.063-0.213-0.063-0.095 0-0.182 0.034-0.25 0.090l0.001-0.001c-0.086 0.074-0.107 0.128-0.080 0.171 0.035 0.056 0.117 0.010 0.181-0.007 0.015-0.004 0.033-0.006 0.051-0.006 0.071 0 0.134 0.034 0.173 0.087l0 0.001c0.029 0.040 0.046 0.089 0.046 0.143 0 0.043-0.011 0.083-0.030 0.117l0.001-0.001c-0.040 0.065-0.112 0.109-0.057 0.191 0.038 0.061 0.060 0.136 0.060 0.215 0 0.003-0 0.006-0 0.010v-0c0.005 0.087-0.052 0.233-0.030 0.292 0.016 0.040 0 0.071-0.060 0.022-0.048-0.041-0.087-0.090-0.114-0.147l-0.001-0.003-0.104-0.3s-0.241-0.167-0.332-0.324c-0.057-0.106-0.1-0.229-0.123-0.359l-0.001-0.008c-0.012-0.051-0.054-0.090-0.107-0.098l-0.001-0c-0.067-0.004-0.126-0.033-0.17-0.077v0c-0.008-0.020-0.013-0.044-0.013-0.069s0.005-0.048 0.013-0.070l-0 0.001c0.045-0.128-0.168-0.168-0.242-0.204-0.11-0.052-0.204-0.121-0.283-0.204l-0-0c-0.542-0.596-0.128-1.599-0.605-1.996-0.079-0.064-0.173-0.11-0.277-0.133l-0.004-0.001c-0.037-0.013-0.079-0.020-0.123-0.020-0.13 0-0.246 0.064-0.317 0.162l-0.001 0.001c-0.065 0.094-0.070 0.151-0.035 0.185 0.049 0.046 0.115-0.020 0.173-0.052 0.030-0.016 0.065-0.026 0.102-0.026 0.052 0 0.099 0.018 0.136 0.048l-0-0c0.054 0.045 0.089 0.113 0.089 0.189 0 0.021-0.003 0.041-0.007 0.060l0-0.002c-0.022 0.074-0.081 0.134-0.007 0.199 0.055 0.053 0.096 0.122 0.114 0.199l0.001 0.003c0.027 0.083 0.007 0.238 0.045 0.289 0.025 0.034 0.020 0.069-0.052 0.036-0.059-0.029-0.109-0.068-0.149-0.115l-0.001-0.001c-0.074-0.082-0.094-0.181-0.178-0.264s-0.276-0.1-0.404-0.229c-0.084-0.093-0.156-0.2-0.21-0.316l-0.003-0.008c-0.022-0.041-0.065-0.068-0.113-0.068-0.005 0-0.011 0-0.016 0.001l0.001-0c-0.015 0.003-0.033 0.005-0.051 0.005-0.049 0-0.095-0.013-0.135-0.037l0.001 0.001c-0.021-0.030-0.034-0.068-0.034-0.109 0-0.009 0.001-0.017 0.002-0.025l-0 0.001c0.010-0.136-0.207-0.12-0.285-0.136-0.123-0.023-0.232-0.066-0.329-0.127l0.004 0.002c-0.673-0.439-0.528-1.514-1.090-1.777-0.081-0.037-0.175-0.058-0.274-0.058-0.011 0-0.023 0-0.034 0.001l0.002-0c-0.008-0.001-0.016-0.001-0.025-0.001-0.166 0-0.308 0.103-0.365 0.248l-0.001 0.003c-0.039 0.107-0.030 0.165 0.013 0.188 0.059 0.032 0.107-0.048 0.155-0.094 0.038-0.036 0.090-0.058 0.147-0.058 0.032 0 0.063 0.007 0.090 0.020l-0.001-0.001c0.083 0.039 0.14 0.122 0.141 0.217v0c-0.003 0.077-0.044 0.15 0.044 0.194 0.069 0.039 0.124 0.096 0.161 0.164l0.001 0.002c0.047 0.074 0.067 0.229 0.117 0.269 0.033 0.027 0.036 0.062-0.041 0.048-0.066-0.013-0.125-0.039-0.175-0.075l0.001 0.001c-0.092-0.061-0.136-0.151-0.239-0.207s-0.292-0.027-0.448-0.119c-0.111-0.073-0.206-0.159-0.286-0.257l-0.002-0.002c-0.024-0.026-0.057-0.041-0.095-0.041-0.017 0-0.033 0.003-0.048 0.009l0.001-0c-0.034 0.017-0.073 0.026-0.115 0.026-0.025 0-0.050-0.004-0.073-0.010l0.002 0c-0.035-0.030-0.059-0.072-0.065-0.12l-0-0.001c-0.024-0.134-0.228-0.064-0.311-0.060-0.021 0.002-0.046 0.003-0.071 0.003-0.1 0-0.197-0.016-0.288-0.045l0.007 0.002c-0.77-0.255-0.902-1.332-1.512-1.443-0.020-0.003-0.043-0.005-0.067-0.005-0.209 0-0.382 0.154-0.413 0.354l-0 0.002c-0.010 0.114 0.013 0.167 0.061 0.179 0.065 0.016 0.091-0.074 0.126-0.131 0.039-0.061 0.106-0.1 0.182-0.1 0.013 0 0.025 0.001 0.037 0.003l-0.001-0c0.093 0.017 0.166 0.085 0.192 0.173l0 0.002c0.017 0.075-0.004 0.155 0.092 0.177 0.079 0.021 0.146 0.063 0.199 0.119l0 0c0.064 0.059 0.123 0.204 0.181 0.23 0.039 0.018 0.052 0.052-0.028 0.057-0.009 0.001-0.020 0.001-0.031 0.001-0.056 0-0.11-0.010-0.159-0.030l0.003 0.001c-0.104-0.036-0.17-0.111-0.285-0.142-0.17-0.046-0.287 0.022-0.53-0.137-0.020-0.013-0.043-0.020-0.069-0.020-0.029 0-0.055 0.009-0.076 0.025l0-0c-0.046 0.040-0.106 0.064-0.172 0.064-0.001 0-0.003 0-0.004-0h0c-0.045-0.012-0.080-0.071-0.094-0.1-0.057-0.123-0.176 0.013-0.254 0.039-0.029 0.012-0.063 0.020-0.099 0.020-0.076 0-0.145-0.033-0.192-0.086l-0-0z"></path>
<path fill="#ffeb00" d="M14.557 2.213c-0.402-0.146-0.376-0.44-0.737-0.673-0.156-0.151-0.368-0.244-0.602-0.244-0.037 0-0.074 0.002-0.11 0.007l0.004-0c-0.116 0.028-0.217 0.075-0.307 0.139l0.003-0.002c-0.081 0.052-0.195 0.182-0.328 0.109-0.023-0.015-0.051-0.024-0.081-0.024-0.014 0-0.027 0.002-0.039 0.005l0.001-0c-0.037 0.018-0.064 0.050-0.074 0.089l-0 0.001c-0.052 0.146-0.114 0.104-0.238 0.074-0.045-0.015-0.097-0.024-0.152-0.024-0.045 0-0.089 0.006-0.13 0.017l0.004-0.001c-0.175 0.062-0.39 0.218-0.503 0.259s-0.227-0.012-0.335 0.020c-0.052 0.017-0.097 0.038-0.139 0.064l0.003-0.002c-0.023 0.013-0.175 0.1-0.155 0.138l0.081 0.009 0.274 0.071c0.017 0.002 0.036 0.003 0.056 0.003 0.067 0 0.131-0.014 0.189-0.040l-0.003 0.001c0.015-0.007 0.033-0.011 0.052-0.011s0.037 0.004 0.053 0.012l-0.001-0c0.076 0.035 0.099 0.109 0.162 0.148 0.033 0.018 0.073 0.028 0.115 0.028 0.033 0 0.065-0.006 0.094-0.018l-0.002 0.001c0.073-0.033 0.123-0.105 0.123-0.189 0-0.006-0-0.013-0.001-0.019l0 0.001c-0.006-0.067-0.108-0.175 0-0.234 0.011-0.003 0.023-0.005 0.036-0.005 0.028 0 0.053 0.009 0.073 0.025l-0-0c0.082 0.042 0.143 0.116 0.167 0.205l0.001 0.002c0.042 0.196-0.145 0.352-0.284 0.46-0.073 0.058-0.158 0.105-0.25 0.136l-0.006 0.002c-0.085 0.012-0.182 0.020-0.282 0.020-0.341 0-0.662-0.084-0.945-0.232l0.011 0.005c-0.137-0.069-0.299-0.109-0.47-0.109-0.007 0-0.013 0-0.020 0h0.001c-0.016-0.001-0.035-0.002-0.054-0.002-0.126 0-0.245 0.032-0.348 0.089l0.004-0.002c-0.101 0.055-0.187 0.125-0.258 0.209l-0.001 0.001c-0.064 0.071-0.142 0.226-0.289 0.189-0.014-0.005-0.030-0.008-0.047-0.008-0.027 0-0.052 0.007-0.074 0.020l0.001-0c-0.030 0.025-0.048 0.062-0.049 0.104v0c-0.010 0.155-0.084 0.131-0.212 0.132-0.008-0-0.017-0.001-0.026-0.001-0.090 0-0.175 0.024-0.248 0.066l0.002-0.001c-0.155 0.104-0.322 0.311-0.421 0.379s-0.222 0.047-0.319 0.104c-0.044 0.028-0.081 0.060-0.115 0.095l-0 0c-0.019 0.019-0.143 0.141-0.115 0.173l0.081-0.012h0.283c0.087-0.012 0.163-0.047 0.227-0.097l-0.001 0.001c0.022-0.018 0.050-0.029 0.080-0.029 0.008 0 0.016 0.001 0.024 0.002l-0.001-0c0.082 0.015 0.124 0.080 0.195 0.104 0.017 0.004 0.037 0.007 0.058 0.007 0.056 0 0.108-0.019 0.15-0.050l-0.001 0c0.047-0.038 0.077-0.096 0.077-0.161 0-0.025-0.004-0.049-0.012-0.071l0 0.001c-0.023-0.063-0.149-0.142-0.060-0.226 0.018-0.012 0.040-0.018 0.064-0.018 0.017 0 0.032 0.003 0.047 0.009l-0.001-0c0.092 0.019 0.169 0.076 0.214 0.154l0.001 0.002c0.091 0.179-0.052 0.378-0.155 0.518-0.057 0.077-0.126 0.141-0.204 0.192l-0.003 0.002c-0.229 0.097-0.496 0.153-0.776 0.153-0.159 0-0.313-0.018-0.461-0.052l0.014 0.003c-0.064-0.013-0.137-0.021-0.212-0.021-0.103 0-0.202 0.015-0.297 0.042l0.008-0.002c-0.142 0.027-0.265 0.092-0.363 0.184l0-0c-0.081 0.075-0.147 0.164-0.196 0.264l-0.002 0.005c-0.044 0.085-0.080 0.254-0.232 0.256-0.003-0-0.006-0-0.009-0-0.040 0-0.077 0.016-0.104 0.042l0-0c-0.016 0.022-0.025 0.049-0.025 0.079 0 0.013 0.002 0.025 0.005 0.037l-0-0.001c0.029 0.151-0.048 0.148-0.171 0.181-0.096 0.020-0.18 0.066-0.246 0.13l0-0c-0.122 0.139-0.233 0.381-0.311 0.473s-0.204 0.104-0.282 0.182c-0.033 0.035-0.062 0.075-0.086 0.118l-0.002 0.003c-0.013 0.023-0.104 0.173-0.067 0.197l0.075-0.032 0.274-0.073c0.078-0.033 0.143-0.084 0.192-0.149l0.001-0.001c0.021-0.029 0.054-0.049 0.091-0.052l0-0c0.083-0.006 0.14 0.047 0.214 0.052 0.076-0.002 0.143-0.038 0.187-0.093l0-0c0.025-0.034 0.040-0.077 0.040-0.123 0-0.043-0.013-0.084-0.036-0.117l0 0.001c-0.038-0.055-0.18-0.099-0.115-0.204 0.022-0.023 0.053-0.038 0.087-0.038 0.006 0 0.011 0 0.017 0.001l-0.001-0c0.005-0 0.010-0 0.016-0 0.091 0 0.173 0.038 0.231 0.099l0 0c0.134 0.15 0.047 0.378-0.021 0.54-0.038 0.093-0.089 0.173-0.152 0.241l0.001-0.001c-0.319 0.242-0.72 0.394-1.154 0.409l-0.003 0c-0.178 0.010-0.342 0.063-0.484 0.148l0.005-0.003c-0.127 0.061-0.231 0.153-0.304 0.267l-0.002 0.003c-0.058 0.089-0.1 0.193-0.122 0.305l-0.001 0.006c-0.021 0.094-0.013 0.266-0.159 0.307-0.042 0.008-0.077 0.034-0.099 0.069l-0 0.001c-0.006 0.014-0.009 0.031-0.009 0.048 0 0.025 0.007 0.048 0.018 0.069l-0-0.001c0.066 0.139-0.009 0.155-0.12 0.219-0.087 0.043-0.157 0.107-0.206 0.186l-0.001 0.002c-0.083 0.166-0.129 0.428-0.181 0.537s-0.171 0.15-0.226 0.248c-0.021 0.040-0.039 0.086-0.051 0.135l-0.001 0.004c-0.007 0.025-0.055 0.194-0.015 0.207l0.064-0.052 0.247-0.14c0.065-0.050 0.116-0.115 0.148-0.191l0.001-0.003c0.013-0.034 0.041-0.061 0.075-0.073l0.001-0c0.079-0.027 0.148 0.009 0.22-0.007 0.070-0.022 0.126-0.072 0.155-0.136l0.001-0.002c0.009-0.023 0.015-0.049 0.015-0.077 0-0.062-0.027-0.118-0.070-0.156l-0-0c-0.052-0.043-0.199-0.052-0.163-0.168 0.018-0.034 0.052-0.057 0.091-0.062l0.001-0c0.029-0.009 0.062-0.015 0.096-0.015 0.062 0 0.12 0.018 0.169 0.048l-0.001-0.001c0.167 0.112 0.141 0.354 0.117 0.528-0.013 0.101-0.043 0.192-0.087 0.275l0.002-0.004c-0.184 0.351-0.627 0.502-1.016 0.688-0.168 0.055-0.311 0.145-0.427 0.262l-0 0c-0.105 0.087-0.184 0.202-0.226 0.333l-0.001 0.005c-0.027 0.081-0.043 0.174-0.043 0.27 0 0.021 0.001 0.043 0.002 0.064l-0-0.003c0.003 0.096 0.055 0.259-0.077 0.337-0.037 0.019-0.065 0.051-0.077 0.091l-0 0.001c-0 0.004-0.001 0.009-0.001 0.015 0 0.037 0.015 0.071 0.039 0.096l-0-0c0.099 0.118 0.031 0.153-0.061 0.242-0.070 0.061-0.122 0.14-0.15 0.231l-0.001 0.004c-0.038 0.181-0.016 0.446-0.039 0.565s-0.127 0.188-0.155 0.297c-0.011 0.044-0.017 0.096-0.017 0.148 0 0 0 0 0 0.001v-0c0 0.026-0.005 0.201 0.038 0.205l0.052-0.065 0.203-0.198c0.049-0.062 0.083-0.139 0.095-0.222l0-0.002c0.004-0.038 0.025-0.070 0.054-0.090l0-0c0.069-0.046 0.145-0.028 0.211-0.062 0.062-0.038 0.105-0.1 0.117-0.172l0-0.001c0.001-0.008 0.002-0.016 0.002-0.025 0-0.081-0.046-0.151-0.114-0.185l-0.001-0.001c-0.060-0.030-0.207 0-0.2-0.121 0-0.027 0.027-0.059 0.073-0.083 0.048-0.031 0.108-0.049 0.171-0.049 0.033 0 0.065 0.005 0.095 0.014l-0.002-0.001c0.19 0.066 0.226 0.307 0.247 0.481 0.004 0.031 0.006 0.066 0.006 0.102 0 0.064-0.007 0.126-0.022 0.186l0.001-0.005c-0.089 0.386-0.48 0.645-0.808 0.923-0.143 0.093-0.26 0.214-0.344 0.357l-0.003 0.005c-0.078 0.107-0.127 0.24-0.135 0.383l-0 0.002c-0.001 0.014-0.001 0.031-0.001 0.048 0 0.101 0.017 0.198 0.048 0.288l-0.002-0.006c0.027 0.092 0.119 0.238 0.011 0.345-0.031 0.027-0.051 0.065-0.052 0.109v0c0.006 0.041 0.031 0.076 0.065 0.097l0.001 0c0.126 0.089 0.068 0.14 0.003 0.249-0.051 0.074-0.083 0.165-0.086 0.264l-0 0.001c0.009 0.185 0.097 0.436 0.104 0.556s-0.076 0.214-0.076 0.327c0.002 0.053 0.009 0.104 0.022 0.153l-0.001-0.005c0.006 0.026 0.047 0.196 0.089 0.188l0.032-0.075 0.146-0.243c0.024-0.055 0.039-0.119 0.039-0.186 0-0.020-0.001-0.039-0.004-0.058l0 0.002c-0.001-0.006-0.002-0.013-0.002-0.020 0-0.032 0.012-0.061 0.032-0.083l-0 0c0.055-0.062 0.133-0.064 0.188-0.113 0.044-0.045 0.071-0.107 0.071-0.175 0-0.008-0-0.016-0.001-0.024l0 0.001c-0.012-0.087-0.077-0.157-0.162-0.175l-0.001-0c-0.066-0.013-0.198 0.052-0.224-0.067 0-0.001-0-0.001-0-0.002 0-0.040 0.019-0.075 0.049-0.096l0-0c0.059-0.064 0.143-0.104 0.236-0.104 0.003 0 0.007 0 0.010 0h-0c0.2 0.016 0.297 0.239 0.363 0.403 0.034 0.083 0.056 0.18 0.058 0.281l0 0.001c-0.068 0.433-0.264 0.81-0.547 1.104l0.001-0.001c-0.111 0.12-0.195 0.267-0.242 0.43l-0.002 0.008c-0.030 0.077-0.048 0.166-0.048 0.259 0 0.052 0.006 0.103 0.016 0.152l-0.001-0.005c0.024 0.118 0.068 0.222 0.129 0.314l-0.002-0.003c0.052 0.082 0.176 0.2 0.099 0.331-0.017 0.024-0.027 0.053-0.027 0.085 0 0.012 0.001 0.024 0.004 0.035l-0-0.001c0.016 0.037 0.048 0.065 0.087 0.077l0.001 0c0.144 0.052 0.104 0.118 0.066 0.24-0.018 0.050-0.029 0.108-0.029 0.168 0 0.039 0.004 0.077 0.013 0.114l-0.001-0.003c0.056 0.177 0.207 0.397 0.243 0.512s-0.019 0.226 0.010 0.336c0.016 0.053 0.035 0.098 0.060 0.141l-0.002-0.003c0.012 0.023 0.095 0.178 0.133 0.16l0.011-0.081 0.080-0.272c0.003-0.021 0.005-0.046 0.005-0.071 0-0.062-0.012-0.121-0.034-0.175l0.001 0.003c-0.006-0.014-0.010-0.031-0.010-0.048 0-0.020 0.005-0.039 0.013-0.056l-0 0.001c0.038-0.075 0.112-0.096 0.155-0.155 0.020-0.035 0.032-0.077 0.032-0.122 0-0.030-0.005-0.060-0.015-0.087l0.001 0.002c-0.032-0.076-0.106-0.128-0.192-0.128-0.004 0-0.007 0-0.011 0l0.001-0c-0.067 0.004-0.178 0.104-0.234-0.008-0.003-0.010-0.004-0.021-0.004-0.032 0-0.029 0.010-0.055 0.027-0.076l-0 0c0.044-0.081 0.12-0.139 0.21-0.16l0.002-0c0.198-0.036 0.347 0.155 0.451 0.298 0.055 0.074 0.099 0.16 0.126 0.253l0.001 0.006c0.007 0.062 0.011 0.134 0.011 0.208 0 0.366-0.096 0.71-0.265 1.006l0.005-0.010c-0.076 0.141-0.122 0.307-0.124 0.484v0.001c-0.003 0.023-0.004 0.050-0.004 0.077 0 0.118 0.028 0.23 0.078 0.328l-0.002-0.004c0.052 0.104 0.119 0.192 0.201 0.265l0.001 0.001c0.069 0.067 0.221 0.149 0.18 0.295-0.006 0.015-0.009 0.032-0.009 0.051 0 0.025 0.006 0.049 0.018 0.070l-0-0.001c0.025 0.031 0.062 0.051 0.103 0.052h0c0.155 0.016 0.128 0.089 0.125 0.216-0.001 0.013-0.002 0.027-0.002 0.042 0 0.084 0.021 0.164 0.058 0.234l-0.001-0.003c0.099 0.155 0.299 0.332 0.362 0.433s0.039 0.224 0.094 0.322c0.027 0.045 0.057 0.084 0.091 0.119l-0-0c0.018 0.019 0.137 0.148 0.169 0.121l-0.009-0.081 0.008-0.283c-0.009-0.087-0.041-0.164-0.089-0.229l0.001 0.001c-0.017-0.021-0.027-0.048-0.027-0.077 0-0.009 0.001-0.018 0.003-0.027l-0 0.001c0.018-0.081 0.084-0.121 0.108-0.191 0.005-0.019 0.009-0.042 0.009-0.065 0-0.053-0.017-0.103-0.045-0.143l0.001 0.001c-0.038-0.050-0.098-0.082-0.165-0.082-0.022 0-0.044 0.004-0.064 0.010l0.001-0c-0.064 0.021-0.147 0.144-0.228 0.052-0.010-0.017-0.016-0.038-0.016-0.061 0-0.018 0.004-0.035 0.011-0.050l-0 0.001c0.023-0.091 0.083-0.165 0.163-0.206l0.002-0.001c0.182-0.085 0.376 0.063 0.512 0.174 0.074 0.059 0.135 0.129 0.184 0.208l0.002 0.003c0.080 0.21 0.127 0.454 0.127 0.708 0 0.183-0.024 0.361-0.069 0.53l0.003-0.014c-0.019 0.075-0.030 0.162-0.030 0.25s0.011 0.175 0.031 0.258l-0.002-0.007c0.022 0.143 0.083 0.27 0.172 0.371l-0.001-0.001c0.073 0.084 0.16 0.153 0.258 0.205l0.005 0.002c0.084 0.047 0.251 0.089 0.249 0.24-0 0.004-0.001 0.009-0.001 0.014 0 0.039 0.015 0.074 0.039 0.1l-0-0c0.023 0.017 0.051 0.027 0.082 0.027 0.011 0 0.022-0.001 0.032-0.004l-0.001 0c0.152-0.024 0.146 0.052 0.176 0.177 0.017 0.097 0.061 0.183 0.123 0.251l-0-0c0.135 0.127 0.373 0.245 0.462 0.327s0.094 0.207 0.173 0.288c0.035 0.034 0.073 0.064 0.115 0.090l0.003 0.002c0.022 0.014 0.17 0.108 0.194 0.074l-0.030-0.076-0.064-0.276c-0.030-0.080-0.080-0.147-0.142-0.198l-0.001-0.001c-0.028-0.022-0.047-0.056-0.049-0.093v-0c-0.004-0.083 0.052-0.138 0.056-0.212 0-0 0-0 0-0 0-0.076-0.034-0.143-0.087-0.189l-0-0c-0.035-0.028-0.080-0.044-0.128-0.044-0.041 0-0.079 0.012-0.111 0.032l0.001-0c-0.056 0.036-0.104 0.176-0.207 0.108-0.022-0.022-0.035-0.052-0.035-0.085 0-0.007 0.001-0.013 0.002-0.019l-0 0.001c-0-0.002-0-0.004-0-0.006 0-0.095 0.041-0.179 0.106-0.238l0-0c0.155-0.128 0.38-0.035 0.539 0.039 0.092 0.042 0.171 0.096 0.238 0.162l-0-0c0.233 0.326 0.373 0.733 0.374 1.172v0c0.005 0.178 0.052 0.344 0.132 0.489l-0.003-0.006c0.045 0.102 0.109 0.188 0.186 0.258l0.001 0.001 0.137-0.182c-0.049-0.053-0.091-0.114-0.123-0.18l-0.002-0.004c-0.035-0.058-0.056-0.128-0.056-0.203 0-0.1 0.037-0.19 0.098-0.26l-0 0c0.077-0.084 0.132-0.104 0.173-0.075 0.055 0.037 0.007 0.117-0.012 0.181-0.005 0.017-0.008 0.037-0.008 0.058 0 0.069 0.032 0.13 0.082 0.169l0 0c0.017 0.014 0.037 0.025 0.059 0.033l0.002 0.001 0.351-0.466c-0.047-0.073-0.106-0.135-0.176-0.183l-0.002-0.001c-0.105-0.060-0.226-0.107-0.354-0.134l-0.008-0.001c-0.051-0.014-0.088-0.057-0.094-0.11l-0-0.001c-0.002-0.067-0.029-0.128-0.072-0.173l0 0c-0.020-0.008-0.044-0.013-0.069-0.013s-0.048 0.005-0.070 0.013l0.001-0c-0.13 0.040-0.163-0.173-0.196-0.248-0.049-0.113-0.116-0.21-0.197-0.292l0 0c-0.581-0.563-1.597-0.183-1.977-0.673-0.061-0.080-0.104-0.177-0.124-0.282l-0.001-0.004c-0.010-0.034-0.016-0.072-0.016-0.112 0-0.134 0.067-0.253 0.17-0.323l0.001-0.001c0.096-0.062 0.155-0.066 0.186-0.028 0.044 0.052-0.023 0.114-0.058 0.172-0.018 0.031-0.029 0.068-0.029 0.108 0 0.049 0.016 0.094 0.044 0.13l-0-0.001c0.045 0.058 0.115 0.095 0.193 0.095 0.018 0 0.036-0.002 0.052-0.006l-0.002 0c0.074-0.020 0.137-0.076 0.199 0 0.052 0.057 0.119 0.099 0.195 0.12l0.003 0.001c0.082 0.030 0.238 0.015 0.288 0.052 0.034 0.026 0.068 0.022 0.038-0.052-0.026-0.061-0.064-0.113-0.11-0.155l-0-0c-0.080-0.076-0.178-0.099-0.259-0.187s-0.091-0.279-0.215-0.411c-0.091-0.088-0.195-0.162-0.309-0.22l-0.007-0.003c-0.039-0.023-0.065-0.064-0.065-0.111 0-0.007 0.001-0.014 0.002-0.020l-0 0.001c0.004-0.018 0.007-0.039 0.007-0.060 0-0.046-0.012-0.089-0.032-0.127l0.001 0.001c-0.031-0.024-0.071-0.038-0.113-0.038-0.007 0-0.013 0-0.020 0.001l0.001-0c-0.136 0.006-0.113-0.207-0.127-0.29-0.018-0.123-0.058-0.233-0.115-0.332l0.002 0.004c-0.414-0.686-1.495-0.575-1.74-1.145-0.031-0.075-0.050-0.163-0.050-0.254 0-0.019 0.001-0.038 0.002-0.056l-0 0.002c-0-0.004-0-0.008-0-0.013 0-0.17 0.108-0.315 0.26-0.369l0.003-0.001c0.108-0.036 0.165-0.024 0.187 0.020 0.030 0.060-0.052 0.104-0.099 0.152-0.039 0.039-0.063 0.092-0.063 0.152 0 0.030 0.006 0.058 0.017 0.084l-0.001-0.001c0.037 0.084 0.117 0.143 0.212 0.148l0.001 0c0.077 0 0.152-0.039 0.193 0.052 0.037 0.070 0.092 0.127 0.159 0.166l0.002 0.001c0.072 0.052 0.226 0.075 0.265 0.125 0.026 0.034 0.060 0.038 0.052-0.040-0.011-0.067-0.035-0.126-0.069-0.178l0.001 0.002c-0.059-0.094-0.147-0.141-0.202-0.246s-0.018-0.293-0.104-0.452c-0.070-0.114-0.153-0.212-0.248-0.295l-0.002-0.001c-0.024-0.023-0.038-0.056-0.038-0.092 0-0.018 0.004-0.036 0.011-0.052l-0 0.001c0.019-0.036 0.030-0.078 0.030-0.123 0-0.022-0.003-0.044-0.008-0.064l0 0.002c-0.029-0.036-0.070-0.061-0.118-0.069l-0.001-0c-0.133-0.028-0.057-0.23-0.049-0.311 0.003-0.030 0.006-0.066 0.006-0.102 0-0.088-0.012-0.174-0.035-0.255l0.002 0.007c-0.229-0.774-1.301-0.941-1.393-1.554-0.004-0.026-0.006-0.057-0.006-0.088 0-0.080 0.014-0.156 0.039-0.227l-0.001 0.005c0.039-0.166 0.179-0.289 0.35-0.303l0.001-0c0.114-0.007 0.166 0.018 0.177 0.067 0.014 0.065-0.077 0.089-0.135 0.121-0.064 0.038-0.106 0.107-0.106 0.185 0 0.011 0.001 0.021 0.002 0.031l-0-0.001c0.014 0.094 0.080 0.169 0.167 0.197l0.002 0c0.075 0.019 0.155 0 0.174 0.097 0.019 0.080 0.058 0.149 0.113 0.203l0 0c0.057 0.066 0.2 0.13 0.225 0.189 0.017 0.039 0.049 0.052 0.058-0.026 0.001-0.013 0.002-0.029 0.002-0.045 0-0.051-0.009-0.101-0.025-0.147l0.001 0.003c-0.033-0.104-0.104-0.174-0.133-0.289s0.057-0.288 0.013-0.466c-0.040-0.133-0.097-0.249-0.169-0.354l0.003 0.004c-0.011-0.019-0.018-0.041-0.018-0.066 0-0.030 0.010-0.058 0.028-0.080l-0 0c0.042-0.046 0.068-0.107 0.069-0.174v-0c-0.011-0.046-0.068-0.082-0.097-0.097-0.121-0.062 0.004-0.238 0.032-0.315 0.039-0.099 0.062-0.214 0.062-0.335 0-0.004-0-0.009-0-0.013v0.001c-0.025-0.809-1.020-1.243-0.952-1.859 0.014-0.11 0.053-0.209 0.111-0.294l-0.002 0.002c0.067-0.126 0.197-0.21 0.347-0.21 0.024 0 0.047 0.002 0.070 0.006l-0.002-0c0.112 0.022 0.155 0.060 0.155 0.109-0.003 0.067-0.096 0.066-0.161 0.083-0.083 0.024-0.145 0.094-0.155 0.18l-0 0.001c-0.001 0.008-0.002 0.018-0.002 0.027 0 0.087 0.045 0.163 0.113 0.206l0.001 0.001c0.067 0.037 0.151 0.040 0.143 0.138-0 0.004-0 0.008-0 0.013 0 0.078 0.022 0.151 0.059 0.214l-0.001-0.002c0.038 0.078 0.161 0.177 0.169 0.239 0.006 0.042 0.034 0.063 0.063-0.010 0.018-0.046 0.028-0.099 0.028-0.155 0-0.011-0-0.022-0.001-0.033l0 0.001c-0.005-0.11-0.059-0.195-0.055-0.311s0.128-0.264 0.131-0.445c-0.005-0.138-0.030-0.268-0.075-0.389l0.003 0.009c-0.003-0.011-0.005-0.023-0.005-0.036 0-0.042 0.020-0.078 0.050-0.102l0-0c0.053-0.035 0.093-0.087 0.11-0.149l0-0.002c-0.008-0.048-0.033-0.090-0.069-0.118l-0-0c-0.104-0.090 0.064-0.229 0.111-0.296 0.065-0.090 0.116-0.195 0.146-0.309l0.001-0.007c0.18-0.784-0.673-1.455-0.452-2.035 0.041-0.101 0.103-0.186 0.179-0.254l0.001-0.001c0.072-0.079 0.175-0.128 0.29-0.128 0.060 0 0.116 0.013 0.167 0.037l-0.002-0.001c0.104 0.052 0.136 0.097 0.121 0.144-0.020 0.064-0.11 0.040-0.177 0.039-0.089 0.002-0.164 0.057-0.196 0.135l-0.001 0.001c-0.010 0.026-0.016 0.055-0.016 0.086 0 0.065 0.026 0.125 0.068 0.169l-0-0c0.055 0.052 0.136 0.078 0.104 0.17-0.011 0.035-0.017 0.075-0.017 0.116s0.006 0.081 0.017 0.119l-0.001-0.003c0.017 0.085 0.111 0.211 0.104 0.274-0.005 0.042 0.017 0.069 0.063 0.006 0.035-0.049 0.061-0.108 0.073-0.171l0-0.003c0.023-0.108-0.007-0.204 0.026-0.317s0.191-0.223 0.239-0.398c0.020-0.084 0.031-0.18 0.031-0.279 0-0.038-0.002-0.075-0.005-0.112l0 0.005c-0-0.001-0-0.002-0-0.003 0-0.053 0.032-0.099 0.078-0.118l0.001-0c0.062-0.021 0.113-0.063 0.145-0.116l0.001-0.001c0.001-0.006 0.001-0.012 0.001-0.019 0-0.043-0.014-0.082-0.038-0.114l0 0c-0.076-0.113 0.12-0.207 0.182-0.259 0.089-0.074 0.163-0.163 0.22-0.264l0.002-0.005c0.372-0.713-0.282-1.578 0.079-2.083 0.063-0.084 0.143-0.152 0.235-0.199l0.004-0.002c0.060-0.040 0.134-0.063 0.213-0.063 0.095 0 0.182 0.034 0.25 0.090l-0.001-0.001c0.086 0.074 0.107 0.128 0.080 0.171-0.035 0.056-0.117 0.010-0.181-0.007-0.015-0.004-0.033-0.006-0.051-0.006-0.071 0-0.134 0.034-0.173 0.087l-0 0.001c-0.029 0.040-0.046 0.089-0.046 0.143 0 0.043 0.011 0.083 0.030 0.117l-0.001-0.001c0.040 0.065 0.112 0.109 0.057 0.191-0.038 0.061-0.060 0.136-0.060 0.215 0 0.003 0 0.006 0 0.010v-0c-0.005 0.087 0.052 0.233 0.030 0.292-0.016 0.040 0 0.071 0.060 0.022 0.048-0.041 0.087-0.090 0.114-0.147l0.001-0.003 0.104-0.3s0.241-0.167 0.332-0.324c0.057-0.106 0.1-0.229 0.123-0.359l0.001-0.008c0.012-0.051 0.054-0.090 0.106-0.098l0.001-0c0.067-0.004 0.126-0.033 0.17-0.077v0c0.008-0.020 0.013-0.044 0.013-0.069s-0.005-0.048-0.013-0.070l0 0.001c-0.045-0.128 0.168-0.168 0.242-0.204 0.11-0.052 0.204-0.121 0.283-0.204l0-0c0.542-0.596 0.128-1.599 0.605-1.996 0.079-0.064 0.173-0.11 0.277-0.133l0.004-0.001c0.037-0.013 0.079-0.020 0.123-0.020 0.13 0 0.246 0.064 0.317 0.162l0.001 0.001c0.065 0.094 0.070 0.151 0.035 0.185-0.049 0.046-0.115-0.020-0.173-0.052-0.030-0.016-0.065-0.026-0.102-0.026-0.052 0-0.099 0.018-0.136 0.048l0-0c-0.054 0.045-0.089 0.113-0.089 0.189 0 0.021 0.003 0.041 0.007 0.060l-0-0.002c0.022 0.074 0.081 0.134 0.007 0.199-0.055 0.053-0.096 0.122-0.114 0.199l-0.001 0.003c-0.027 0.083-0.007 0.238-0.045 0.289-0.025 0.034-0.020 0.069 0.052 0.036 0.059-0.029 0.109-0.068 0.149-0.115l0.001-0.001c0.074-0.082 0.094-0.181 0.178-0.264s0.276-0.1 0.404-0.229c0.084-0.093 0.156-0.2 0.21-0.316l0.003-0.008c0.022-0.041 0.065-0.068 0.113-0.068 0.005 0 0.011 0 0.016 0.001l-0.001-0c0.015 0.003 0.033 0.005 0.051 0.005 0.049 0 0.095-0.013 0.135-0.037l-0.001 0.001c0.017-0.028 0.027-0.062 0.027-0.098 0-0.016-0.002-0.032-0.006-0.047l0 0.001c-0.010-0.136 0.207-0.12 0.285-0.136 0.123-0.023 0.232-0.066 0.329-0.127l-0.004 0.002c0.673-0.439 0.528-1.514 1.091-1.777 0.081-0.037 0.175-0.058 0.274-0.058 0.011 0 0.023 0 0.034 0.001l-0.002-0c0.008-0.001 0.016-0.001 0.025-0.001 0.166 0 0.307 0.103 0.365 0.248l0.001 0.003c0.039 0.107 0.030 0.165-0.013 0.188-0.059 0.032-0.107-0.048-0.155-0.094-0.038-0.036-0.090-0.058-0.147-0.058-0.032 0-0.063 0.007-0.090 0.020l0.001-0.001c-0.083 0.039-0.14 0.122-0.141 0.217v0c0.003 0.077 0.044 0.15-0.043 0.194-0.069 0.039-0.124 0.096-0.161 0.164l-0.001 0.002c-0.047 0.074-0.067 0.229-0.117 0.269-0.033 0.027-0.036 0.062 0.041 0.048 0.066-0.013 0.125-0.039 0.175-0.075l-0.001 0.001c0.092-0.061 0.136-0.151 0.239-0.207s0.292-0.027 0.448-0.119c0.111-0.073 0.206-0.159 0.286-0.257l0.002-0.002c0.024-0.026 0.057-0.041 0.095-0.041 0.017 0 0.033 0.003 0.048 0.009l-0.001-0c0.034 0.017 0.073 0.026 0.115 0.026 0.025 0 0.050-0.004 0.073-0.010l-0.002 0c0.035-0.030 0.059-0.072 0.065-0.12l0-0.001c0.024-0.134 0.228-0.064 0.311-0.060 0.021 0.002 0.046 0.003 0.071 0.003 0.1 0 0.197-0.016 0.288-0.045l-0.007 0.002c0.77-0.255 0.902-1.332 1.512-1.443 0.020-0.003 0.043-0.005 0.067-0.005 0.209 0 0.382 0.154 0.413 0.354l0 0.002c0.010 0.114-0.013 0.167-0.061 0.179-0.065 0.016-0.091-0.074-0.126-0.131-0.039-0.061-0.106-0.1-0.182-0.1-0.013 0-0.025 0.001-0.037 0.003l0.001-0c-0.093 0.017-0.166 0.085-0.192 0.173l-0 0.002c-0.017 0.075 0.004 0.155-0.092 0.177-0.079 0.021-0.146 0.063-0.199 0.119l-0 0c-0.064 0.059-0.123 0.204-0.181 0.23-0.039 0.018-0.052 0.052 0.028 0.057 0.009 0.001 0.020 0.001 0.031 0.001 0.056 0 0.11-0.010 0.159-0.030l-0.003 0.001c0.104-0.036 0.17-0.111 0.285-0.142 0.17-0.046 0.287 0.022 0.53-0.137 0.020-0.013 0.043-0.020 0.069-0.020 0.029 0 0.055 0.009 0.076 0.025l-0-0c0.046 0.040 0.106 0.064 0.172 0.064 0.001 0 0.003 0 0.004-0h-0c0.045-0.012 0.080-0.071 0.094-0.1 0.057-0.123 0.176 0.013 0.254 0.039 0.029 0.012 0.063 0.020 0.099 0.020 0.076 0 0.145-0.033 0.192-0.086l0-0z"></path>
<path fill="#ffeb00" d="M16 2.64c-0.26 0.002-0.483-0.146-0.532-0.564-0.041-0.368-0.012-0.761-0.466-0.697 0.067-0.347 0.415-0.367 0.65-0.248l0.001 0.002c-0.028-0.054-0.044-0.115-0.044-0.18 0-0.216 0.175-0.391 0.391-0.391s0.391 0.175 0.391 0.391c0 0.065-0.016 0.126-0.043 0.178 0.236-0.119 0.583-0.1 0.65 0.248-0.454-0.065-0.424 0.328-0.466 0.697-0.049 0.419-0.272 0.564-0.531 0.564zM16 2.202c0.002 0 0.005 0 0.008 0 0.104 0 0.189-0.083 0.193-0.187v-0c0.043-0.047 0.069-0.11 0.069-0.179 0-0.148-0.12-0.269-0.269-0.269s-0.269 0.12-0.269 0.269c0 0.069 0.026 0.132 0.069 0.18l-0-0c0.003 0.104 0.088 0.187 0.193 0.187 0.003 0 0.005-0 0.008-0h-0z"></path>
<path fill="#ffeb00" d="M25.519 28.519l-0.108 0.081-1.61-2.136 0.108-0.081 1.61 2.136z"></path>
<path fill="#ffeb00" d="M22.446 28.191l0.375-0.226 0.036 0.061c-0.034 0.013-0.058 0.045-0.058 0.083 0 0.022 0.008 0.042 0.021 0.057l-0-0 0.16 0.265 0.585-0.352-0.16-0.265c-0.013-0.033-0.045-0.056-0.082-0.056-0.023 0-0.044 0.009-0.059 0.023l0-0-0.037-0.061 0.375-0.226 0.037 0.061c-0.056 0.034-0.076 0.076-0.040 0.136l0.488 0.811c0.039 0.066 0.077 0.075 0.143 0.035l0.037 0.061-0.375 0.226-0.037-0.061c0.068-0.041 0.075-0.078 0.037-0.141l-0.269-0.447-0.585 0.352 0.27 0.448c0.038 0.063 0.074 0.073 0.141 0.033l0.037 0.061-0.375 0.226-0.037-0.061c0.068-0.041 0.075-0.077 0.037-0.14l-0.486-0.807c-0.013-0.034-0.046-0.058-0.084-0.058-0.023 0-0.043 0.008-0.059 0.022l0-0z"></path>
<path fill="#ffeb00" d="M21.092 30.107c0.054-0.020 0.092-0.072 0.092-0.132 0-0.004-0-0.009-0.001-0.013l0 0.001 0.037-0.988c0-0.004 0-0.009 0-0.014 0-0.076-0.037-0.143-0.094-0.184l-0.001-0 0.233-0.096 0.893 0.837c0.025 0.034 0.066 0.056 0.111 0.056 0.022 0 0.042-0.005 0.060-0.014l-0.001 0 0.027 0.066-0.405 0.166-0.027-0.065c0.068-0.028 0.047-0.071 0.008-0.107l-0.132-0.124-0.589 0.242-0.007 0.183c0 0.052 0.023 0.092 0.085 0.066l0.027 0.065-0.292 0.12-0.027-0.066zM21.804 29.411l-0.47-0.441-0.024 0.644z"></path>
<path fill="#ffeb00" d="M20.25 29.123l0.16 0.229-0.062 0.035c-0.096-0.138-0.242-0.11-0.387-0.070l-0.1 0.027 0.262 0.97c0.019 0.070 0.052 0.091 0.127 0.070l0.019 0.068-0.423 0.114-0.019-0.068c0.079-0.021 0.093-0.055 0.074-0.127l-0.259-0.967-0.1 0.027c-0.143 0.038-0.286 0.090-0.299 0.256h-0.071l0.023-0.279z"></path>
<path fill="#ffeb00" d="M18.52 30.506l0.077 0.274-0.068 0.019c-0.023-0.081-0.052-0.119-0.139-0.038-0.090 0.084-0.202 0.144-0.327 0.172l-0.005 0.001c-0.049 0.013-0.105 0.020-0.163 0.020-0.368 0-0.666-0.298-0.666-0.666 0-0.328 0.236-0.6 0.548-0.656l0.004-0.001c0.044-0.010 0.095-0.016 0.146-0.016 0.087 0 0.171 0.016 0.248 0.046l-0.005-0.002c0.089 0.033 0.097 0 0.085-0.074l0.070-0.011 0.047 0.292h-0.071c-0.089-0.088-0.212-0.143-0.348-0.143-0.035 0-0.068 0.004-0.101 0.010l0.003-0.001c-0.23 0.070-0.394 0.28-0.394 0.528 0 0.304 0.246 0.55 0.55 0.55 0.025 0 0.050-0.002 0.075-0.005l-0.003 0c0.166-0.038 0.299-0.157 0.356-0.311l0.001-0.003z"></path>
<path fill="#ffeb00" d="M15.664 30.643v0.239c0 0.075 0.028 0.104 0.104 0.104v0.071h-0.438v-0.071c0.075 0 0.104-0.028 0.104-0.104v-0.939c0-0.073-0.030-0.104-0.104-0.104v-0.071h0.734c0.242 0 0.437 0.196 0.437 0.437s-0.196 0.437-0.437 0.437zM15.95 30.531c0.179 0 0.324-0.145 0.324-0.324s-0.145-0.324-0.324-0.324v0h-0.287v0.65z"></path>
<path fill="#ffeb00" d="M13.079 30.716c0.008 0.002 0.017 0.002 0.026 0.002 0.055 0 0.103-0.032 0.126-0.079l0-0.001 0.537-0.829c0.025-0.036 0.039-0.080 0.039-0.127 0-0.033-0.007-0.064-0.020-0.093l0.001 0.001 0.25 0.037 0.339 1.176c0.020 0.070 0.043 0.112 0.124 0.124l-0.010 0.070-0.433-0.064 0.010-0.070c0.072 0.011 0.076-0.037 0.062-0.089l-0.052-0.174-0.63-0.093-0.1 0.155c-0.029 0.045-0.027 0.091 0.040 0.101l-0.010 0.070-0.311-0.046zM14.046 30.482l-0.179-0.619-0.35 0.541z"></path>
<path fill="#ffeb00" d="M12.757 29.397l0.021 0.279h-0.071c-0.013-0.168-0.155-0.218-0.298-0.259l-0.1-0.027-0.267 0.968c-0.019 0.070 0 0.104 0.074 0.125l-0.019 0.068-0.422-0.116 0.019-0.068c0.078 0.022 0.108 0 0.128-0.072l0.266-0.966-0.1-0.027c-0.142-0.039-0.292-0.068-0.388 0.069l-0.062-0.036 0.161-0.229z"></path>
<path fill="#ffeb00" d="M9.335 29.439c0.018 0.009 0.039 0.014 0.062 0.014 0.042 0 0.080-0.019 0.106-0.048l0-0 0.737-0.659c0.049-0.042 0.080-0.103 0.080-0.172 0-0.012-0.001-0.024-0.003-0.036l0 0.001 0.231 0.104 0.017 1.223c0 0.073 0.012 0.119 0.088 0.152l-0.028 0.065-0.401-0.176 0.028-0.065c0.067 0.030 0.083-0.016 0.083-0.069v-0.181l-0.583-0.256-0.137 0.122c-0.040 0.036-0.052 0.081 0.012 0.108l-0.028 0.065-0.288-0.127zM10.33 29.468l-0.009-0.644-0.48 0.429z"></path>
<path fill="#ffeb00" d="M9.294 28.040l-0.052 0.274-0.068-0.020c0.033-0.166-0.090-0.251-0.219-0.327l-0.090-0.052-0.514 0.863c-0.037 0.062-0.030 0.1 0.038 0.14l-0.036 0.061-0.376-0.224 0.036-0.061c0.070 0.041 0.104 0.028 0.142-0.035l0.513-0.861-0.090-0.052c-0.127-0.076-0.263-0.143-0.392-0.037l-0.052-0.052 0.216-0.178z"></path>
<path fill="#ffeb00" d="M6.481 28.52l0.108 0.081 1.61-2.136-0.108-0.081-1.61 2.137z"></path>
<path fill="#000" d="M10.924 10.526c0.245 0.1 0.414 0.337 0.414 0.613 0 0.005-0 0.010-0 0.015v-0.001 0.025c0.601 0.433 1.081 0.998 1.404 1.654l0.012 0.026 0.14 0.344c0.122 0.34 0.268 0.633 0.443 0.906l-0.011-0.018c0.113 0.184 0.25 0.339 0.411 0.468l0.004 0.003 0.028 0.018c0.090-0.509 0.141-1.096 0.141-1.694 0-0.851-0.104-1.677-0.299-2.467l0.015 0.070c-0.208-0.979-0.686-1.825-1.351-2.481l-0.001-0.001c-0.485-0.397-0.984-0.432-1.332-0.093l-0.060 0.059-0.011-0.083c-0.008-0.038-0.012-0.083-0.012-0.128 0-0.245 0.13-0.46 0.324-0.581l0.003-0.002c0.181-0.093 0.395-0.148 0.621-0.148 0.293 0 0.565 0.091 0.789 0.247l-0.005-0.003c0.253 0.173 0.467 0.383 0.639 0.624l0.005 0.008c-0.222-0.768-0.244-1.515 0.265-2.092 0.176-0.22 0.438-0.364 0.733-0.383l0.003-0c0.245 0.008 0.461 0.125 0.601 0.304l0.001 0.002 0.070 0.080-0.106-0.010c-0.042-0.008-0.091-0.012-0.141-0.012-0.223 0-0.425 0.091-0.57 0.237l-0 0c-0.166 0.241-0.266 0.539-0.266 0.861 0 0.149 0.021 0.293 0.061 0.429l-0.003-0.011c0.084 0.344 0.203 0.647 0.357 0.928l-0.010-0.020 0.078 0.167c0.108 0.231 0.189 0.431 0.268 0.647 0-0.781 0.118-1.7 0.822-1.882 0.066-0.025 0.143-0.039 0.223-0.039 0.243 0 0.455 0.134 0.567 0.332l0.002 0.003 0.034 0.069-0.077-0.008c-0.043-0.010-0.093-0.016-0.143-0.016-0.195 0-0.37 0.084-0.491 0.219l-0.001 0.001c-0.387 0.486-0.066 1.733 0.305 2.848v-0.082c0-0.001 0-0.001 0-0.002 0-0.35 0.055-0.686 0.157-1.002l-0.006 0.023c0.106-0.306 0.379-0.526 0.708-0.553l0.003-0c0.019-0.002 0.040-0.003 0.062-0.003 0.232 0 0.434 0.129 0.539 0.319l0.002 0.003 0.037 0.072-0.080-0.011c-0.042-0.010-0.091-0.015-0.141-0.015-0.149 0-0.286 0.049-0.397 0.131l0.002-0.001c-0.15 0.151-0.243 0.36-0.243 0.59 0 0.011 0 0.022 0.001 0.033l-0-0.002c-0.001 0.028-0.002 0.061-0.002 0.094 0 0.156 0.014 0.309 0.041 0.457l-0.002-0.015 0.065 0.303c0.052 0.22 0.119 0.524 0.186 0.88 0.012-0.326 0.157-0.617 0.381-0.82l0.001-0.001c0.108-0.084 0.246-0.135 0.396-0.135 0.058 0 0.114 0.008 0.168 0.022l-0.005-0.001c0.195 0.027 0.347 0.181 0.371 0.374l0 0.002 0.009 0.069-0.065-0.024c-0.051-0.025-0.11-0.039-0.173-0.039-0.066 0-0.128 0.016-0.183 0.044l0.002-0.001c-0.13 0.103-0.213 0.258-0.218 0.434v0.001c-0.002 0.041-0.003 0.090-0.003 0.139 0 0.303 0.043 0.595 0.122 0.872l-0.005-0.022 0.036 0.171c0.029 0.132 0.053 0.295 0.068 0.46l0.001 0.016c0.079-0.262 0.318-0.45 0.601-0.45 0.017 0 0.034 0.001 0.051 0.002l-0.002-0c0.183 0.007 0.331 0.149 0.347 0.329l0 0.001v0.065l-0.059-0.027c-0.049-0.030-0.108-0.047-0.171-0.047-0.029 0-0.058 0.004-0.085 0.011l0.002-0.001c-0.060 0.030-0.105 0.083-0.124 0.147l-0 0.002c-0.020 0.091-0.032 0.196-0.032 0.304s0.012 0.212 0.033 0.313l-0.002-0.010 0.032 0.327 0.039-0.023c0.181-0.112 0.354-0.235 0.518-0.353 0.508-0.444 1.163-0.732 1.884-0.782l0.010-0.001c0.015-0 0.032-0 0.049-0 0.607 0 1.177 0.158 1.671 0.435l-0.017-0.009 0.211 0.124c0.3 0.201 0.646 0.374 1.012 0.502l0.032 0.010c0.058 0.014 0.124 0.022 0.192 0.022 0.159 0 0.307-0.044 0.433-0.12l-0.004 0.002c0.092-0.058 0.156-0.153 0.17-0.264l0-0.002c0.091-0.764-0.621-1.311-0.935-1.511-0.863-0.553-1.593-0.952-2.459-1.417-0.843-0.353-1.503-1-1.865-1.81l-0.009-0.022c-0.102-0.253-0.162-0.547-0.162-0.855 0-0.455 0.13-0.88 0.355-1.24l-0.006 0.010c0.239-0.362 0.542-0.548 0.773-0.466 0.172 0.061 0.259 0.255 0.235 0.518-0.040 0.218-0.105 0.412-0.192 0.592l0.006-0.014-0.021 0.052c-0.030 0.094-0.047 0.202-0.047 0.315 0 0.272 0.1 0.52 0.264 0.71l-0.001-0.001c0.555 0.537 1.197 0.989 1.901 1.333l0.044 0.019 0.109 0.059 0.484 0.255c0.472 0.234 0.864 0.461 1.241 0.71l-0.043-0.027c0.606 0.392 1.075 0.949 1.349 1.607l0.009 0.023c0.283 0.705 0.42 1.684-0.532 2.347-0.414 0.288-0.379 0.49-0.293 0.976 0.073 0.336 0.115 0.721 0.115 1.117 0 0.224-0.013 0.445-0.040 0.663l0.003-0.026-0.014 0.104c-0.061 0.377-0.104 0.825-0.121 1.281l-0.001 0.020-0.003 0.1c-0.005 0.051-0.008 0.111-0.008 0.171 0 0.179 0.025 0.351 0.073 0.515l-0.003-0.013c0.048 0.121 0.104 0.226 0.17 0.323l-0.004-0.006 0.093 0.155c0.065 0.097 0.104 0.216 0.104 0.344 0 0.036-0.003 0.070-0.009 0.104l0-0.004-0.010 0.021c-0.124 0.294-0.248 0.538-0.388 0.773l0.016-0.029c-0.088 0.144-0.191 0.292-0.299 0.448l-0.222 0.325c-0.092 0.141-0.193 0.335-0.282 0.507l-0.085 0.162c-0.073 0.137-0.095 0.227-0.068 0.275s0.092 0.064 0.204 0.068h0.071l-0.036 0.061c-0.096 0.15-0.261 0.248-0.449 0.248-0.035 0-0.069-0.003-0.103-0.010l0.003 0.001c-0.166 0.402-0.545 0.684-0.993 0.707l-0.003 0-0.123 0.026c-0.092 0.020-0.186 0.052-0.278 0.079-0.094 0.034-0.209 0.066-0.327 0.089l-0.017 0.003c-0.427 0.073-0.511 0.029-0.546-0.104l-0.008-0.026c-0.012-0.034-0.052-0.062-0.092-0.086-0.046-0.030-0.092-0.061-0.096-0.111-0-0.003-0.001-0.006-0.001-0.009s0-0.007 0.001-0.010l-0 0c-0.088-0.032-0.16-0.092-0.206-0.169l-0.001-0.002c-0.016-0.029-0.026-0.063-0.026-0.1 0-0.005 0-0.010 0-0.014l-0 0.001c-0.083-0.022-0.147-0.089-0.165-0.172l-0-0.002c-0-0.006-0.001-0.012-0.001-0.019 0-0.086 0.046-0.161 0.115-0.201l0.001-0.001 0.034-0.023 0.221-0.155 0.114-0.104c0.104-0.104 0.214-0.207 0.353-0.191l0.247 0.038c0.136 0.040 0.293 0.063 0.455 0.063 0.142 0 0.279-0.018 0.411-0.051l-0.012 0.002c0.183-0.14 0.325-0.324 0.411-0.537l0.003-0.009c0.273-0.476 0.467-1.033 0.547-1.627l0.003-0.023c0.002-0.024 0.003-0.052 0.003-0.080 0-0.264-0.083-0.508-0.224-0.709l0.003 0.004c-0.056-0.096-0.116-0.213-0.17-0.333l-0.009-0.024c-0.075-0.16-0.155-0.295-0.244-0.424l0.006 0.009-0.122-0.193-0.142-0.238c-0.094-0.155-0.185-0.308-0.273-0.461-0.195 0.338-0.31 0.743-0.31 1.176 0 0.112 0.008 0.223 0.023 0.331l-0.001-0.012c0.001 0.008 0.001 0.017 0.001 0.027 0 0.177-0.114 0.327-0.272 0.381l-0.003 0.001c-0.125 0.068-0.232 0.138-0.333 0.215l0.006-0.004-0.145 0.104c-0.446 0.305-0.835 0.61-1.202 0.938l0.011-0.010c-0.062 0.051-0.101 0.128-0.101 0.213 0 0.008 0 0.016 0.001 0.024l-0-0.001c0.007 0.071 0.045 0.132 0.1 0.17l0.001 0 0.068 0.040-0.071 0.035c-0.054 0.032-0.119 0.050-0.188 0.050-0.038 0-0.074-0.006-0.108-0.016l0.003 0.001c-0.068-0.027-0.122-0.076-0.155-0.138l-0.001-0.002c-0.071 0.056-0.13 0.125-0.171 0.204l-0.002 0.003c-0.045 0.081-0.1 0.151-0.165 0.21l-0.001 0-0.035 0.029c-0.079 0.075-0.174 0.136-0.279 0.176l-0.006 0.002c-0.114 0.033-0.246 0.053-0.381 0.055h-0.001l-0.086 0.005c-0.147 0.011-0.284 0.038-0.415 0.079l0.013-0.003c-0.072 0.028-0.155 0.043-0.242 0.043-0.023 0-0.046-0.001-0.068-0.003l0.003 0c-0.105-0.013-0.2-0.041-0.288-0.081l0.006 0.003-0.034-0.017c-0.11-0.052-0.287-0.142-0.252-0.297-0.017-0.009-0.032-0.019-0.046-0.030l0.001 0c-0.045-0.035-0.128-0.12-0.124-0.189v-0.012c-0.088-0.024-0.151-0.103-0.151-0.196 0-0.005 0-0.010 0.001-0.015l-0 0.001c0.044-0.113 0.117-0.206 0.21-0.274l0.002-0.001 0.094-0.091 0.032-0.035c0.079-0.116 0.202-0.197 0.345-0.219l0.003-0c0.022-0.002 0.048-0.003 0.074-0.003 0.103 0 0.203 0.016 0.296 0.047l-0.007-0.002c0.181 0.066 0.39 0.104 0.608 0.104 0.011 0 0.022-0 0.033-0l-0.002 0c0.010 0.001 0.021 0.001 0.032 0.001 0.132 0 0.252-0.052 0.342-0.136l-0 0 0.024-0.025c0.434-0.466 0.845-0.907 1.259-1.392 0.502-0.587 0.19-1.316-0.112-2.020l-0.012-0.028c-0.083-0.195-0.168-0.441-0.239-0.692l-0.011-0.047-0.031-0.104c-0.365 0.277-0.684 0.583-0.965 0.923l-0.008 0.010c-0.293 0.343-0.602 0.651-0.935 0.933l-0.012 0.010c-0.834 0.748-1.943 1.206-3.158 1.206-0.203 0-0.404-0.013-0.6-0.038l0.023 0.002-0.014 0.169c-0.012 0.252-0.086 0.485-0.208 0.686l0.004-0.006-0.075 0.151c-0.108 0.224-0.318 0.655-0.524 1.012-0.212 0.325-0.396 0.699-0.534 1.095l-0.011 0.036c-0.011 0.029-0.017 0.063-0.017 0.098 0 0.058 0.017 0.112 0.046 0.157l-0.001-0.001c0.040 0.049 0.101 0.080 0.169 0.080 0.004 0 0.009-0 0.013-0l-0.001 0h0.073l-0.037 0.063c-0.061 0.123-0.186 0.207-0.33 0.207-0.076 0-0.146-0.023-0.205-0.063l0.001 0.001c-0.077 0.2-0.191 0.37-0.336 0.509l-0 0c-0.131 0.117-0.282 0.214-0.447 0.285l-0.011 0.004c-0.090 0.036-0.195 0.059-0.304 0.063l-0.002 0c-0.084 0.006-0.161 0.017-0.237 0.033l0.011-0.002-0.275 0.074c-0.182 0.067-0.392 0.108-0.611 0.113l-0.002 0c-0.136-0.010-0.316-0.039-0.385-0.155-0.036-0-0.069-0.011-0.097-0.030l0.001 0c-0.068-0.049-0.118-0.117-0.145-0.197l-0.001-0.003c-0.068-0.032-0.12-0.088-0.147-0.157l-0.001-0.002c-0.007-0.017-0.013-0.037-0.016-0.057l-0-0.001c-0.077-0.027-0.134-0.093-0.146-0.174l-0-0.001c-0.007-0.023-0.010-0.049-0.010-0.076 0-0.087 0.039-0.165 0.101-0.217l0-0-0.007 0.006c0.466-0.476 0.866-0.488 0.96-0.439 0.187 0.122 0.416 0.194 0.662 0.194 0.073 0 0.144-0.006 0.214-0.019l-0.007 0.001c0.117-0.037 0.21-0.119 0.261-0.224l0.001-0.003c0.124-0.297 0.233-0.648 0.309-1.012l0.007-0.039c0.061-0.244 0.123-0.498 0.196-0.759l0.092-0.317c0.092-0.276 0.18-0.621 0.246-0.973l0.008-0.052c0.008-0.057 0.012-0.122 0.012-0.189 0-0.076-0.006-0.151-0.017-0.224l0.001 0.008c-0.127-0.027-0.239-0.079-0.336-0.151l0.002 0.002c-0.159 0.095-0.351 0.151-0.557 0.151-0.018 0-0.037-0-0.055-0.001l0.003 0c-0.465-0.094-0.877-0.262-1.247-0.491l0.016 0.009-0.363-0.183c-0.199-0.098-0.392-0.212-0.561-0.311-0.359-0.213-0.669-0.397-0.844-0.311-0.102 0.052-0.178 0.141-0.212 0.25l-0.001 0.003-0.032 0.089-0.045-0.084c-0.041-0.072-0.065-0.158-0.065-0.249v-0c0.001-0.072 0.015-0.14 0.040-0.202l-0.001 0.004c-0.057-0.014-0.122-0.022-0.189-0.022-0.037 0-0.073 0.002-0.109 0.007l0.004-0c-0.172 0.030-0.316 0.134-0.399 0.277l-0.001 0.003c-0.029 0.077-0.046 0.167-0.046 0.26 0 0.047 0.004 0.092 0.012 0.137l-0.001-0.005 0.008 0.132c0 0 0 0 0 0 0 0.069-0.023 0.132-0.061 0.183l0.001-0.001c-0.047 0.067-0.124 0.111-0.21 0.114h-0c-0.023 0.076-0.065 0.14-0.121 0.188l-0 0c-0.039 0.038-0.092 0.061-0.15 0.061-0.004 0-0.007-0-0.011-0l0 0c-0.031 0.062-0.090 0.106-0.16 0.115l-0.001 0c-0.004 0-0.009 0-0.014 0-0.1 0-0.189-0.048-0.244-0.123l-0.001-0.001c-0.12-0.174-0.193-0.389-0.198-0.62l-0-0.001c0.006-0.404 0.178-0.766 0.451-1.023l0.001-0.001 0.064-0.071c0.104-0.136 0.236-0.246 0.388-0.322l0.006-0.003c0.215-0.089 0.464-0.156 0.725-0.189l0.015-0.002c0.097-0.011 0.21-0.017 0.324-0.017 0.152 0 0.302 0.011 0.449 0.031l-0.017-0.002c0.277 0.035 0.556 0.089 0.829 0.141 0.341 0.078 0.752 0.14 1.172 0.173l0.031 0.002-0.016-0.127c-0.017-0.207-0.070-0.916-0.071-1.207v-0.466c0.006-0.092 0.009-0.199 0.009-0.307 0-0.344-0.034-0.679-0.1-1.004l0.005 0.032c-0.141-0.562-0.461-1.17-0.932-1.191-0.078 0.024-0.146 0.061-0.205 0.11l0.001-0.001c-0.154 0.139-0.359 0.224-0.584 0.224-0.043 0-0.086-0.003-0.128-0.009l0.005 0.001c-0.163-0.071-0.297-0.181-0.396-0.318l-0.002-0.003c-0.027-0.029-0.044-0.068-0.044-0.112 0-0.016 0.002-0.031 0.006-0.045l-0 0.001c0.030-0.067 0.124-0.104 0.307-0.119 0.23-0.020 0.378-0.076 0.384-0.146 0.001-0.008 0.001-0.018 0.001-0.028 0-0.117-0.076-0.217-0.181-0.253l-0.002-0.001c-0.011-0.001-0.023-0.002-0.035-0.002-0.082 0-0.158 0.028-0.218 0.076l0.001-0.001c-0.071 0.054-0.162 0.087-0.26 0.087-0.018 0-0.036-0.001-0.053-0.003l0.002 0c-0.139-0.035-0.253-0.121-0.325-0.237l-0.001-0.002c-0.032-0.053-0.051-0.118-0.052-0.187v-0c0.001-0.023 0.004-0.046 0.009-0.067l-0 0.002c-0.048-0.043-0.077-0.106-0.077-0.175 0-0.004 0-0.008 0-0.011l-0 0.001v-0.070c0-0.169 0.121-0.259 0.25-0.355l0.052-0.038c0.122-0.093 0.207-0.155 0.296-0.217 0.081-0.053 0.175-0.096 0.275-0.124l0.007-0.002c0.079-0.021 0.148-0.052 0.211-0.090l-0.004 0.002c0.078-0.060 0.146-0.127 0.205-0.201l0.002-0.002c0.073-0.096 0.162-0.176 0.264-0.238l0.004-0.002c0.221-0.081 0.476-0.129 0.741-0.129 0.124 0 0.245 0.010 0.364 0.030l-0.013-0.002c0.051-0.060 0.105-0.113 0.164-0.161l0.002-0.002c0.094-0.089 0.222-0.143 0.362-0.143 0.031 0 0.062 0.003 0.091 0.008l-0.003-0z"></path>
<path fill="#fff" d="M11.908 19.596c-0.298-0.227-0.557-0.482-0.78-0.768l-0.007-0.009c-0.225-0.276-0.397-0.606-0.493-0.966l-0.004-0.018c-0.461-0.034-0.883-0.097-1.295-0.189l0.059 0.011c-0.269-0.052-0.546-0.104-0.821-0.14-0.127-0.018-0.273-0.029-0.422-0.029-0.111 0-0.22 0.006-0.328 0.017l0.013-0.001c-0.267 0.035-0.508 0.1-0.736 0.192l0.020-0.007c-0.145 0.074-0.266 0.177-0.361 0.3l-0.002 0.003-0.065 0.073c-0.258 0.242-0.422 0.583-0.429 0.962l-0 0.001c0.004 0.213 0.071 0.41 0.183 0.573l-0.002-0.004c0.041 0.056 0.106 0.091 0.18 0.091 0.001 0 0.001 0 0.002 0h-0c0.039-0.006 0.071-0.029 0.090-0.061l0-0.001c-0.085-0.071-0.15-0.163-0.188-0.268l-0.001-0.004-0.025-0.052c-0.072-0.118-0.115-0.261-0.115-0.414v-0c0.011-0.010 0.026-0.015 0.042-0.015s0.031 0.006 0.042 0.015l-0-0c0.001 0.14 0.040 0.27 0.109 0.38l-0.002-0.003 0.025 0.052c0.052 0.109 0.104 0.222 0.184 0.25 0.008 0.002 0.016 0.003 0.025 0.003 0.031 0 0.058-0.012 0.079-0.032v0c0.046-0.037 0.082-0.086 0.103-0.142l0.001-0.002c-0.037-0.012-0.069-0.028-0.098-0.049l0.001 0.001c-0.121-0.111-0.197-0.269-0.197-0.446 0-0.152 0.057-0.292 0.15-0.398l-0.001 0.001c0.002-0 0.005-0 0.008-0 0.030 0 0.055 0.020 0.063 0.047l0 0c-0.228 0.36-0.111 0.631 0.025 0.725 0.033 0.027 0.075 0.044 0.122 0.044 0.064 0 0.12-0.031 0.154-0.079l0-0.001c0.027-0.036 0.043-0.081 0.043-0.129v-0l-0.008-0.128c-0.008-0.042-0.012-0.090-0.012-0.14 0-0.107 0.021-0.209 0.058-0.303l-0.002 0.006c0.097-0.17 0.263-0.29 0.459-0.323l0.004-0.001c0.037-0.005 0.079-0.008 0.122-0.008 0.090 0 0.176 0.013 0.259 0.036l-0.007-0.002 0.048 0.012-0.020 0.046c-0.031 0.062-0.049 0.135-0.052 0.212l-0 0.001c0.001 0.044 0.008 0.087 0.021 0.127l-0.001-0.003c0.048-0.090 0.121-0.162 0.21-0.206l0.003-0.001c0.216-0.108 0.529 0.078 0.925 0.311 0.177 0.104 0.359 0.213 0.556 0.311l0.363 0.184c0.344 0.215 0.745 0.378 1.174 0.469l0.024 0.004c0.017 0.001 0.036 0.002 0.056 0.002 0.173 0 0.335-0.044 0.476-0.121l-0.005 0.003z"></path>
<path fill="#fff" d="M17.172 22.374c0.11-0.147 0.262-0.258 0.437-0.316l0.006-0.002c0.020-0.008 0.072-0.030 0.363 0.065l0.052 0.018c0.032 0.016 0.069 0.026 0.109 0.026 0.008 0 0.015-0 0.023-0.001l-0.001 0c0.014 0.012 0.023 0.031 0.023 0.051 0 0.012-0.003 0.023-0.008 0.033l0-0c-0.011 0.001-0.024 0.002-0.037 0.002-0.049 0-0.096-0.011-0.137-0.032l0.002 0.001-0.052-0.018c-0.259-0.083-0.305-0.067-0.307-0.067-0.173 0.054-0.315 0.162-0.413 0.303l-0.002 0.003c-0.048 0.104 0.052 0.162 0.196 0.234l0.035 0.018c0.075 0.034 0.163 0.058 0.255 0.070l0.004 0c0.015 0.001 0.032 0.002 0.050 0.002 0.079 0 0.155-0.015 0.225-0.042l-0.004 0.001c0.123-0.039 0.265-0.067 0.412-0.078l0.006-0 0.087-0.005c0.13-0.002 0.254-0.021 0.373-0.054l-0.010 0.002c0.099-0.040 0.184-0.095 0.256-0.163l-0 0 0.036-0.030c0.058-0.054 0.107-0.117 0.145-0.186l0.002-0.004c0.054-0.11 0.138-0.199 0.241-0.257l0.003-0.002 0.038-0.016c0.022 0.076 0.074 0.138 0.142 0.173l0.002 0.001c0.022 0.007 0.047 0.011 0.073 0.011 0.034 0 0.066-0.007 0.096-0.018l-0.002 0.001c-0.053-0.058-0.086-0.136-0.086-0.221v-0c0.003-0.108 0.051-0.204 0.127-0.269l0-0c0.359-0.322 0.75-0.63 1.16-0.912l0.039-0.025 0.143-0.104c0.098-0.076 0.209-0.148 0.325-0.211l0.013-0.007c0.158-0.078 0.228-0.168 0.228-0.297v-0.030q-0.012-0.164-0.012-0.315c-0.001-0.024-0.001-0.052-0.001-0.080 0-0.441 0.126-0.852 0.345-1.199l-0.006 0.009c-0.118-0.202-0.236-0.442-0.338-0.691l-0.014-0.040-0.052-0.139c-0.134-0.351-0.273-0.714-0.526-0.823-0.137-0.050-0.295-0.078-0.46-0.078-0.366 0-0.7 0.141-0.949 0.373l0.001-0.001 0.038 0.129c0.081 0.295 0.165 0.537 0.263 0.773l-0.016-0.043 0.012 0.028c0.311 0.729 0.634 1.483 0.098 2.11-0.414 0.486-0.829 0.927-1.262 1.395l-0.024 0.025c-0.104 0.101-0.245 0.162-0.401 0.162-0.011 0-0.022-0-0.034-0.001l0.002 0c-0.010 0-0.022 0-0.033 0-0.227 0-0.445-0.040-0.648-0.112l0.013 0.004c-0.078-0.026-0.168-0.040-0.262-0.040-0.023 0-0.046 0.001-0.069 0.003l0.003-0c-0.122 0.023-0.225 0.093-0.29 0.19l-0.001 0.002-0.032 0.036-0.099 0.096c-0.081 0.075-0.172 0.16-0.185 0.229 0 0.001-0 0.001-0 0.002 0 0.031 0.013 0.059 0.034 0.079l0 0c0.016 0.019 0.039 0.031 0.065 0.033h0c0.030-0.043 0.062-0.081 0.098-0.116l0-0 0.064-0.069c0.088-0.109 0.223-0.179 0.373-0.179 0.029 0 0.058 0.003 0.085 0.008l-0.003-0c0.004 0.008 0.007 0.018 0.007 0.028 0 0.022-0.011 0.041-0.028 0.053l-0 0c-0.019-0.003-0.041-0.005-0.063-0.005-0.124 0-0.234 0.058-0.306 0.148l-0.001 0.001-0.067 0.073c-0.052 0.052-0.104 0.109-0.108 0.155-0.006 0.030 0.070 0.115 0.114 0.139z"></path>
<path fill="#fff" d="M20.926 24.198l0.017-0.016c0.091-0.103 0.21-0.179 0.345-0.218l0.005-0.001c0.015-0.002 0.032-0.003 0.050-0.003 0.066 0 0.129 0.014 0.186 0.040l-0.003-0.001c0.035 0.013 0.079 0.026 0.125 0.037l0.008 0.002c0.045 0.010 0.096 0.016 0.148 0.016 0.037 0 0.074-0.003 0.109-0.008l-0.004 0c0.015 0.012 0.025 0.030 0.025 0.051 0 0.012-0.003 0.023-0.008 0.032l0-0c-0.037 0.006-0.079 0.009-0.123 0.009-0.058 0-0.116-0.006-0.171-0.018l0.005 0.001c-0.057-0.013-0.104-0.027-0.151-0.044l0.009 0.003c-0.047-0.022-0.101-0.034-0.159-0.034-0.011 0-0.022 0-0.033 0.001l0.001-0c-0.123 0.037-0.227 0.106-0.307 0.197l-0.001 0.001-0.018 0.017c-0.008 0.006-0.013 0.013-0.017 0.022l-0 0 0.059 0.047c0.055 0.029 0.098 0.073 0.125 0.128l0.001 0.002 0.009 0.032c0.016 0.060 0.031 0.115 0.451 0.044 0.131-0.026 0.242-0.057 0.35-0.095l-0.018 0.005c0.093-0.030 0.19-0.061 0.286-0.081l0.123-0.026c0.436-0.018 0.803-0.296 0.95-0.682l0.002-0.007 0.015-0.026 0.030 0.005c0.031 0.007 0.067 0.012 0.104 0.012 0.137 0 0.26-0.058 0.346-0.151l0-0c-0.082-0.001-0.154-0.041-0.198-0.103l-0-0.001c-0.014-0.025-0.023-0.055-0.023-0.087 0-0.001 0-0.003 0-0.004v0c0.009-0.099 0.042-0.19 0.091-0.268l-0.001 0.003 0.084-0.161c0.090-0.173 0.192-0.37 0.286-0.514l0.223-0.327c0.108-0.155 0.207-0.302 0.296-0.444 0.122-0.203 0.245-0.444 0.352-0.694l0.015-0.041 0.009-0.021c0.006-0.014 0.009-0.031 0.009-0.049 0-0.001 0-0.002-0-0.003v0c-0.012-0.119-0.049-0.226-0.105-0.321l0.002 0.003-0.090-0.15c-0.066-0.096-0.124-0.206-0.17-0.321l-0.004-0.012c-0.045-0.137-0.072-0.294-0.072-0.457 0-0.017 0-0.033 0.001-0.050l-0 0.002 0.005-0.199 0.003-0.098c0.017-0.479 0.061-0.932 0.131-1.375l-0.008 0.064 0.014-0.104c0.025-0.18 0.039-0.388 0.039-0.599 0-0 0-0 0-0v0c-0.005-0.402-0.047-0.791-0.123-1.168l0.007 0.040c-0.029-0.13-0.049-0.282-0.056-0.437l-0-0.006c0.003-0.268 0.156-0.5 0.38-0.615l0.004-0.002c0.426-0.274 0.704-0.747 0.704-1.284 0-0.008-0-0.016-0-0.023v0.001c-0.008-0.341-0.082-0.663-0.208-0.957l0.006 0.017c-0.277-0.666-0.735-1.21-1.314-1.585l-0.013-0.008c-0.331-0.22-0.721-0.445-1.125-0.648l-0.066-0.030-0.485-0.256-0.109-0.059c-0.757-0.368-1.406-0.827-1.97-1.374l0.002 0.002c-0.178-0.208-0.286-0.479-0.286-0.777 0-0.001 0-0.002 0-0.003v0c-0-0.005-0-0.011-0-0.017 0-0.113 0.021-0.221 0.058-0.321l-0.002 0.006 0.021-0.052c0.078-0.16 0.14-0.346 0.178-0.54l0.002-0.014 0.004-0.080c0-0.182-0.066-0.311-0.182-0.352-0.158-0.055-0.428 0.057-0.673 0.434-0.211 0.337-0.335 0.746-0.335 1.184 0 0.298 0.058 0.582 0.162 0.842l-0.005-0.015c0.364 0.812 1.011 1.442 1.812 1.778l0.023 0.008c0.867 0.466 1.599 0.866 2.465 1.421 0.325 0.207 1.070 0.78 0.974 1.591-0.018 0.138-0.095 0.254-0.205 0.325l-0.002 0.001c-0.136 0.084-0.3 0.133-0.476 0.133-0.077 0-0.151-0.009-0.222-0.027l0.006 0.001c-0.407-0.14-0.759-0.316-1.083-0.532l0.017 0.011-0.207-0.121c-0.465-0.261-1.020-0.415-1.611-0.415-0.017 0-0.035 0-0.052 0l0.003-0c-0.713 0.052-1.352 0.333-1.851 0.771l0.004-0.003c-0.168 0.12-0.341 0.243-0.525 0.356l-0.077 0.043v0.005c0.002 0.047 0.004 0.102 0.004 0.158 0 0.118-0.006 0.234-0.019 0.348l0.001-0.014c0.071-0.077 0.172-0.125 0.284-0.125 0.034 0 0.067 0.004 0.098 0.013l-0.003-0.001c0.191 0.043 0.333 0.208 0.34 0.407l0 0.001v0.065l-0.059-0.027c-0.039-0.024-0.086-0.038-0.136-0.038-0.033 0-0.064 0.006-0.093 0.017l0.002-0.001c-0.069 0.038-0.114 0.141-0.138 0.314l-0.021 0.259c-0.003 0.346-0.074 0.674-0.198 0.974l0.006-0.017c-0.144 0.287-0.326 0.532-0.542 0.742l-0.001 0.001c-0.172-1.053-1.074-1.846-2.162-1.846-0.422 0-0.815 0.119-1.149 0.326l0.009-0.005 0.008-0.055c0.041-0.294 0.090-0.633 0.127-0.932-0.343-0.051-0.651-0.167-0.922-0.337l0.010 0.006c-0.173-0.137-0.318-0.301-0.431-0.486l-0.005-0.008c-0.168-0.26-0.316-0.558-0.43-0.873l-0.010-0.031-0.139-0.342c-0.323-0.649-0.775-1.19-1.326-1.606l-0.011-0.008v0.117c-0.011 0.008-0.024 0.013-0.039 0.013-0.018 0-0.034-0.007-0.046-0.019v0-0.227c-0.033-0.298-0.168-0.511-0.352-0.555-0.020-0.003-0.044-0.005-0.067-0.005-0.12 0-0.23 0.047-0.31 0.124l0-0c-0.062 0.051-0.117 0.106-0.167 0.166l-0.002 0.002-0.014 0.017h-0.021c-0.107-0.018-0.23-0.029-0.355-0.029-0.256 0-0.503 0.044-0.731 0.125l0.015-0.005c-0.094 0.059-0.174 0.132-0.239 0.217l-0.002 0.002c-0.066 0.082-0.14 0.154-0.222 0.216l-0.003 0.002c-0.066 0.041-0.143 0.074-0.224 0.096l-0.006 0.001c-0.098 0.027-0.184 0.066-0.262 0.116l0.004-0.002c-0.090 0.062-0.171 0.122-0.292 0.214l-0.052 0.038c-0.127 0.094-0.218 0.163-0.215 0.294v0.038c-0.001 0.007-0.001 0.014-0.001 0.022 0 0.024 0.003 0.047 0.009 0.068l-0-0.002c0.014 0.047 0.056 0.096 0.109 0.080 0.040-0.015 0.071-0.048 0.082-0.089l0-0.001 0.033 0.005c0.006 0.089-0.018 0.172-0.164 0.195 0.001 0.053 0.017 0.102 0.043 0.144l-0.001-0.001c0.062 0.098 0.157 0.17 0.27 0.199l0.003 0.001c0.008 0.001 0.017 0.001 0.026 0.001 0.085 0 0.163-0.029 0.225-0.077l-0.001 0.001c0.069-0.054 0.157-0.086 0.252-0.086 0.023 0 0.045 0.002 0.067 0.005l-0.002-0c0.143 0.045 0.245 0.177 0.245 0.332 0 0.013-0.001 0.026-0.002 0.039l0-0.002c-0.013 0.153-0.259 0.207-0.461 0.223s-0.231 0.057-0.237 0.069l0.028 0.072c0.089 0.127 0.209 0.227 0.35 0.289l0.005 0.002c0.027 0.003 0.059 0.005 0.091 0.005 0.21 0 0.401-0.080 0.545-0.21l-0.001 0.001c0.069-0.061 0.156-0.105 0.252-0.123l0.003-0.001c0.518 0.023 0.863 0.663 1.012 1.255 0.062 0.298 0.097 0.64 0.097 0.99 0 0.109-0.003 0.217-0.010 0.324l0.001-0.015v0.462c0 0.289 0.055 0.992 0.071 1.201 0.065 0.443 0.247 0.835 0.515 1.154l-0.003-0.003c0.285 0.406 0.663 0.729 1.104 0.941l0.017 0.007-0.041-0.259c-0.038-0.148-0.060-0.319-0.060-0.494 0-0.083 0.005-0.166 0.015-0.246l-0.001 0.010c0.068-0.454 0.227-0.862 0.459-1.217l-0.007 0.012 0.012 0.005c0.019 0.011 0.032 0.032 0.033 0.055v0c-0 0.007-0.001 0.014-0.004 0.021l0-0c-0.196 0.328-0.339 0.711-0.408 1.12l-0.003 0.019c-0.007 0.065-0.012 0.14-0.012 0.215 0 0.171 0.021 0.337 0.062 0.496l-0.003-0.014c0.041 0.171 0.065 0.367 0.065 0.569 0 0.073-0.003 0.146-0.009 0.217l0.001-0.009c-0.076 0.409-0.165 0.757-0.276 1.096l0.017-0.060-0.092 0.316c-0.072 0.259-0.135 0.513-0.195 0.757-0.084 0.409-0.195 0.766-0.337 1.108l0.015-0.039c-0.063 0.128-0.173 0.224-0.307 0.268l-0.004 0.001c-0.067 0.012-0.144 0.018-0.223 0.018-0.262 0-0.508-0.075-0.715-0.204l0.006 0.003c-0.065-0.035-0.431-0.018-0.86 0.423l-0.003 0.003h-0.004c-0.040 0.037-0.064 0.090-0.064 0.148 0 0.021 0.003 0.041 0.009 0.060l-0-0.001c0.008 0.047 0.036 0.086 0.075 0.108l0.001 0c0.003-0.006 0.006-0.010 0.009-0.015l-0 0c0.141-0.2 0.341-0.349 0.574-0.425l0.008-0.002c0.014-0.002 0.030-0.004 0.047-0.004 0.060 0 0.115 0.018 0.162 0.048l-0.001-0.001c0.037 0.023 0.081 0.038 0.128 0.040l0.001 0c0.011 0.012 0.018 0.028 0.018 0.046 0 0.014-0.004 0.027-0.012 0.038l0-0c-0.064-0-0.124-0.019-0.175-0.050l0.001 0.001c-0.035-0.024-0.078-0.038-0.124-0.038-0.010 0-0.019 0.001-0.028 0.002l0.001-0c-0.221 0.073-0.403 0.211-0.531 0.391l-0.002 0.003c-0.004 0.009-0.006 0.020-0.006 0.031 0 0.016 0.004 0.032 0.012 0.045l-0-0c0.018 0.046 0.050 0.084 0.091 0.108l0.001 0.001 0.104-0.104c0.084-0.112 0.203-0.193 0.341-0.229l0.004-0.001c0.040-0.003 0.087-0.005 0.134-0.005 0.093 0 0.184 0.008 0.273 0.022l-0.010-0.001c0.011 0 0.020 0.002 0.030 0.006l-0.001-0c0.007 0.010 0.012 0.023 0.012 0.037s-0.004 0.027-0.012 0.038l0-0-0.039 0.004c-0.076-0.013-0.164-0.020-0.253-0.020-0.044 0-0.087 0.002-0.13 0.005l0.006-0c-0.122 0.035-0.223 0.107-0.295 0.203l-0.001 0.001-0.104 0.104c0.021 0.062 0.058 0.113 0.107 0.15l0.001 0.001c0.013 0.010 0.030 0.016 0.048 0.016 0.005 0 0.011-0.001 0.016-0.002l-0.001 0 0.037-0.009 0.013 0.036c0.026 0.071 0.134 0.113 0.328 0.128 0.211-0.006 0.41-0.046 0.596-0.114l-0.013 0.004 0.28-0.075c0.068-0.015 0.149-0.027 0.231-0.032l0.005-0c0.102-0.003 0.197-0.024 0.286-0.058l-0.006 0.002c0.167-0.071 0.31-0.163 0.435-0.275l-0.002 0.001c0.145-0.142 0.258-0.315 0.328-0.508l0.003-0.010 0.017-0.042 0.041 0.020c0.198 0.098 0.326 0.088 0.425-0.038-0.071-0.013-0.131-0.050-0.172-0.103l-0-0.001c-0.038-0.053-0.061-0.118-0.061-0.189 0-0.003 0-0.006 0-0.009v0c0-0.046 0.007-0.090 0.019-0.132l-0.001 0.003c0.149-0.44 0.337-0.82 0.566-1.172l-0.012 0.020c0.204-0.355 0.414-0.783 0.521-1.006l0.075-0.152c0.113-0.184 0.184-0.405 0.195-0.642l0-0.003c0.012-0.304 0.096-0.586 0.234-0.834l-0.005 0.009 0.075 0.040c-0.087 0.155-0.153 0.334-0.189 0.525l-0.002 0.011c0.169 0.022 0.364 0.034 0.562 0.034 1.195 0 2.286-0.45 3.111-1.19l-0.004 0.004c0.345-0.291 0.654-0.6 0.937-0.931l0.009-0.011c0.294-0.355 0.62-0.667 0.979-0.938l0.015-0.011c0.278-0.264 0.655-0.427 1.070-0.427 0.174 0 0.342 0.029 0.498 0.082l-0.011-0.003c0.285 0.123 0.431 0.503 0.57 0.87l0.052 0.138c0.206 0.487 0.427 0.901 0.679 1.293l-0.020-0.033 0.143 0.238 0.12 0.191c0.086 0.123 0.168 0.264 0.237 0.411l0.008 0.018c0.062 0.141 0.12 0.255 0.184 0.366l-0.009-0.017c0.145 0.209 0.232 0.468 0.232 0.747 0 0.030-0.001 0.061-0.003 0.091l0-0.004c-0.083 0.629-0.28 1.197-0.571 1.705l0.012-0.023c-0.094 0.24-0.25 0.438-0.449 0.581l-0.004 0.003c-0.132 0.036-0.283 0.057-0.439 0.057-0.166 0-0.326-0.023-0.478-0.067l0.012 0.003-0.242-0.038c-0.098-0.011-0.189 0.076-0.284 0.168l-0.12 0.109c-0.076 0.061-0.152 0.112-0.226 0.162l-0.034 0.023c-0.048 0.026-0.079 0.076-0.079 0.133 0 0.002 0 0.004 0 0.006v-0c0.007 0.043 0.044 0.080 0.104 0.104 0.047-0.078 0.114-0.14 0.194-0.181l0.003-0.001 0.171-0.119c0.080-0.044 0.175-0.070 0.277-0.070 0.017 0 0.035 0.001 0.052 0.002l-0.002-0 0.133-0.007c0.011 0.012 0.018 0.028 0.018 0.046 0 0.014-0.004 0.028-0.012 0.039l0-0-0.136 0.007c-0.014-0.001-0.030-0.002-0.047-0.002-0.084 0-0.164 0.020-0.235 0.055l0.003-0.001-0.176 0.122c-0.104 0.066-0.155 0.1-0.178 0.178-0.003 0.009-0.005 0.020-0.005 0.032 0 0.021 0.006 0.041 0.016 0.058l-0-0c0.041 0.064 0.102 0.112 0.174 0.136l0.002 0.001z"></path>
<path fill="#000" d="M6.766 19.614c0.050 0.122 0.157 0.212 0.287 0.238l0.003 0c-0.056 0.043-0.126 0.068-0.203 0.068-0.135 0-0.251-0.079-0.304-0.194l-0.001-0.002c0.016 0.005 0.034 0.009 0.054 0.009 0.076 0 0.141-0.049 0.164-0.118l0-0.001zM7.289 19.188l0.011 0.007c0.024 0.124 0.175 0.189 0.311 0.211-0.207 0.143-0.371 0.136-0.503-0.044 0.058-0.013 0.107-0.047 0.14-0.093l0-0.001c0.017-0.023 0.031-0.050 0.040-0.079l0-0.002zM7.030 19.416c0.072 0.155 0.251 0.171 0.355 0.187-0.179 0.135-0.362 0.182-0.509-0.003 0.069-0.043 0.122-0.106 0.15-0.181l0.001-0.003zM9.699 24.621c0.030 0.054 0.087 0.090 0.152 0.090 0.005 0 0.011-0 0.016-0.001l-0.001 0c0.007 0.020 0.018 0.037 0.032 0.052l-0-0c-0.012 0.064-0.019 0.138-0.019 0.213 0 0.015 0 0.030 0.001 0.045l-0-0.002c-0.090-0.034-0.162-0.096-0.21-0.175l-0.001-0.002v0.029c-0.096-0.051-0.167-0.139-0.195-0.244l-0.001-0.003c-0.102-0.054-0.17-0.16-0.17-0.281 0-0.058 0.015-0.112 0.043-0.159l-0.001 0.002 0.011-0.012c0.020 0.055 0.066 0.095 0.122 0.108l0.001 0c0.003 0.048 0.019 0.092 0.046 0.128l-0-0.001c0.023 0.037 0.057 0.065 0.097 0.081l0.001 0c0.005 0.008 0.011 0.014 0.018 0.018l0 0c0.014 0.043 0.034 0.081 0.059 0.114l-0.001-0.001zM17.388 22.7c-0.008 0.056-0.013 0.121-0.013 0.186 0 0.025 0.001 0.049 0.002 0.073l-0-0.003c-0.106-0.055-0.194-0.113-0.213-0.181-0.089-0.049-0.155-0.13-0.185-0.227l-0.001-0.003c-0.103-0.052-0.172-0.157-0.172-0.278 0-0.055 0.014-0.106 0.039-0.151l-0.001 0.002 0.032-0.031c0.025 0.059 0.082 0.1 0.149 0.101h0c-0.007 0.014-0.011 0.030-0.012 0.047l-0 0c-0.003 0.065 0.138 0.2 0.182 0.187-0.067 0.139 0.070 0.217 0.191 0.278zM21.152 24.571c-0.050 0.049-0.080 0.118-0.080 0.193 0 0.013 0.001 0.026 0.003 0.039l-0-0.001c-0.119-0.056-0.199-0.175-0.199-0.312 0-0.022 0.002-0.044 0.006-0.065l-0 0.002c-0.015 0.055-0.024 0.117-0.024 0.182 0 0.006 0 0.012 0 0.018l-0-0.001c-0.107-0.044-0.189-0.132-0.224-0.24l-0.001-0.003c-0.108-0.087-0.177-0.219-0.177-0.367 0-0.080 0.020-0.155 0.055-0.221l-0.001 0.003 0.018-0.013c0 0.068 0.052 0.136 0.173 0.172-0.038 0.118 0.087 0.242 0.237 0.288-0.066 0.091 0.137 0.119 0.174 0.226 0.005 0.038 0.019 0.071 0.040 0.1l-0-0.001z"></path>
<path fill="#ff0" d="M21.087 24.549c-0.035 0.040-0.059 0.090-0.066 0.146l-0 0.001c-0.054-0.052-0.087-0.125-0.087-0.206 0-0.038 0.007-0.074 0.021-0.107l-0.001 0.002c0.072 0.024 0.125 0.087 0.134 0.163l0 0.001zM20.88 24.29c-0.046 0.067-0.075 0.149-0.079 0.237l-0 0.001c-0.075-0.055-0.124-0.143-0.124-0.243 0-0.048 0.011-0.094 0.032-0.134l-0.001 0.002c0.046 0.053 0.104 0.094 0.169 0.12l0.003 0.001c-0 0.001-0 0.003-0 0.004 0 0.003 0 0.006 0.001 0.010l-0-0zM20.651 24.031c-0.029 0.067-0.051 0.145-0.064 0.226l-0.001 0.005c-0.043-0.070-0.069-0.156-0.069-0.247 0-0.037 0.004-0.074 0.012-0.109l-0.001 0.003c0.033 0.034 0.073 0.061 0.117 0.077l0.002 0.001c-0 0.003-0 0.006-0 0.010 0 0.011 0.001 0.022 0.002 0.033l-0-0.001zM16.982 22.295c-0.022 0.042-0.038 0.092-0.042 0.145l-0 0.002c-0.048-0.043-0.077-0.104-0.077-0.173 0-0.034 0.008-0.067 0.021-0.097l-0.001 0.001c0.023 0.023 0.053 0.039 0.086 0.046l0.001 0c-0.001 0.005-0.001 0.011-0.001 0.017 0 0.021 0.005 0.041 0.014 0.058l-0-0.001zM17.137 22.534c-0.014 0.039-0.022 0.084-0.023 0.131v0.001c-0.053-0.045-0.086-0.111-0.086-0.185 0-0.035 0.007-0.068 0.021-0.098l-0.001 0.002c0.025 0.027 0.055 0.050 0.087 0.067l0.002 0.001c-0.002 0.011-0.004 0.024-0.004 0.037 0 0.015 0.002 0.030 0.005 0.044l-0-0.001zM17.315 22.857c-0.067-0.029-0.113-0.094-0.113-0.17 0-0.017 0.002-0.033 0.007-0.049l-0 0.001c0.033 0.030 0.070 0.056 0.111 0.076l0.003 0.001c-0.005 0.029-0.009 0.061-0.009 0.095 0 0.016 0.001 0.031 0.002 0.047l-0-0.002zM9.822 24.916c-0.067-0.029-0.113-0.094-0.113-0.17 0-0.016 0.002-0.031 0.006-0.045l-0 0.001c0.033 0.030 0.075 0.049 0.122 0.052l0.001 0c-0.011 0.038-0.017 0.081-0.017 0.126 0 0.013 0.001 0.025 0.001 0.038l-0-0.002zM9.64 24.61c-0.016 0.042-0.026 0.091-0.028 0.142l-0 0.001c-0.052-0.045-0.085-0.111-0.085-0.185 0-0.028 0.005-0.056 0.014-0.081l-0.001 0.002c0.018 0.016 0.038 0.029 0.061 0.037l0.001 0c0.009 0.032 0.021 0.059 0.037 0.084l-0.001-0.001zM9.467 24.397c-0.017 0.034-0.027 0.073-0.030 0.115l-0 0.001c-0.048-0.042-0.079-0.104-0.079-0.172 0-0.025 0.004-0.049 0.011-0.071l-0 0.002c0.019 0.016 0.042 0.028 0.066 0.035l0.001 0c0.004 0.033 0.014 0.064 0.029 0.091l-0.001-0.001zM7.024 19.518c0.051 0.056 0.119 0.096 0.195 0.114l0.003 0.001c-0.032 0.020-0.070 0.032-0.111 0.032-0.062 0-0.117-0.026-0.156-0.068l-0-0c0.026-0.023 0.048-0.049 0.067-0.077l0.001-0.001zM7.283 19.289c0.038 0.066 0.1 0.115 0.175 0.134l0.002 0c-0.029 0.016-0.063 0.025-0.1 0.025-0.065 0-0.124-0.030-0.162-0.076l-0-0c0.032-0.023 0.059-0.051 0.082-0.082l0.001-0.001zM7.168 19.261c0.001-0.004 0.003-0.007 0.005-0.010l-0 0zM6.901 19.851c-0.016 0.004-0.035 0.007-0.055 0.007-0.075 0-0.141-0.036-0.183-0.092l-0-0.001c0.033-0.011 0.061-0.029 0.084-0.052v0c0.036 0.060 0.087 0.107 0.149 0.137l0.002 0.001z"></path>
<path fill="#fff" d="M17.559 16.999c0.056 0.127 0.102 0.276 0.131 0.431l0.002 0.013c0.22-0.209 0.404-0.453 0.542-0.724l0.007-0.015c0.114-0.274 0.181-0.592 0.184-0.926v-0.001l0.022-0.267c0.002-0.152 0.072-0.287 0.18-0.376l0.001-0.001c0.028-0.015 0.062-0.025 0.097-0.026h0c-0.036-0.038-0.088-0.062-0.145-0.062-0.006 0-0.012 0-0.018 0.001l0.001-0c-0.223 0.028-0.268 0.336-0.305 0.583-0.010 0.080-0.023 0.15-0.041 0.219l0.003-0.012c-0.070 0.261-0.162 0.487-0.275 0.7l0.009-0.018c-0.112 0.185-0.243 0.343-0.394 0.481l-0.002 0.002zM17.223 16.455c0.058 0.068 0.114 0.142 0.164 0.221l0.005 0.008c0.165-0.172 0.305-0.371 0.411-0.588l0.006-0.014c0.167-0.32 0.287-0.692 0.34-1.086l0.002-0.018c0.011-0.099 0.018-0.213 0.018-0.328 0-0.009-0-0.017-0-0.026v0.001c0-0.001 0-0.003 0-0.005 0-0.223-0.015-0.442-0.044-0.657l0.003 0.025c-0.020-0.093-0.032-0.199-0.032-0.309 0-0.12 0.014-0.237 0.041-0.349l-0.002 0.010c0.028-0.088 0.089-0.158 0.169-0.195l0.002-0.001c0.014-0.006 0.030-0.011 0.046-0.014l0.002-0c-0.029-0.029-0.068-0.047-0.112-0.047-0.019 0-0.037 0.003-0.054 0.010l0.001-0c-0.171 0.039-0.305 0.316-0.305 0.63 0 0.191 0.013 0.373 0.022 0.482l0.006 0.087c0.003 0.048 0.004 0.104 0.004 0.16 0 0.76-0.261 1.459-0.698 2.012l0.005-0.007zM16.819 16.088c0.064 0.045 0.119 0.088 0.172 0.133l-0.003-0.002c0.188-0.184 0.334-0.409 0.423-0.661l0.004-0.012 0.024-0.067c0.085-0.205 0.14-0.441 0.155-0.69l0-0.006 0.003-0.321v-0.222c0.004-0.084 0.007-0.183 0.007-0.282 0-0.382-0.036-0.755-0.105-1.117l0.006 0.037-0.036-0.17c-0.075-0.259-0.118-0.555-0.118-0.863 0-0.055 0.001-0.109 0.004-0.163l-0 0.008c0.008-0.203 0.107-0.38 0.257-0.494l0.002-0.001c0.056-0.033 0.123-0.052 0.194-0.052 0.006 0 0.013 0 0.019 0l-0.001-0c-0.061-0.049-0.14-0.078-0.225-0.078-0.028 0-0.055 0.003-0.081 0.009l0.002-0c-0.215 0.072-0.373 0.256-0.406 0.482l-0 0.003c-0.021 0.138-0.033 0.297-0.033 0.459 0 0.249 0.028 0.491 0.081 0.724l-0.004-0.022c0.042 0.235 0.074 0.52 0.090 0.809l0.001 0.020c0.006 0.106 0.009 0.229 0.009 0.354 0 0.4-0.033 0.792-0.097 1.173l0.006-0.041c-0.073 0.396-0.195 0.748-0.361 1.075l0.010-0.022zM16.275 15.815c0.105 0.035 0.192 0.071 0.276 0.113l-0.012-0.005c0.147-0.239 0.249-0.521 0.285-0.823l0.001-0.010 0.013-0.083c0.047-0.336 0.074-0.724 0.074-1.118 0-0.483-0.040-0.957-0.117-1.418l0.007 0.050c-0.046-0.323-0.108-0.616-0.171-0.929-0.052-0.268-0.104-0.498-0.146-0.673l-0.066-0.308c-0.026-0.137-0.040-0.294-0.040-0.455 0-0.034 0.001-0.069 0.002-0.102l-0 0.005c-0-0.010-0.001-0.023-0.001-0.035 0-0.254 0.105-0.484 0.274-0.648l0-0c0.095-0.077 0.215-0.127 0.345-0.137l0.002-0c-0.067-0.042-0.148-0.066-0.235-0.066-0.040 0-0.079 0.005-0.117 0.015l0.003-0.001c-0.227 0.094-0.399 0.281-0.472 0.512l-0.002 0.006c-0.049 0.149-0.077 0.322-0.077 0.5 0 0.049 0.002 0.098 0.006 0.146l-0-0.006c0.036 0.483 0.109 0.929 0.219 1.361l-0.012-0.054c0.064 0.299 0.131 0.609 0.169 0.903 0.025 0.192 0.046 0.367 0.062 0.535 0.032 0.266 0.050 0.573 0.050 0.885 0 0.182-0.006 0.363-0.018 0.542l0.001-0.024c-0.046 0.488-0.153 0.938-0.315 1.36l0.012-0.035zM15.623 15.712c0.123 0.001 0.243 0.011 0.36 0.032l-0.013-0.002c0.133-0.368 0.226-0.794 0.262-1.237l0.001-0.018c0.019-0.215 0.033-0.456 0.041-0.716-0.004-0.478-0.066-0.94-0.179-1.381l0.009 0.040c-0.079-0.367-0.155-0.801-0.212-1.191-0.027-0.216-0.071-0.41-0.133-0.597l0.006 0.022c-0.409-1.215-0.734-2.477-0.315-3.004 0.113-0.136 0.278-0.225 0.464-0.236l0.002-0c-0.075-0.042-0.164-0.068-0.258-0.070h-0.001c-0.004-0-0.008-0-0.012-0-0.153 0-0.292 0.062-0.392 0.163l-0 0c-0.228 0.292-0.365 0.664-0.365 1.069 0 0.195 0.032 0.383 0.091 0.559l-0.004-0.012c0.069 0.343 0.195 0.768 0.328 1.218 0.118 0.399 0.24 0.813 0.323 1.172 0.139 0.608 0.218 1.306 0.218 2.023 0 0.22-0.008 0.438-0.022 0.654l0.002-0.029-0.029 0.359c-0.038 0.376-0.115 0.851-0.173 1.18zM14.854 15.852c0.118-0.047 0.258-0.086 0.402-0.111l0.012-0.002c0.078-0.334 0.15-0.753 0.198-1.18l0.005-0.053c0.023-0.261 0.035-0.564 0.035-0.87 0-0.654-0.059-1.294-0.171-1.916l0.010 0.065c-0.144-0.703-0.323-1.312-0.548-1.898l0.027 0.081-0.125-0.368c-0.184-0.545-0.367-0.989-0.574-1.419l0.033 0.076c-0.147-0.267-0.268-0.576-0.349-0.902l-0.006-0.027c-0.039-0.131-0.062-0.283-0.062-0.439 0-0.342 0.108-0.659 0.293-0.918l-0.003 0.005c0.143-0.152 0.345-0.249 0.569-0.255l0.001-0c-0.082-0.055-0.183-0.088-0.292-0.088-0.028 0-0.056 0.002-0.083 0.007l0.003-0c-0.203 0.054-0.372 0.175-0.487 0.337l-0.002 0.003c-0.218 0.296-0.349 0.667-0.349 1.070 0 0.147 0.018 0.291 0.051 0.428l-0.003-0.012c0.050 0.251 0.111 0.465 0.185 0.673l-0.010-0.033 0.32 0.694c0.381 0.724 0.711 1.566 0.946 2.448l0.020 0.086c0.133 0.596 0.21 1.28 0.21 1.981 0 0.422-0.028 0.838-0.081 1.245l0.005-0.048c-0.040 0.368-0.117 0.924-0.178 1.337zM14.054 14.726c0.057-0.335 0.112-0.725 0.125-0.951 0.009-0.171 0.014-0.371 0.014-0.572 0-0.969-0.115-1.911-0.333-2.813l0.017 0.082c-0.324-1.323-1.052-2.758-1.949-2.984-0.098-0.033-0.21-0.052-0.327-0.052-0.244 0-0.468 0.084-0.646 0.224l0.002-0.002c0.029-0.173 0.131-0.318 0.273-0.404l0.003-0.001c0.168-0.086 0.366-0.136 0.577-0.136 0.276 0 0.532 0.087 0.741 0.234l-0.004-0.003c0.358 0.243 0.639 0.574 0.817 0.962l0.006 0.014 0.197 0.451 0.195 0.437c0.455 0.937 0.775 2.027 0.899 3.175l0.004 0.044c0.029 0.3 0.045 0.65 0.045 1.003 0 0.369-0.018 0.733-0.053 1.093l0.004-0.046-0.042 0.4c-0.213-0.035-0.402-0.089-0.582-0.162l0.018 0.007z"></path>
<path fill="#ffeb00" d="M17.426 16.74c0.032 0.053 0.067 0.119 0.098 0.186l0.005 0.013c0.141-0.131 0.263-0.279 0.362-0.443l0.005-0.009c0.102-0.191 0.191-0.414 0.254-0.647l0.005-0.023c0.014-0.054 0.027-0.122 0.036-0.191l0.001-0.008c0.037-0.254 0.089-0.602 0.359-0.636 0.007-0.001 0.014-0.001 0.022-0.001 0.102 0 0.191 0.053 0.241 0.133l0.001 0.001 0.045 0.012c-0.034-0.131-0.137-0.231-0.266-0.263l-0.002-0.001c-0.022-0.006-0.048-0.009-0.074-0.009-0.129 0-0.24 0.076-0.291 0.186l-0.001 0.002c-0.027 0.054-0.047 0.116-0.056 0.182l-0 0.003c-0.068 0.332-0.175 0.626-0.317 0.899l0.009-0.019c-0.117 0.243-0.263 0.451-0.437 0.631l0.001-0.001zM17.035 16.261l0.146 0.147c0.418-0.54 0.67-1.227 0.67-1.973 0-0.049-0.001-0.098-0.003-0.146l0 0.007c-0.012-0.191-0.027-0.38-0.027-0.57 0-0.349 0.152-0.646 0.354-0.692 0.021-0.007 0.044-0.011 0.069-0.011 0.080 0 0.15 0.042 0.19 0.106l0.001 0.001c0.045 0.004 0.086 0.014 0.126 0.028l-0.003-0.001c-0.048-0.1-0.144-0.169-0.258-0.179l-0.001-0c-0.192-0.026-0.429 0.076-0.57 0.418-0.039 0.097-0.061 0.209-0.061 0.326 0 0.016 0 0.032 0.001 0.048l-0-0.002c0 0.155 0 0.311-0.005 0.478 0 0.181 0.004 0.363-0.004 0.544-0.014 0.261-0.070 0.505-0.161 0.73l0.005-0.015-0.024 0.066c-0.097 0.271-0.249 0.503-0.443 0.69l-0 0zM16.594 15.95l0.171 0.1c0.15-0.297 0.268-0.642 0.334-1.004l0.004-0.024c0.057-0.337 0.090-0.725 0.090-1.12 0-0.124-0.003-0.246-0.010-0.368l0.001 0.017c-0.017-0.306-0.049-0.589-0.096-0.867l0.006 0.044c-0.049-0.213-0.077-0.459-0.077-0.71 0-0.168 0.012-0.332 0.037-0.493l-0.002 0.018c0.038-0.252 0.215-0.455 0.45-0.53l0.005-0.001c0.028-0.006 0.059-0.010 0.092-0.010 0.132 0 0.25 0.060 0.329 0.154l0.001 0.001 0.039 0.009c-0.045-0.128-0.157-0.221-0.292-0.239l-0.002-0c-0.043-0.012-0.092-0.018-0.142-0.018-0.13 0-0.25 0.044-0.345 0.119l0.001-0.001c-0.208 0.191-0.341 0.462-0.351 0.764l-0 0.002c-0.006 0.079-0.010 0.172-0.010 0.265 0 0.245 0.025 0.485 0.073 0.716l-0.004-0.023c0.052 0.346 0.081 0.746 0.081 1.152 0 0.393-0.028 0.78-0.081 1.158l0.005-0.044-0.013 0.083c-0.039 0.319-0.142 0.608-0.297 0.861l0.005-0.009zM16.032 15.75l0.181 0.045c0.149-0.382 0.255-0.825 0.299-1.287l0.002-0.020c0.011-0.153 0.017-0.332 0.017-0.512 0-0.31-0.018-0.615-0.053-0.916l0.003 0.037c-0.016-0.168-0.036-0.342-0.062-0.533-0.038-0.292-0.104-0.6-0.169-0.898-0.098-0.381-0.172-0.831-0.206-1.292l-0.002-0.026c-0.004-0.043-0.006-0.093-0.006-0.143 0-0.186 0.030-0.366 0.085-0.534l-0.003 0.012c0.081-0.255 0.269-0.456 0.509-0.554l0.006-0.002c0.040-0.011 0.086-0.017 0.133-0.017 0.131 0 0.25 0.046 0.344 0.124l-0.001-0.001h0.057c-0.098-0.128-0.252-0.21-0.424-0.21-0.020 0-0.039 0.001-0.058 0.003l0.002-0c-0.297 0.025-0.542 0.223-0.635 0.492l-0.002 0.005c-0.092 0.284-0.145 0.611-0.145 0.95 0 0.002 0 0.004 0 0.005v-0c-0.001 0.031-0.001 0.068-0.001 0.104 0 0.227 0.018 0.45 0.053 0.667l-0.003-0.024c0.056 0.388 0.133 0.82 0.211 1.186 0.106 0.406 0.168 0.873 0.172 1.355v0.002c-0.008 0.262-0.022 0.504-0.041 0.72-0.038 0.463-0.131 0.892-0.274 1.297l0.011-0.036zM15.334 15.726c0.065-0.009 0.142-0.015 0.221-0.018l0.003-0c0.057-0.328 0.136-0.808 0.175-1.186l0.029-0.357c0.013-0.186 0.021-0.403 0.021-0.621 0-0.712-0.079-1.405-0.229-2.072l0.012 0.063c-0.082-0.358-0.204-0.77-0.322-1.169-0.134-0.452-0.259-0.88-0.329-1.223-0.056-0.167-0.089-0.36-0.089-0.56 0-0.422 0.145-0.81 0.387-1.117l-0.003 0.004c0.111-0.111 0.264-0.18 0.434-0.18 0.142 0 0.273 0.048 0.377 0.13l-0.001-0.001h0.059c-0.106-0.135-0.27-0.222-0.454-0.222-0.072 0-0.14 0.013-0.204 0.037l0.004-0.001c-0.513 0.133-0.756 0.707-0.758 1.8 0.023 0.335 0.101 0.646 0.226 0.932l-0.007-0.018c0.199 0.508 0.379 1.12 0.51 1.75l0.013 0.077c0.103 0.559 0.162 1.203 0.162 1.861 0 0.308-0.013 0.614-0.038 0.916l0.003-0.039c-0.053 0.475-0.123 0.889-0.215 1.295l0.015-0.078zM14.528 16.007c0.072-0.044 0.157-0.087 0.245-0.125l0.014-0.005c0.064-0.414 0.144-0.993 0.185-1.374 0.048-0.358 0.076-0.771 0.076-1.191 0-0.697-0.076-1.377-0.22-2.031l0.011 0.062c-0.254-0.963-0.582-1.801-0.993-2.589l0.032 0.068-0.321-0.698c-0.066-0.178-0.127-0.396-0.173-0.62l-0.005-0.031c-0.032-0.129-0.050-0.276-0.050-0.428 0-0.417 0.136-0.802 0.367-1.113l-0.004 0.005c0.126-0.176 0.308-0.305 0.52-0.361l0.007-0.001c0.027-0.004 0.059-0.007 0.091-0.007 0.138 0 0.265 0.046 0.367 0.123l-0.002-0.001c-0.114-0.106-0.267-0.171-0.435-0.175h-0.001c-0.274 0.019-0.513 0.152-0.672 0.352l-0.001 0.002c-0.254 0.337-0.406 0.762-0.406 1.223 0 0.288 0.059 0.561 0.167 0.81l-0.005-0.013c0.155 0.509 0.325 0.938 0.524 1.35l-0.024-0.056c0.458 0.943 0.78 2.039 0.904 3.194l0.004 0.044c0.029 0.302 0.046 0.653 0.046 1.008 0 0.371-0.018 0.737-0.053 1.099l0.004-0.046c-0.030 0.363-0.113 0.952-0.18 1.424l-0.014 0.1zM10.948 7.744c0.171-0.155 0.399-0.25 0.649-0.25 0.112 0 0.22 0.019 0.321 0.054l-0.007-0.002c0.754 0.19 1.519 1.37 1.903 2.937 0.2 0.816 0.314 1.753 0.314 2.717 0 0.2-0.005 0.399-0.015 0.596l0.001-0.028c-0.012 0.222-0.065 0.6-0.121 0.929l-0.147-0.072c0.094-0.523 0.148-1.126 0.148-1.74 0-0.859-0.105-1.693-0.302-2.491l0.015 0.071c-0.213-0.997-0.7-1.858-1.378-2.525l-0.001-0.001c-0.192-0.21-0.466-0.341-0.772-0.341-0.228 0-0.439 0.073-0.61 0.197l0.003-0.002v-0.031l-0.002-0.019z"></path>
<path fill="#000" d="M9.092 11.775l0.158-0.152 0.092-0.121c0.053-0.063 0.132-0.104 0.22-0.104 0.003 0 0.005 0 0.008 0h-0c0.228-0.012 0.34 0.225 0.458 0.221 0.117 0.044-0.104 0.074-0.122 0.082l-0.204 0.136c-0.045 0.024-0.097 0.042-0.152 0.051l-0.003 0c-0.069 0.013-0.148 0.021-0.229 0.021-0.009 0-0.018-0-0.026-0l0.001 0c-0.001 0-0.002 0-0.003 0-0.063 0-0.123-0.015-0.175-0.042l0.002 0.001c-0.065-0.033-0.070-0.049-0.025-0.093z"></path>
<path fill="#ffeb00" d="M9.339 11.698c-0.026-0.119 0.085-0.212 0.201-0.233 0.129-0.023 0.267 0.041 0.256 0.184-0.007 0.085-0.095 0.144-0.207 0.155-0.096 0.011-0.223 0.006-0.249-0.11z"></path>
<path fill="#000" d="M10.43 11.152c0.064-0.181 0.129-0.353 0.324-0.421 0.017-0.005 0.036-0.007 0.056-0.007 0.077 0 0.145 0.039 0.185 0.098l0.001 0.001c0.031 0.044 0.054 0.096 0.067 0.152l0.001 0.003c0.013 0.056 0.020 0.121 0.020 0.188 0 0.119-0.023 0.232-0.065 0.336l0.002-0.006-0.010 0.023-0.031-0.017-0.535-0.314-0.025-0.013 0.010-0.023z"></path>
<path fill="#ffeb00" d="M10.5 11.145l0.476 0.279c0.029-0.071 0.045-0.154 0.045-0.24 0-0.128-0.036-0.247-0.098-0.348l0.002 0.003c-0.030-0.031-0.073-0.051-0.12-0.051-0.032 0-0.063 0.009-0.088 0.025l0.001-0c-0.109 0.079-0.187 0.195-0.217 0.328l-0.001 0.004z"></path>
<path fill="#000" d="M10.086 13.281l0.032-0.037c0.095 0.027 0.203 0.043 0.316 0.043 0.187 0 0.363-0.043 0.52-0.12l-0.007 0.003c0.304-0.184 0.327-0.545 0.38-0.862 0.021 0.073 0.034 0.156 0.034 0.242 0 0.23-0.088 0.44-0.233 0.598l0.001-0.001c-0.173 0.135-0.394 0.217-0.634 0.217-0.147 0-0.287-0.031-0.414-0.086l0.007 0.003z"></path>
<path fill="#000" d="M8.249 12.916c-0.024 0.047-0.038 0.102-0.038 0.161 0 0.014 0.001 0.027 0.002 0.041l-0-0.002c-0.098-0.049-0.17-0.14-0.19-0.248l-0-0.002c0.025 0.012 0.055 0.023 0.085 0.031l0.003 0.001c0.181 0.043 0.343-0.172 0.518-0.164-0.058 0.034-0.066 0.136-0.060 0.202-0.060-0.016-0.112-0.043-0.156-0.079l0.001 0.001c-0.009 0.031-0.015 0.066-0.015 0.102 0 0.019 0.001 0.037 0.004 0.055l-0-0.002c-0.064-0.009-0.119-0.044-0.155-0.093l-0-0.001zM8.353 13.265c-0.079-0.025-0.146-0.072-0.195-0.133l-0.001-0.001c-0.005 0.023-0.008 0.050-0.008 0.078 0 0.062 0.015 0.121 0.041 0.172l-0.001-0.002c-0.005-0.049 0.037-0.090 0.164-0.114z"></path>
<path fill="#000" d="M17.843 17.823c0 1.232-0.999 2.231-2.231 2.231s-2.231-0.999-2.231-2.231c0-1.232 0.999-2.231 2.231-2.231s2.231 0.999 2.231 2.231z"></path>
<path fill="#ffeb00" d="M17.759 17.823c0 1.186-0.961 2.147-2.147 2.147s-2.147-0.961-2.147-2.147c0-1.186 0.961-2.147 2.147-2.147s2.147 0.961 2.147 2.147z"></path>
<path fill="#000" d="M17.273 17.823c0 0.918-0.744 1.661-1.661 1.661s-1.661-0.744-1.661-1.661c0-0.918 0.744-1.661 1.661-1.661s1.661 0.744 1.661 1.661z"></path>
<path fill="#fff" d="M17.189 17.823c0 0.871-0.706 1.577-1.577 1.577s-1.577-0.706-1.577-1.577c0-0.871 0.706-1.577 1.577-1.577s1.577 0.706 1.577 1.577z"></path>
<path fill="#000" d="M17.046 17.823c0 0.792-0.642 1.434-1.434 1.434s-1.434-0.642-1.434-1.434c0-0.792 0.642-1.434 1.434-1.434s1.434 0.642 1.434 1.434z"></path>
<path fill="#ffeb00" d="M16.983 17.823c0 0.757-0.614 1.371-1.371 1.371s-1.371-0.614-1.371-1.371c0-0.757 0.614-1.371 1.371-1.371s1.371 0.614 1.371 1.371z"></path>
<path fill="#000" d="M16.014 16.852c0.084-0.025 0.182-0.040 0.282-0.040 0.558 0 1.011 0.453 1.011 1.011s-0.453 1.011-1.011 1.011c-0.101 0-0.198-0.015-0.289-0.042l0.007 0.002c-0.175 0.315-0.506 0.524-0.886 0.524-0.558 0-1.011-0.453-1.011-1.011 0-0.38 0.209-0.71 0.519-0.883l0.005-0.003c-0.036-0.084-0.057-0.182-0.057-0.285 0-0.41 0.333-0.743 0.743-0.743 0.308 0 0.572 0.187 0.685 0.453l0.002 0.005z"></path>
<path fill="#fff" d="M15.238 18.644l0.316-0.762-0.755 0.311c-0.124 0.052-0.21 0.173-0.21 0.313 0 0.187 0.152 0.339 0.339 0.339 0.138 0 0.256-0.082 0.309-0.2l0.001-0.002zM16.433 17.449l-0.762 0.316 0.311-0.755c0.052-0.124 0.173-0.21 0.313-0.21 0.187 0 0.339 0.152 0.339 0.339 0 0.138-0.082 0.256-0.2 0.309l-0.002 0.001zM16.458 17.508l-0.762 0.315 0.755 0.311c0.038 0.016 0.083 0.026 0.13 0.026 0.187 0 0.339-0.152 0.339-0.339s-0.152-0.339-0.339-0.339c-0.044 0-0.087 0.009-0.125 0.024l0.002-0.001zM14.767 17.508l0.762 0.315-0.755 0.311c-0.038 0.016-0.083 0.026-0.13 0.026-0.187 0-0.339-0.152-0.339-0.339s0.152-0.339 0.339-0.339c0.044 0 0.087 0.009 0.125 0.024l-0.002-0.001zM16.433 18.198l-0.762-0.316 0.311 0.755c0.052 0.124 0.173 0.21 0.313 0.21 0.187 0 0.339-0.152 0.339-0.339 0-0.138-0.082-0.256-0.2-0.309l-0.002-0.001zM15.237 17.002l0.316 0.762-0.755-0.311c-0.124-0.052-0.21-0.173-0.21-0.313 0-0.187 0.152-0.339 0.339-0.339 0.138 0 0.256 0.082 0.309 0.2l0.001 0.002zM15.927 18.668l-0.315-0.762-0.311 0.755c-0.016 0.038-0.026 0.083-0.026 0.13 0 0.187 0.152 0.339 0.339 0.339s0.339-0.152 0.339-0.339c0-0.044-0.008-0.087-0.024-0.125l0.001 0.002zM15.927 16.978l-0.315 0.762-0.311-0.755c-0.016-0.038-0.026-0.083-0.026-0.13 0-0.187 0.152-0.339 0.339-0.339s0.339 0.152 0.339 0.339c0 0.044-0.008 0.087-0.024 0.125l0.001-0.002z"></path>
<path fill="#000" d="M15.931 17.823c0 0.176-0.143 0.32-0.32 0.32s-0.32-0.143-0.32-0.32c0-0.176 0.143-0.32 0.32-0.32s0.32 0.143 0.32 0.32z"></path>
<path fill="#fff" d="M15.848 17.725c0.054 0.131-0.008 0.28-0.138 0.334s-0.28-0.008-0.334-0.138c-0.054-0.131 0.008-0.28 0.138-0.334s0.28 0.008 0.334 0.138z"></path>
</svg>
