<svg width="195" height="34" viewBox="0 0 195 34" fill="none" preserveAspectRatio="xMinYMin meet" xmlns="http://www.w3.org/2000/svg">
<g clip-path="url(#clip0_103_388)">
<path fill-rule="evenodd" clip-rule="evenodd" d="M0 13.1661L1.96403 15.1111H6.3864L6.47548 14.8561C6.9659 13.4529 7.94558 12.2192 9.20693 11.4164C9.76927 11.0584 10.5556 10.7302 11.3044 10.5408C11.4327 10.5083 11.4817 10.4648 11.6129 10.2661C11.8812 9.86 12.3868 9.25518 12.8651 8.76841C13.6368 7.98288 14.391 7.37968 15.2581 6.85435C15.5499 6.67765 15.613 6.62485 15.5572 6.60432C15.4122 6.55117 14.5294 6.38488 14.0686 6.32388C13.4366 6.2402 12.2004 6.23978 11.546 6.32304C11.2805 6.3568 11.0446 6.38446 11.0218 6.38446C10.9923 6.38446 10.9804 5.46524 10.9804 3.19222V0H0V13.1661ZM20.5691 11.6199C19.7448 11.7657 18.804 12.1752 18.1918 12.6546L17.9925 12.8108L18.1036 12.9504C18.678 13.6727 19.1539 14.7082 19.3743 15.7155C19.4507 16.0651 19.4611 16.2178 19.4611 17C19.4611 17.7822 19.4507 17.9349 19.3743 18.2845C18.9198 20.3619 17.6239 22.0218 15.7211 22.9633C14.4986 23.5683 12.9375 23.777 11.5717 23.5179C9.20919 23.0699 7.26411 21.4004 6.47548 19.1439L6.3864 18.8889H1.96296L0 20.835V34H10.9804V30.8078C10.9804 28.6198 10.9928 27.6155 11.0201 27.6155C11.0419 27.6155 11.2864 27.643 11.5634 27.6765C12.2032 27.7538 13.8457 27.7316 14.424 27.6376C16.3915 27.3183 18.1307 26.5567 19.635 25.3559C20.0999 24.9847 20.8694 24.2221 21.2449 23.7604C21.9384 22.9074 22.628 21.7031 22.9996 20.6958C23.2107 20.1237 23.4507 19.1926 23.5483 18.5678C23.6486 17.9257 23.6503 16.0781 23.5512 15.47C23.3375 14.1594 22.8696 12.7905 22.2986 11.8055L22.1672 11.5789L21.5206 11.5724C21.1 11.5682 20.7675 11.5848 20.5691 11.6199Z" fill="#31271A"/>
<path fill-rule="evenodd" clip-rule="evenodd" d="M34.6812 20.8339L32.7172 18.8889H28.2948L28.2057 19.1439C27.7153 20.547 26.7356 21.7808 25.4743 22.5836C24.9119 22.9415 24.1256 23.2697 23.3768 23.4592C23.2485 23.4916 23.1995 23.5352 23.0683 23.7339C22.8 24.14 22.2944 24.7448 21.8161 25.2316C21.0444 26.0171 20.2902 26.6203 19.4231 27.1456C19.1313 27.3223 19.0682 27.3751 19.124 27.3957C19.269 27.4487 20.1518 27.6151 20.6126 27.6761C21.2446 27.7598 22.4808 27.7602 23.1352 27.6769C23.4007 27.6432 23.6366 27.6155 23.6594 27.6155C23.6889 27.6155 23.7008 28.5347 23.7008 30.8077V34H34.6812V20.8339ZM14.1121 22.3801C14.9364 22.2343 15.8772 21.8247 16.4894 21.3453L16.6887 21.1892L16.5776 21.0496C16.0032 20.3273 15.5273 19.2917 15.3069 18.2844C15.2305 17.9349 15.2201 17.7822 15.2201 17C15.2201 16.2177 15.2305 16.065 15.3069 15.7155C15.7614 13.638 17.0573 11.9782 18.9601 11.0366C20.1826 10.4316 21.7437 10.223 23.1095 10.482C25.472 10.9301 27.4171 12.5995 28.2057 14.8561L28.2948 15.1111H32.7182L34.6812 13.165V-3.05176e-05H23.7008V3.19219C23.7008 5.38016 23.6884 6.38443 23.6611 6.38443C23.6393 6.38443 23.3948 6.35701 23.1178 6.32349C22.478 6.24615 20.8355 6.26842 20.2572 6.36234C18.2897 6.68169 16.5505 7.44328 15.0462 8.64411C14.5813 9.01524 13.8118 9.77784 13.4363 10.2396C12.7428 11.0925 12.0532 12.2968 11.6816 13.3041C11.4705 13.8763 11.2305 14.8073 11.1329 15.4322C11.0326 16.0743 11.0309 17.9219 11.13 18.53C11.3437 19.8406 11.8116 21.2095 12.3826 22.1944L12.514 22.4211L13.1606 22.4276C13.5812 22.4318 13.9137 22.4152 14.1121 22.3801Z" fill="#F8863D"/>
<path d="M47.1614 16.1458C47.2963 16.1458 47.4056 16.253 47.4056 16.3852V17.3612C47.4056 17.4934 47.2963 17.6007 47.1614 17.6007H43.1905C43.0557 17.6007 42.9463 17.4934 42.9463 17.3612V16.3852C42.9463 16.253 43.0557 16.1458 43.1905 16.1458H47.1614ZM43.1167 11.824C43.2516 11.824 43.361 11.9312 43.361 12.0634V21.9683C43.361 22.1005 43.2516 22.2077 43.1167 22.2077H41.8375C41.7026 22.2077 41.5933 22.1005 41.5933 21.9683V12.0634C41.5933 11.9312 41.7026 11.824 41.8375 11.824H43.1167ZM48.5435 11.824C48.6784 11.824 48.7878 11.9312 48.7878 12.0634V21.9683C48.7878 22.1005 48.6784 22.2077 48.5435 22.2077H47.2716C47.1367 22.2077 47.0273 22.1005 47.0273 21.9683V12.0634C47.0273 11.9312 47.1367 11.824 47.2716 11.824H48.5435Z" fill="#3B3B3C"/>
<path d="M53.6967 18.035C53.6967 18.2876 54.044 18.368 54.1593 18.1422L57.3173 11.9563C57.3587 11.8752 57.4433 11.824 57.5357 11.824H58.8501C58.9851 11.824 59.0944 11.9312 59.0944 12.0634V21.9683C59.0944 22.1005 58.9851 22.2077 58.8501 22.2077H57.6073C57.4724 22.2077 57.3631 22.1005 57.3631 21.9683V16.0395C57.3631 15.7869 57.0158 15.7065 56.9004 15.9323L53.7642 22.0754C53.7228 22.1565 53.6383 22.2077 53.5458 22.2077H52.2169C52.082 22.2077 51.9727 22.1005 51.9727 21.9683V12.0634C51.9727 11.9312 52.082 11.824 52.2169 11.824H53.4525C53.5873 11.824 53.6967 11.9312 53.6967 12.0634V18.035Z" fill="#3B3B3C"/>
<path d="M64.0249 18.035C64.0249 18.2876 64.3724 18.368 64.4878 18.1422L67.6457 11.9563C67.6872 11.8752 67.7721 11.824 67.8643 11.824H69.1789C69.3138 11.824 69.4231 11.9312 69.4231 12.0634V21.9683C69.4231 22.1005 69.3138 22.2077 69.1789 22.2077H67.9357C67.8008 22.2077 67.6915 22.1005 67.6915 21.9683V16.0395C67.6915 15.7869 67.3441 15.7065 67.2287 15.9323L64.0927 22.0754C64.0512 22.1565 63.9669 22.2077 63.8741 22.2077H62.5455C62.4106 22.2077 62.3013 22.1005 62.3013 21.9683V12.0634C62.3013 11.9312 62.4106 11.824 62.5455 11.824H63.7807C63.9157 11.824 64.0249 11.9312 64.0249 12.0634V18.035Z" fill="#3B3B3C"/>
<path d="M78.2051 16.1458C78.3401 16.1458 78.4493 16.253 78.4493 16.3852V17.3612C78.4493 17.4934 78.3401 17.6007 78.2051 17.6007H74.2345C74.0996 17.6007 73.9903 17.4934 73.9903 17.3612V16.3852C73.9903 16.253 74.0996 16.1458 74.2345 16.1458H78.2051ZM74.1606 11.824C74.2955 11.824 74.4048 11.9312 74.4048 12.0634V21.9683C74.4048 22.1005 74.2955 22.2077 74.1606 22.2077H72.8814C72.7465 22.2077 72.6372 22.1005 72.6372 21.9683V12.0634C72.6372 11.9312 72.7465 11.824 72.8814 11.824H74.1606ZM79.5875 11.824C79.7224 11.824 79.8317 11.9312 79.8317 12.0634V21.9683C79.8317 22.1005 79.7224 22.2077 79.5875 22.2077H78.3156C78.1807 22.2077 78.0714 22.1005 78.0714 21.9683V12.0634C78.0714 11.9312 78.1807 11.824 78.3156 11.824H79.5875Z" fill="#3B3B3C"/>
<path d="M88.6796 20.76C88.8146 20.76 88.9239 20.8672 88.9239 20.9994V21.9683C88.9239 22.1005 88.8146 22.2077 88.6796 22.2077H84.571C84.4361 22.2077 84.3268 22.1005 84.3268 21.9683V20.9994C84.3268 20.8672 84.4361 20.76 84.571 20.76H88.6796ZM84.5478 11.824C84.6828 11.824 84.7921 11.9312 84.7921 12.0634V21.9683C84.7921 22.1005 84.6828 22.2077 84.5478 22.2077H83.2686C83.1337 22.2077 83.0244 22.1005 83.0244 21.9683V12.0634C83.0244 11.9312 83.1337 11.824 83.2686 11.824H84.5478ZM88.0617 16.1458C88.1967 16.1458 88.306 16.253 88.306 16.3852V17.3327C88.306 17.465 88.1967 17.5722 88.0617 17.5722H84.571C84.4361 17.5722 84.3268 17.465 84.3268 17.3327V16.3852C84.3268 16.253 84.4361 16.1458 84.571 16.1458H88.0617ZM88.6363 11.824C88.7712 11.824 88.8805 11.9312 88.8805 12.0634V13.0394C88.8805 13.1717 88.7712 13.2789 88.6363 13.2789H84.571C84.4361 13.2789 84.3268 13.1717 84.3268 13.0394V12.0634C84.3268 11.9312 84.4361 11.824 84.571 11.824H88.6363Z" fill="#3B3B3C"/>
<path d="M94.8658 12.8011H96.8227C97.3319 12.8011 97.8076 12.9033 98.2484 13.1078C98.6898 13.3074 99.0757 13.5951 99.4055 13.9707C99.7401 14.3462 99.9995 14.7956 100.184 15.3185C100.368 15.8368 100.46 16.4168 100.46 17.0586C100.46 17.6863 100.368 18.2592 100.184 18.7774C99.9995 19.2909 99.7401 19.7354 99.4055 20.111C99.0757 20.4819 98.6898 20.7672 98.2484 20.9668C97.8076 21.1665 97.3319 21.2663 96.8227 21.2663H94.8658C94.3565 21.2663 93.8791 21.1689 93.4327 20.974C92.9919 20.7743 92.6036 20.489 92.269 20.1182C91.9392 19.7425 91.6822 19.298 91.4978 18.7845C91.3134 18.271 91.2212 17.7005 91.2212 17.073C91.2212 16.4311 91.3134 15.8487 91.4978 15.3257C91.6822 14.8027 91.9417 14.3534 92.2763 13.9778C92.6109 13.6022 92.9986 13.3122 93.44 13.1078C93.8815 12.9033 94.3565 12.8011 94.8658 12.8011ZM94.8658 14.2559C94.4536 14.2559 94.0995 14.3677 93.804 14.5911C93.5078 14.8146 93.2801 15.1379 93.1201 15.561C92.965 15.9794 92.8875 16.4834 92.8875 17.073C92.8875 17.5056 92.9308 17.8907 93.0181 18.2283C93.1103 18.5658 93.2416 18.8535 93.4114 19.0912C93.5854 19.3241 93.7942 19.5025 94.0366 19.6261C94.2839 19.7497 94.5605 19.8115 94.8658 19.8115H96.8373C97.2446 19.8115 97.5939 19.7021 97.8851 19.4834C98.1757 19.26 98.3992 18.9438 98.5543 18.535C98.7143 18.1213 98.7943 17.6292 98.7943 17.0586C98.7943 16.6165 98.7485 16.2219 98.6563 15.8748C98.569 15.5277 98.4377 15.2353 98.263 14.9976C98.0933 14.7599 97.8875 14.5769 97.6451 14.4485C97.407 14.3201 97.1384 14.2559 96.8373 14.2559H94.8658ZM96.4551 11.3961C96.59 11.3961 96.6993 11.5034 96.6993 11.6356V22.3962C96.6993 22.5285 96.59 22.6356 96.4551 22.6356H95.2486C95.1137 22.6356 95.0044 22.5285 95.0044 22.3962V11.6356C95.0044 11.5034 95.1137 11.3961 95.2486 11.3961H96.4551Z" fill="#3B3B3C"/>
<path d="M106.834 11.824C106.969 11.824 107.079 11.9312 107.079 12.0634V21.9683C107.079 22.1005 106.969 22.2077 106.834 22.2077H105.563C105.428 22.2077 105.318 22.1005 105.318 21.9683V12.0634C105.318 11.9312 105.428 11.824 105.563 11.824H106.834ZM109.533 11.824C109.668 11.824 109.777 11.9312 109.777 12.0634V13.0394C109.777 13.1717 109.668 13.2789 109.533 13.2789H102.893C102.758 13.2789 102.649 13.1717 102.649 13.0394V12.0634C102.649 11.9312 102.758 11.824 102.893 11.824H109.533Z" fill="#3B3B3C"/>
<path d="M118.021 20.76C118.156 20.76 118.266 20.8672 118.266 20.9994V21.9683C118.266 22.1005 118.156 22.2077 118.021 22.2077H113.912C113.778 22.2077 113.668 22.1005 113.668 21.9683V20.9994C113.668 20.8672 113.778 20.76 113.912 20.76H118.021ZM113.89 11.824C114.025 11.824 114.134 11.9312 114.134 12.0634V21.9683C114.134 22.1005 114.025 22.2077 113.89 22.2077H112.61C112.476 22.2077 112.366 22.1005 112.366 21.9683V12.0634C112.366 11.9312 112.476 11.824 112.61 11.824H113.89ZM117.403 16.1458C117.538 16.1458 117.647 16.253 117.647 16.3852V17.3327C117.647 17.465 117.538 17.5722 117.403 17.5722H113.912C113.778 17.5722 113.668 17.465 113.668 17.3327V16.3852C113.668 16.253 113.778 16.1458 113.912 16.1458H117.403ZM117.978 11.824C118.113 11.824 118.222 11.9312 118.222 12.0634V13.0394C118.222 13.1717 118.113 13.2789 117.978 13.2789H113.912C113.778 13.2789 113.668 13.1717 113.668 13.0394V12.0634C113.668 11.9312 113.778 11.824 113.912 11.824H117.978Z" fill="#3B3B3C"/>
<path d="M127.848 11.824C127.983 11.824 128.093 11.9312 128.093 12.0634V21.9683C128.093 22.1005 127.983 22.2077 127.848 22.2077H126.576C126.442 22.2077 126.332 22.1005 126.332 21.9683V13.5183C126.332 13.3861 126.223 13.2789 126.088 13.2789H122.969C122.834 13.2789 122.724 13.3861 122.724 13.5183V21.9683C122.724 22.1005 122.614 22.2077 122.48 22.2077H121.2C121.065 22.2077 120.956 22.1005 120.956 21.9683V12.0634C120.956 11.9312 121.065 11.824 121.2 11.824H127.848Z" fill="#3B3B3C"/>
<path d="M134.821 18.3566H132.831C132.696 18.3566 132.587 18.2494 132.587 18.1172V17.1484C132.587 17.0161 132.696 16.9089 132.831 16.9089H134.821C135.189 16.9089 135.485 16.8328 135.708 16.6807C135.931 16.5285 136.094 16.3194 136.195 16.0531C136.302 15.7869 136.356 15.4849 136.356 15.1474C136.356 14.8241 136.302 14.5198 136.195 14.2345C136.094 13.9492 135.931 13.7187 135.708 13.5427C135.485 13.3668 135.189 13.2789 134.821 13.2789H133.326C133.191 13.2789 133.082 13.3861 133.082 13.5183V21.9683C133.082 22.1005 132.972 22.2077 132.837 22.2077H131.566C131.431 22.2077 131.321 22.1005 131.321 21.9683V12.0634C131.321 11.9312 131.431 11.824 131.566 11.824H134.821C135.523 11.824 136.12 11.9666 136.61 12.2519C137.105 12.5372 137.483 12.9294 137.745 13.4286C138.007 13.9231 138.138 14.4913 138.138 15.1331C138.138 15.7987 138.007 16.374 137.745 16.859C137.483 17.3392 137.105 17.71 136.61 17.9715C136.12 18.2283 135.523 18.3566 134.821 18.3566Z" fill="#3B3B3C"/>
<path d="M148.081 16.1672V17.9359C148.081 18.6681 147.993 19.3099 147.819 19.8614C147.649 20.4129 147.402 20.8741 147.077 21.2449C146.757 21.611 146.368 21.8868 145.913 22.0722C145.462 22.2576 144.957 22.3504 144.4 22.3504C143.847 22.3504 143.342 22.2576 142.886 22.0722C142.436 21.8868 142.045 21.611 141.715 21.2449C141.39 20.8741 141.138 20.4129 140.959 19.8614C140.784 19.3099 140.697 18.6681 140.697 17.9359V16.1672C140.697 15.4255 140.784 14.7765 140.959 14.2202C141.133 13.6592 141.383 13.191 141.708 12.8153C142.038 12.4397 142.428 12.1568 142.88 11.9667C143.335 11.7765 143.837 11.6814 144.385 11.6814C144.943 11.6814 145.447 11.7765 145.898 11.9667C146.354 12.1568 146.745 12.4397 147.069 12.8153C147.394 13.191 147.644 13.6592 147.819 14.2202C147.993 14.7765 148.081 15.4255 148.081 16.1672ZM146.328 17.9359V16.153C146.328 15.6252 146.284 15.1735 146.196 14.7979C146.114 14.4176 145.991 14.1085 145.826 13.8708C145.661 13.6283 145.457 13.45 145.214 13.3359C144.977 13.2171 144.7 13.1577 144.385 13.1577C144.079 13.1577 143.806 13.2171 143.563 13.3359C143.325 13.45 143.122 13.6283 142.952 13.8708C142.787 14.1085 142.661 14.4176 142.574 14.7979C142.491 15.1735 142.45 15.6252 142.45 16.153V17.9359C142.45 18.4541 142.494 18.901 142.581 19.2766C142.668 19.6475 142.795 19.9517 142.96 20.1894C143.129 20.4224 143.335 20.596 143.578 20.71C143.82 20.8242 144.094 20.8812 144.4 20.8812C144.71 20.8812 144.987 20.8242 145.229 20.71C145.472 20.596 145.673 20.4224 145.833 20.1894C145.998 19.9517 146.121 19.6475 146.204 19.2766C146.286 18.901 146.328 18.4541 146.328 17.9359Z" fill="#3B3B3C"/>
<path d="M164.778 11.824C164.873 11.824 164.96 11.8784 165 11.9633L166.448 15.0471C166.536 15.2338 166.807 15.2325 166.893 15.045L168.303 11.9654C168.343 11.8794 168.429 11.824 168.526 11.824H169.957C170.139 11.824 170.257 12.0121 170.175 12.1714L167.761 16.8579C167.727 16.9259 167.727 17.006 167.761 17.074L170.233 21.8602C170.315 22.0194 170.197 22.2077 170.015 22.2077H168.518C168.422 22.2077 168.335 22.1527 168.296 22.067L166.836 18.9086C166.75 18.7212 166.479 18.721 166.392 18.9083L164.927 22.0674C164.887 22.1528 164.8 22.2077 164.704 22.2077H163.244C163.062 22.2077 162.944 22.0191 163.027 21.8598L165.518 17.0534C165.554 16.985 165.554 16.9041 165.518 16.8359L163.086 12.1724C163.003 12.0131 163.121 11.824 163.304 11.824H164.778Z" fill="#3B3B3C"/>
<path d="M174.659 18.035C174.659 18.2876 175.007 18.368 175.122 18.1422L178.28 11.9563C178.321 11.8752 178.406 11.824 178.498 11.824H179.813C179.948 11.824 180.057 11.9312 180.057 12.0634V21.9683C180.057 22.1005 179.948 22.2077 179.813 22.2077H178.57C178.435 22.2077 178.325 22.1005 178.325 21.9683V16.0395C178.325 15.7869 177.978 15.7065 177.863 15.9323L174.727 22.0754C174.686 22.1565 174.601 22.2077 174.509 22.2077H173.179C173.044 22.2077 172.935 22.1005 172.935 21.9683V12.0634C172.935 11.9312 173.044 11.824 173.179 11.824H174.415C174.55 11.824 174.659 11.9312 174.659 12.0634V18.035Z" fill="#3B3B3C"/>
<path d="M183.976 12.1362C183.926 11.9817 184.044 11.824 184.209 11.824H185.302C185.409 11.824 185.504 11.8924 185.536 11.9927L187.686 18.807C187.757 19.032 188.082 19.0319 188.153 18.8068L190.296 11.9929C190.328 11.8925 190.422 11.824 190.53 11.824H191.51C191.674 11.824 191.792 11.9799 191.743 12.1339L188.634 22.0387C188.603 22.1392 188.509 22.2077 188.401 22.2077H187.428C187.322 22.2077 187.228 22.1403 187.196 22.041L183.976 12.1362ZM183.271 12.0634C183.271 11.9312 183.38 11.824 183.515 11.824H184.52C184.651 11.824 184.759 11.9261 184.763 12.0549L184.995 18.4351V21.9683C184.995 22.1005 184.886 22.2077 184.751 22.2077H183.515C183.38 22.2077 183.271 22.1005 183.271 21.9683V12.0634ZM191.061 12.0552C191.066 11.9262 191.174 11.824 191.305 11.824H192.316C192.451 11.824 192.56 11.9312 192.56 12.0634V21.9683C192.56 22.1005 192.451 22.2077 192.316 22.2077H191.081C190.946 22.2077 190.837 22.1005 190.837 21.9683V18.4351L191.061 12.0552Z" fill="#3B3B3C"/>
<path d="M151.705 12.1362C151.655 11.9817 151.773 11.824 151.938 11.824H153.031C153.138 11.824 153.233 11.8924 153.265 11.9927L155.415 18.807C155.486 19.032 155.811 19.0319 155.882 18.8068L158.025 11.9929C158.057 11.8925 158.151 11.824 158.259 11.824H159.239C159.403 11.824 159.521 11.9799 159.472 12.1339L156.363 22.0387C156.332 22.1392 156.238 22.2077 156.13 22.2077H155.157C155.051 22.2077 154.957 22.1403 154.925 22.041L151.705 12.1362ZM151 12.0634C151 11.9312 151.109 11.824 151.244 11.824H152.249C152.38 11.824 152.488 11.9261 152.492 12.0549L152.724 18.4351V21.9683C152.724 22.1005 152.615 22.2077 152.48 22.2077H151.244C151.109 22.2077 151 22.1005 151 21.9683V12.0634ZM158.79 12.0552C158.795 11.9262 158.903 11.824 159.034 11.824H160.045C160.18 11.824 160.289 11.9312 160.289 12.0634V21.9683C160.289 22.1005 160.18 22.2077 160.045 22.2077H158.81C158.675 22.2077 158.566 22.1005 158.566 21.9683V18.4351L158.79 12.0552Z" fill="#3B3B3C"/>
</g>
<defs>
<clipPath id="clip0_103_388">
<rect width="195" height="34" fill="white"/>
</clipPath>
</defs>
</svg>
