<svg width="300" height="120" viewBox="0 0 300 120" fill="none" xmlns="http://www.w3.org/2000/svg">
<path d="M48.5963 18H56.6963V37.47L70.9763 18H72.8663L61.6463 33.27L72.8363 48H70.9763L60.7163 34.53L56.6963 39.99V48H48.5963V18ZM91.0088 17.7L105.289 48H103.639L101.179 42.81H80.8388L78.4088 48H76.7588L91.0088 17.7ZM100.489 41.31L91.0088 21.21L81.5588 41.31H100.489ZM109.182 18H123.252C126.232 18 128.782 19.05 130.902 21.15C133.002 23.27 134.052 25.82 134.052 28.8C134.052 31.78 133.002 34.33 130.902 36.45C128.782 38.57 126.232 39.63 123.252 39.63H110.682V48H109.182V18ZM123.252 38.13C125.832 38.13 128.032 37.22 129.852 35.4C131.652 33.58 132.552 31.38 132.552 28.8C132.552 26.24 131.642 24.05 129.822 22.23C128.002 20.41 125.812 19.5 123.252 19.5H110.682V38.13H123.252ZM137.952 18H139.452V26.37H152.022C155.002 26.37 157.552 27.43 159.672 29.55C161.772 31.67 162.822 34.22 162.822 37.2C162.822 40.18 161.772 42.73 159.672 44.85C157.552 46.95 155.002 48 152.022 48H137.952V18ZM139.452 27.87V46.5H152.022C154.582 46.5 156.772 45.59 158.592 43.77C160.412 41.95 161.322 39.76 161.322 37.2C161.322 34.62 160.422 32.42 158.622 30.6C156.802 28.78 154.602 27.87 152.022 27.87H139.452ZM138.552 18H158.352V19.5H138.552V18ZM182.051 48.33C177.811 48.33 174.201 46.84 171.221 43.86C168.221 40.86 166.721 37.25 166.721 33.03C166.721 28.81 168.221 25.21 171.221 22.23C174.221 19.23 177.831 17.73 182.051 17.73C186.271 17.73 189.871 19.23 192.851 22.23C195.831 25.21 197.321 28.81 197.321 33.03C197.321 37.25 195.831 40.85 192.851 43.83C189.871 46.83 186.271 48.33 182.051 48.33ZM182.051 46.83C185.851 46.83 189.101 45.48 191.801 42.78C194.481 40.1 195.821 36.85 195.821 33.03C195.821 29.23 194.471 25.98 191.771 23.28C189.091 20.58 185.851 19.23 182.051 19.23C178.231 19.23 174.971 20.58 172.271 23.28C169.571 25.98 168.221 29.23 168.221 33.03C168.221 36.83 169.571 40.08 172.271 42.78C174.971 45.48 178.231 46.83 182.051 46.83ZM202.112 18H203.612V38.01H224.912V18H226.412V48H224.912V39.51H203.612V48H202.112V18Z" fill="#636F19"/>
<path d="M11.2227 69.3305V97.8305H3.12266V67.8305H27.4227V97.8305H25.9227V69.3305H11.2227ZM47.5445 98.1605C43.3045 98.1605 39.6945 96.6705 36.7145 93.6905C33.7145 90.6905 32.2145 87.0805 32.2145 82.8605C32.2145 78.6405 33.7145 75.0405 36.7145 72.0605C39.7145 69.0605 43.3245 67.5605 47.5445 67.5605C51.7645 67.5605 55.3645 69.0605 58.3445 72.0605C61.3245 75.0405 62.8145 78.6405 62.8145 82.8605C62.8145 87.0805 61.3245 90.6805 58.3445 93.6605C55.3645 96.6605 51.7645 98.1605 47.5445 98.1605ZM47.5445 96.6605C51.3445 96.6605 54.5945 95.3105 57.2945 92.6105C59.9745 89.9305 61.3145 86.6805 61.3145 82.8605C61.3145 79.0605 59.9645 75.8105 57.2645 73.1105C54.5845 70.4105 51.3445 69.0605 47.5445 69.0605C43.7245 69.0605 40.4645 70.4105 37.7645 73.1105C35.0645 75.8105 33.7145 79.0605 33.7145 82.8605C33.7145 86.6605 35.0645 89.9105 37.7645 92.6105C40.4645 95.3105 43.7245 96.6605 47.5445 96.6605ZM83.9251 79.8305C84.0251 79.8305 84.1051 79.8405 84.1651 79.8605C85.5451 79.7605 86.7051 79.2005 87.6451 78.1805C88.5851 77.1805 89.0551 75.9805 89.0551 74.5805C89.0551 73.1405 88.5351 71.9005 87.4951 70.8605C86.4751 69.8405 85.2351 69.3305 83.7751 69.3305H69.1051V79.8605L83.9251 79.8305ZM83.6551 96.3305C85.7351 96.3305 87.5051 95.5805 88.9651 94.0805C90.4051 92.6205 91.1251 90.8605 91.1251 88.8005C91.1251 86.7605 90.3851 85.0005 88.9051 83.5205C87.4451 82.0605 85.6951 81.3305 83.6551 81.3305H69.1051V96.3305H83.6551ZM67.6051 67.8305H83.7751C85.6351 67.8305 87.2351 68.4905 88.5751 69.8105C89.8951 71.1305 90.5551 72.7205 90.5551 74.5805C90.5551 77.2205 89.3951 79.2005 87.0751 80.5205C88.7151 81.2005 90.0551 82.2905 91.0951 83.7905C92.1351 85.3105 92.6551 86.9805 92.6551 88.8005C92.6551 91.2805 91.7751 93.4105 90.0151 95.1905C88.2551 96.9505 86.1351 97.8305 83.6551 97.8305H67.6051V67.8305ZM112.789 98.1605C108.549 98.1605 104.939 96.6705 101.959 93.6905C98.9586 90.6905 97.4586 87.0805 97.4586 82.8605C97.4586 78.6405 98.9586 75.0405 101.959 72.0605C104.959 69.0605 108.569 67.5605 112.789 67.5605C117.009 67.5605 120.609 69.0605 123.589 72.0605C126.569 75.0405 128.059 78.6405 128.059 82.8605C128.059 87.0805 126.569 90.6805 123.589 93.6605C120.609 96.6605 117.009 98.1605 112.789 98.1605ZM112.789 96.6605C116.589 96.6605 119.839 95.3105 122.539 92.6105C125.219 89.9305 126.559 86.6805 126.559 82.8605C126.559 79.0605 125.209 75.8105 122.509 73.1105C119.829 70.4105 116.589 69.0605 112.789 69.0605C108.969 69.0605 105.709 70.4105 103.009 73.1105C100.309 75.8105 98.9586 79.0605 98.9586 82.8605C98.9586 86.6605 100.309 89.9105 103.009 92.6105C105.709 95.3105 108.969 96.6605 112.789 96.6605ZM146.199 67.8305L160.449 98.1305H158.799L146.199 71.3405L133.599 98.1305H131.949L146.199 67.8305ZM164.343 67.8305H165.843V76.2005H178.413C181.393 76.2005 183.943 77.2605 186.063 79.3805C188.163 81.5005 189.213 84.0505 189.213 87.0305C189.213 90.0105 188.163 92.5605 186.063 94.6805C183.943 96.7805 181.393 97.8305 178.413 97.8305H164.343V67.8305ZM165.843 77.7005V96.3305H178.413C180.973 96.3305 183.163 95.4205 184.983 93.6005C186.803 91.7805 187.713 89.5905 187.713 87.0305C187.713 84.4505 186.813 82.2505 185.013 80.4305C183.193 78.6105 180.993 77.7005 178.413 77.7005H165.843ZM205.683 97.8305H204.093V84.2405L193.743 97.8305H191.883L203.163 82.9805L191.853 67.8305H193.743L204.093 81.6905V67.8305H205.593L205.623 81.7505L216.003 67.8605H217.893L206.583 83.0105L217.863 97.8605H216.003L205.653 84.2705L205.683 97.8305ZM221.326 67.8305H222.826V76.2005H235.396C238.376 76.2005 240.926 77.2605 243.046 79.3805C245.146 81.5005 246.196 84.0505 246.196 87.0305C246.196 90.0105 245.146 92.5605 243.046 94.6805C240.926 96.7805 238.376 97.8305 235.396 97.8305H221.326V67.8305ZM222.826 77.7005V96.3305H235.396C237.956 96.3305 240.146 95.4205 241.966 93.6005C243.786 91.7805 244.696 89.5905 244.696 87.0305C244.696 84.4505 243.796 82.2505 241.996 80.4305C240.176 78.6105 237.976 77.7005 235.396 77.7005H222.826ZM250.095 67.8305H272.595V69.3305H251.595V87.8405H265.695V89.3405H251.595V96.3305H272.595V97.8305H250.095V67.8305Z" fill="#636F19"/>
<path d="M299.841 5.44464C299.739 5.29884 299.595 5.1892 299.428 5.13111C299.262 5.07302 299.082 5.06939 298.913 5.12073C273.773 12.7082 258.096 23.5695 252.334 37.4039C247.514 48.9724 251.699 58.5233 252.513 60.2759C251.162 66.1528 250.372 69.0912 250 69.0912C250.372 69.0912 250.69 69.4227 250.377 69.73C250.518 69.9079 250.377 70.1132 250.507 70.4824H250.596C250.805 70.4813 251.007 70.4022 251.162 70.2601C251.317 70.118 251.139 69.9412 251.162 69.73C251.382 69.6022 251.759 66.2805 253.762 61.0108C255.094 61.1004 256.411 61.1684 257.682 61.1684C276.27 61.1727 288.099 51.6678 290.397 34.6116C292.791 16.8439 299.778 6.55088 299.847 6.44387C299.948 6.29703 300.001 6.12221 300 5.94334C299.999 5.76447 299.944 5.59029 299.841 5.44464ZM288.719 34.3788C285.512 58.1302 264.53 59.9219 254.389 59.3464C258.153 49.707 266.566 34.6188 285.123 19.6276C285.274 19.4775 285.365 19.2759 285.378 19.0617C285.391 18.8474 285.326 18.6358 285.195 18.4676C285.064 18.2995 284.876 18.1867 284.668 18.1513C284.459 18.1158 284.246 18.16 284.068 18.2755C265.786 33.0499 257.169 47.9746 253.153 57.8859C250.977 51.4169 251.242 44.3567 253.895 38.0749C259.292 25.1312 273.879 14.8295 297.244 7.43731C295.067 11.2737 290.586 20.5371 288.719 34.3788Z" fill="#636F19"/>
</svg>
